<?xml version="1.0" encoding="utf-8"?>
<!-- Generator: Adobe Illustrator 24.0.2, SVG Export Plug-In . SVG Version: 6.00 Build 0)  -->
<svg version="1.1" id="Layer_1" xmlns="http://www.w3.org/2000/svg" xmlns:xlink="http://www.w3.org/1999/xlink" x="0px" y="0px"
	 viewBox="0 0 1400 980" style="enable-background:new 0 0 1400 980;" xml:space="preserve">
<style type="text/css">
	.st0{opacity:0.65;fill:#68BCEA;enable-background:new    ;}
	.st1{fill:#68BCEA;}
	.st2{opacity:0.3;fill:#68BCEA;enable-background:new    ;}
	.st3{fill:#7170B2;}
	.st4{fill:#CBE3F0;}
	.st5{fill:#E3F3FA;}
	.st6{fill:#FFFFFF;}
	.st7{fill:#A0CA71;}
	.st8{fill:#3E96D2;}
	.st9{fill:url(#SVGID_1_);}
	.st10{fill:#F7BEBC;}
	.st11{fill:#282929;}
	.st12{opacity:0.6;fill:#F18C86;enable-background:new    ;}
	.st13{fill:#ED6D1A;}
	.st14{fill:#F39794;}
	.st15{fill:#343434;}
	.st16{opacity:0.5;fill:#DAEEF7;enable-background:new    ;}
	.st17{opacity:0.5;}
	.st18{fill:#DAEEF7;}
	.st19{fill:#34B5A8;}
	.st20{fill:#EFAC80;}
	.st21{fill:#452D87;}
	.st22{fill:url(#SVGID_2_);}
	.st23{opacity:0.3;fill:#DAEEF7;enable-background:new    ;}
	.st24{fill:#68BCEA;stroke:#3E96D2;stroke-width:2;stroke-miterlimit:10;}
	.st25{opacity:0.6;fill:#D29369;enable-background:new    ;}
	.st26{fill:#5E2F13;}
	.st27{fill:#D29369;}
	.st28{opacity:0.5;fill:#2E255B;enable-background:new    ;}
	.st29{fill:#2E255B;}
	.st30{fill:#97A65F;}
	.st31{opacity:0.3;fill:#D29369;enable-background:new    ;}
	.st32{fill:url(#SVGID_3_);}
</style>
<g>
	<path class="st0" d="M1305,980H20.2c-1.7,0-3.1-1.5-3.1-3.3v-1.1c0-1.8,1.4-3.3,3.1-3.3H1305c1.7,0,3.1,1.5,3.1,3.3v1.1
		C1308,978.5,1306.6,980,1305,980z"/>
	<g>
		<path class="st1" d="M594.6,288.3L594.6,288.3c0-9.8,7.8-17.9,18-19.1v-35c0-11.7,10.2-21.2,22.8-21.2h158.5
			c12.5,0,22.8,9.5,22.8,21.2v35.1c9.7,1.6,17.2,9.5,17.2,19.1l0,0c0,9.5-7.5,17.5-17.2,19.1v129.1c9.7,1.6,17.2,9.5,17.2,19.1l0,0
			c0,9.5-7.5,17.5-17.2,19.1v13.2c0,11.7-10.2,21.2-22.8,21.2H756c-4.8,0-8.8,3.6-8.8,8.2v8.7h-64.5v-8.7c0-4.5-4-8.2-8.8-8.2h-38.6
			c-12.5,0-22.8-9.5-22.8-21.2v-13.1c-10.2-1.3-18-9.4-18-19.1l0,0c0-9.8,7.8-17.9,18-19.1V307.5
			C602.4,306.2,594.6,298.2,594.6,288.3z"/>
		<g>
			<polygon class="st1" points="816.6,307.5 677.7,309.1 816.6,310.6 			"/>
		</g>
		<g>
			<polygon class="st1" points="612.6,266.1 751.5,267.6 612.6,269.1 			"/>
		</g>
		<g>
			<polygon class="st1" points="816.6,474.3 677.7,475.9 816.6,477.4 			"/>
		</g>
		<g>
			<polygon class="st1" points="612.6,432.8 751.5,434.4 612.6,435.9 			"/>
		</g>
		<path class="st2" d="M594.5,288.3L594.5,288.3c0-9.8,7.9-17.9,18.1-19.1v-24.6c0-17.4,15.2-31.5,33.9-31.5h24.6
			c11.1,89.1,41,223.9,121.3,295c-2.6,0.6-5.3,0.9-8.2,0.9H756c-4.8,0-8.8,3.6-8.8,8.2v8.7h-64.5V517c0-4.5-4-8.2-8.8-8.2h-27.5
			c-18.7,0-33.9-14.1-33.9-31.5v-2.7c-10.2-1.3-18.1-9.4-18.1-19.1l0,0c0-9.8,7.9-17.9,18.1-19.1V307.5
			C602.4,306.2,594.5,298.2,594.5,288.3z"/>
		<path class="st1" d="M612.6,366.2c0,3.2,45.7,5.7,102,5.7s102-2.6,102-5.7c0-3.2-45.7-5.7-102-5.7S612.6,363,612.6,366.2z"/>
		<path class="st2" d="M612.6,436.4v-70.1c0.3,3.2,45.9,5.7,102,5.7c56.3,0,102-2.6,102-5.7v70.3c9.7,1.6,17.2,9.5,17.2,19.1
			c0,9.5-7.5,17.5-17.2,19.1v13.2c0,11.7-10.2,21.2-22.7,21.2H756c-4.8,0-8.8,3.6-8.8,8.2v8.7h-64.5v-8.7c0-4.5-4-8.2-8.8-8.2h-38.6
			c-12.5,0-22.7-9.5-22.7-21.2v-13.1c-10.2-1.3-18-9.4-18-19.1C594.6,445.8,602.4,437.7,612.6,436.4z"/>
		<path class="st3" d="M673.3,560.4h81.6c7.1,0,12.9-5.5,12.9-12.3v-15.3c0-6.8-5.8-12.3-12.9-12.3h-81.6c-7.1,0-12.9,5.5-12.9,12.3
			v15.3C660.5,554.9,666.2,560.4,673.3,560.4z"/>
		<path class="st4" d="M625.6,969.3h178c14.5,0,26.2-11.1,26.2-25V565.4c0-13.8-11.7-25-26.2-25h-178c-14.5,0-26.2,11.1-26.2,25
			v378.9C599.4,958,611.1,969.3,625.6,969.3z"/>
		<path class="st3" d="M644.8,731.7h138.7V618.4c0-13.8-11.7-25-26.2-25H671c-14.5,0-26.2,11.1-26.2,25V731.7z"/>
		<path class="st5" d="M656.3,731.7h115.6V620c0-9.2-7.8-16.6-17.4-16.6h-80.7c-9.7,0-17.4,7.4-17.4,16.6V731.7z"/>
		<path class="st3" d="M631.2,740.9h163.5c1.6,0,3-1.2,3-2.8v-3.6c0-1.5-1.3-2.8-3-2.8H631.2c-1.6,0-3,1.2-3,2.8v3.6
			C628.3,739.7,629.5,740.9,631.2,740.9z"/>
		<g>
			<path class="st3" d="M610.9,935.1V574.4c0-13.7,11.9-24.9,26.8-24.9h153.8c14.7,0,26.8,11.1,26.8,24.9v360.6
				c0,13.7-11.9,24.9-26.8,24.9H637.7C622.9,960,610.9,948.9,610.9,935.1z M612.6,574.4v360.8c0,12.8,11.2,23.3,25,23.3h154
				c13.8,0,25-10.4,25-23.3V574.4c0-12.8-11.2-23.3-25-23.3H637.5C623.8,551.2,612.6,561.6,612.6,574.4z"/>
		</g>
		<g>
			<path class="st3" d="M785.2,792.2v85.6c0,15.3-5.9,27.6-13.3,27.6H657.2c-7.4,0-13.3-12.4-13.3-27.6v-85.6
				c0-15.3,5.9-27.6,13.3-27.6h114.7C779.2,764.6,785.2,777,785.2,792.2z M782.7,877.6v-85c0-12.6-4.9-22.8-10.9-22.8H657.3
				c-6,0-10.9,10.2-10.9,22.8v85c0,12.6,4.9,22.8,10.9,22.8h114.4C777.9,900.3,782.7,890.1,782.7,877.6z"/>
		</g>
		<g>
			<g>
				<path class="st6" d="M739.2,664.1h1.4l-2.7-22.6c-0.2-1.5,1-2.7,2.6-2.7h2.2h5.2h2.2c1.5,0,2.8,1.3,2.6,2.7l-2.7,22.6h0.9
					c1.1,0,1.9,0.8,1.9,1.9v6.4c0,1-0.8,1.9-1.9,1.9h-11.8c-1.1,0-1.9-0.8-1.9-1.9V666C737.3,664.9,738.1,664.1,739.2,664.1z"/>
				<path class="st7" d="M736.9,671.1h16.6c0.7,0,1.2-0.5,1.2-1.1v-1.5c0-0.6-0.5-1.1-1.2-1.1h-16.6c-0.7,0-1.2,0.5-1.2,1.1v1.5
					C735.7,670.6,736.2,671.1,736.9,671.1z"/>
			</g>
			<path class="st6" d="M677.3,664.1h1.2l-2.7-22.6c-0.2-1.5,1.1-2.7,2.6-2.7h2.2h5.2h2.2c1.6,0,2.8,1.3,2.6,2.7l-2.7,22.6h1.1
				c1.1,0,1.9,0.8,1.9,1.9v6.4c0,1-0.8,1.9-1.9,1.9h-11.8c-1.1,0-1.9-0.8-1.9-1.9v-6.3C675.4,664.9,676.2,664.1,677.3,664.1z"/>
			<path class="st8" d="M674.9,671.1h16.6c0.7,0,1.2-0.5,1.2-1.1v-1.5c0-0.6-0.5-1.1-1.2-1.1h-16.6c-0.7,0-1.2,0.5-1.2,1.1v1.5
				C673.7,670.6,674.3,671.1,674.9,671.1z"/>
		</g>
		<g>
			
				<linearGradient id="SVGID_1_" gradientUnits="userSpaceOnUse" x1="663.9312" y1="270.6278" x2="702.5543" y2="270.6278" gradientTransform="matrix(1 0 0 -1 0 980.1102)">
				<stop  offset="0" style="stop-color:#C0D8F2"/>
				<stop  offset="0.5" style="stop-color:#B7D4F0"/>
				<stop  offset="1" style="stop-color:#5FACE0"/>
			</linearGradient>
			<polygon class="st9" points="678.2,686.4 688.2,686.4 702.6,686.4 694.2,732.5 688.2,732.5 678.2,732.5 672.2,732.5 663.9,686.4 
							"/>
			<path class="st1" d="M662.8,690.3h41.5c0.8,0,1.5-0.6,1.5-1.5v-1.6c0-0.8-0.7-1.5-1.5-1.5h-41.5c-0.8,0-1.5,0.6-1.5,1.5v1.6
				C661.3,689.6,662,690.3,662.8,690.3z"/>
		</g>
	</g>
	<g>
		<path class="st10" d="M1259.3,916.2l-0.7,21.1l-27.6,18.6c0,0-13-16.3-12.8-18.6c0.3-2.3,0-38.7,0-38.7s31.6,11.1,32.9,11.1
			S1259.3,916.2,1259.3,916.2z"/>
		<polygon class="st10" points="1124.1,937.3 1124.1,911.2 1092.1,902.9 1085,905.8 1083.7,937.3 1093.8,964.6 		"/>
		<path class="st11" d="M1169.7,537.1l40.5,382.6c15.9-0.6,32.4-1.8,49.1-3.6c1.9-73.4,7.3-292.7,6.4-380.8
			c-1-106.5-35.3-122.1-35.3-122.1l-58.4-14.2l-79.7,13.2C1117.1,502.1,1169.7,537.1,1169.7,537.1z"/>
		<path class="st11" d="M1078,915.3c12,1.3,28.6,2.8,48.4,3.9l42.4-442.2l4.5-70.4c0,0-65.2-29.2-86.7,5.5
			c-21.6,34.7-20.9,86.3-20.9,86.3S1068.4,824.1,1078,915.3z"/>
		<path class="st11" d="M1124.1,937.6v28.8c0,2.4-2.1,4.3-4.7,4.3h-72.8c-5.3,0-7.3-6.4-2.8-9l39.9-24.2
			C1083.7,937.6,1100.8,948.4,1124.1,937.6z"/>
		<path class="st11" d="M1258.8,937.6v28.8c0,2.4-2.1,4.3-4.7,4.3h-72.8c-5.3,0-7.3-6.4-2.8-9l39.9-24.2
			C1218.4,937.6,1235.3,948.4,1258.8,937.6z"/>
		<path class="st10" d="M1058.3,268.1l-17.8,53.3c0,0-77.7-68-77.3-87.2l1.4-5.8c1.8-7.3-0.1-12-3.1-12.3l-0.6,0.1
			c0,0-5.2,10.3-9.4,18.7l-4.7-4l-23.6,27.5l27,12.2l0,0l0,0c0,0,82.9,122.2,101.7,114.2c18.8-8.1,47.4-75.3,47.4-75.3L1058.3,268.1
			z"/>
		<path class="st10" d="M1355.3,308.9c0,0,25.7,34,22.9,41.4c-3,7.3-130.9,104-130.9,104s-3.4,26-18.1,32.8l-18.6-31l105.9-109.4
			l-8.3-10.9L1355.3,308.9z"/>
		<polygon class="st10" points="1181.8,149.7 1187.2,190.5 1143.8,189.1 1145,142.5 		"/>
		<path class="st12" d="M1144.5,164l0.6-21.5l37.4,11.1l1,8.1C1175.1,164.5,1159.4,168,1144.5,164z"/>
		<polygon class="st13" points="1110,73.3 1111,101.6 1116.2,103.9 1120.6,68.8 		"/>
		<path class="st14" d="M1119.6,97.7c2.1,6.2-0.5,12.5-5.8,14.1c-5.3,1.6-11.3-2.2-13.5-8.3c-2.1-6.2,0.5-12.5,5.8-14.1
			C1111.5,87.8,1117.5,91.5,1119.6,97.7z"/>
		<path class="st10" d="M1118.5,132.9c-1.4-2.7-2.5-5.6-3.4-8.5c-2.5-7.9-3.3-16.2-3.4-23.4c0-1.5-0.2-3.1-0.3-4.6
			c-0.6-6.2-0.1-12.7,2-19.3c6.9-21.2,28.2-35.9,51.9-35.8c32,0.2,56.3,25.4,53.9,54.2c3.6-1.5,7.4-1.6,10.6,0
			c6.2,3.2,7.8,11.5,3.6,18.7c-4.2,7.2-12.6,10.4-18.8,7.4c-0.8-0.4-1.6-1-2.3-1.6c-4.8,24.3-28,41.7-54,39.4
			c-12.7-1.1-23.8-6.8-31.8-15.1c-0.5-0.5-1.1-1.1-1.7-1.7C1122.3,139.6,1120.1,136.3,1118.5,132.9z"/>
		<path class="st15" d="M1170.4,96.3c-0.3,2.4,1.7,4.5,4.2,4.8c2.6,0.2,4.9-1.5,5.2-4c0.3-2.4-1.7-4.5-4.2-4.8
			C1173,92.1,1170.6,93.9,1170.4,96.3z"/>
		<path class="st15" d="M1129.8,95.2c-0.3,2.4,1.7,4.5,4.2,4.8c2.6,0.2,4.9-1.5,5.2-4c0.3-2.4-1.7-4.5-4.2-4.8
			C1132.3,91,1130.1,92.8,1129.8,95.2z"/>
		<path class="st13" d="M1165.6,87.1c2.4-0.6,4.7-1.2,6.9-1.5c2.3-0.3,4.5-0.3,6.6,0c2.1,0.3,4.2,0.8,6.3,1.8l0.8,0.3
			c0.3,0.1,0.5,0.2,0.8,0.4l1.5,0.8c1,0.6,2,1.2,3.1,1.7c-0.6-1.1-1.3-2-2-2.9c-0.8-0.8-1.7-1.8-2.8-2.4c-2-1.5-4.6-2.4-7.2-2.7
			c-2.6-0.3-5.3-0.1-7.7,0.7C1169.5,84.1,1167.2,85.4,1165.6,87.1z"/>
		<path class="st13" d="M1146.6,86.4c-1.4-1.9-3.6-3.4-5.8-4.4c-2.4-1-5-1.5-7.6-1.4c-2.6,0.2-5.3,0.8-7.5,2.2c-1.2,0.6-2,1.5-3,2.2
			c-0.8,0.8-1.6,1.8-2.4,2.7c1.2-0.4,2.2-1.1,3.3-1.5l1.6-0.6c0.3-0.1,0.5-0.2,0.8-0.3l0.8-0.2c2.1-0.8,4.3-1.1,6.4-1.2
			c2.2-0.1,4.4,0.1,6.6,0.6C1142.1,84.8,1144.3,85.5,1146.6,86.4z"/>
		<path class="st13" d="M1108,39.6c0,0-16.2-1.1,2.2-12.1s65.5-21.5,93-4.4c0,0,7.1-10.9,15.2-7.4c8.1,3.6-6.7,10.1-6.7,10.1
			s10.8,0.7,13.6,5.9c2,3.9-4.6,3.4-8.1,2.8c6,1.5,24.7,14.5,8,57.3c-4.1-1.3-33.4-31.7-33.4-31.7s-48.4,20.9-40.8,7.2
			c0,0-56.9,20.2-45.9-6.1C1105,61.4,1083,60.7,1108,39.6z"/>
		<path class="st6" d="M1204.6,220.5c2.1,3.6,4.2,7.2,6.4,10.8l6.4,10.7c2.2,3.6,4.3,7.2,6.5,10.7c2.2,3.6,4.4,7.1,6.6,10.7
			c2.2,3.6,4.4,7.1,6.7,10.6c1.1,1.8,2.2,3.6,3.4,5.3l3.5,5.3l3.5,5.3c0.6,0.9,1.2,1.8,1.8,2.6l1.8,2.6l1.8,2.6l0.9,1.3l0.9,1.3
			c1.3,1.7,2.5,3.4,3.7,5.1c-5.5-6.4-10.7-13.1-15.5-20c-4.8-6.9-9.5-13.9-13.9-21c-4.4-7.1-8.6-14.3-12.7-21.7
			C1212.1,235.4,1208.2,228,1204.6,220.5z"/>
		<path class="st16" d="M1240,494.7c-5.5,1.9-10.8,4-16.2,6.2c-5.3,2.3-10.6,4.6-15.8,6.9c-5.3,2.4-10.4,4.9-15.6,7.5
			c-5.2,2.6-10.2,5.2-15.3,7.9l-0.4-0.9c3.8-0.8,7.6-1.3,11.5-1.7c3.9-0.4,7.7-0.5,11.6-0.6c3.9,0,7.8,0.2,11.6,0.6l2.9,0.3l2.9,0.5
			l1.4,0.2l1.4,0.3l2.8,0.6l-2.9-0.6l-1.4-0.2l-1.4-0.2l-2.9-0.4l-2.9-0.2c-0.9-0.1-1.9-0.2-2.9-0.2c-0.9,0-1.9-0.2-2.9-0.2
			l-2.9-0.1c-0.9,0-1.9,0-2.9,0c-3.8,0.1-7.7,0.3-11.5,0.7s-7.6,1-11.3,1.8l-3.5,0.7l3-1.7c5.1-2.7,10.2-5.4,15.3-7.9
			c5.2-2.5,10.4-5,15.7-7.4c5.3-2.3,10.6-4.6,16-6.7c2.7-1.1,5.4-2,8.1-3C1234.5,496.4,1237.2,495.6,1240,494.7z"/>
		<path class="st16" d="M1086.5,492.6c2.8,0.9,5.6,1.7,8.3,2.7c2.7,1,5.4,1.9,8.1,3c5.4,2.1,10.8,4.4,16,6.7s10.5,4.8,15.7,7.4
			c5.2,2.5,10.2,5.2,15.3,7.9l3,1.7l-3.5-0.7c-3.7-0.8-7.5-1.4-11.3-1.8c-3.8-0.4-7.6-0.6-11.5-0.7c-0.9,0-1.9-0.1-2.9,0l-2.9,0.1
			c-0.9,0-1.9,0.1-2.9,0.2c-0.9,0.1-1.9,0.1-2.9,0.2l-2.9,0.2l-2.9,0.4l-1.4,0.2l-1.4,0.2l-2.9,0.6l2.8-0.6l1.4-0.3l1.4-0.2l2.9-0.5
			l2.9-0.3c3.8-0.5,7.7-0.6,11.6-0.6c3.9,0,7.8,0.2,11.6,0.6c3.9,0.4,7.7,0.9,11.5,1.7l-0.4,0.9c-5.1-2.7-10.2-5.3-15.3-7.9
			c-5.2-2.6-10.3-5.1-15.6-7.5c-5.3-2.4-10.5-4.8-15.8-7C1097.4,496.6,1092,494.5,1086.5,492.6z"/>
		<path class="st16" d="M1098.2,431c4.7,0.8,9.5,1.5,14.3,2c4.7,0.6,9.6,1.1,14.4,1.5c9.6,0.9,19.2,1.5,28.9,1.7
			c4.8,0.1,9.7,0.1,14.5,0c4.8-0.2,9.7-0.4,14.4-0.7c4.8-0.4,9.6-0.9,14.3-1.7c4.7-0.7,9.5-1.7,14.1-2.8c-4.7,1.3-9.3,2.3-14.1,3.1
			c-4.7,0.8-9.6,1.4-14.3,1.9c-4.8,0.4-9.7,0.6-14.5,0.8c-4.8,0.2-9.7,0.2-14.5,0.1c-9.7-0.2-19.3-0.8-28.9-1.8
			c-4.8-0.5-9.6-1.1-14.3-1.7C1107.7,432.7,1103,431.9,1098.2,431z"/>
		<path class="st13" d="M1191.7,60.2c0,0,14.1,30,11.8,46.1c0,0,10.2-13.3,23.2-11.9c0,0,8.7-26.6,3.6-44.7l-30.2,1.6L1191.7,60.2z"
			/>
		<g class="st17">
			<path class="st18" d="M1204.4,444.9c0.2,0.6,0.5,1.1,0.8,1.5l0.8,1.5l1.7,3.1l2.8,5l8,13.3c1.1,2,11.6,19.6,14.1,23.5
				c-3.1-3.6-6.9-7-9.3-11c-1.3-1.9-2.5-4-3.6-5.9c-1.2-2-2.3-4-3.5-6.1c-2.2-4-4.4-8.2-6.4-12.3c-1-2.1-1.9-4.2-2.9-6.3
				c-0.4-1.1-0.9-2.1-1.4-3.2C1205.2,447.1,1204.7,446.1,1204.4,444.9z"/>
		</g>
		<path class="st6" d="M1191.5,174.6c-2.5,1.8-4.8,3.5-7.3,5.3l-7.2,5.3l-6.6,4.9c-2.5-2.3-4.9-4.7-7.5-7.1c-2.6-2.5-5.3-5-8-7.5
			l-0.7-0.6l-0.6,0.7c-1.8,2.2-3.5,4.4-5.3,6.5c-1.6,2-3.2,4-4.8,6.1c-3.3-2.2-6.7-4.4-10.1-6.5l-5.3-3.4c-1.8-1.1-3.6-2.3-5.3-3.4
			c1.7,1.2,3.4,2.5,5.1,3.7l5.1,3.7c3.4,2.4,6.9,4.8,10.3,7.3l0.5,0.4l0.4-0.5c1.8-2.1,3.6-4.3,5.4-6.5c1.6-1.9,3.1-3.8,4.7-5.7
			c2.5,2.3,4.8,4.6,7.3,6.9c2.7,2.5,5.3,5,8,7.5l0.5,0.5l0.6-0.4l7-5.5l7-5.6c2.3-1.9,4.7-3.7,6.9-5.6c2.3-1.9,4.6-3.7,6.9-5.7
			C1196.3,171.2,1193.8,172.9,1191.5,174.6z"/>
		<path class="st6" d="M1153.8,175.7c-0.8,10.1-1.7,20.2-2.4,30.3c-0.8,10.1-1.4,20.2-1.9,30.3c-0.3,5.1-0.5,10.1-0.8,15.2l-0.3,7.6
			l-0.3,7.6c-0.4,10.1-0.6,20.2-0.8,30.3c-0.4,20.2-0.3,40.5,0.2,60.7c0.4,10.1,0.7,20.2,1.5,30.3l0.5,7.6c0.1,1.3,0.2,2.5,0.3,3.8
			l0.3,3.8c0.5,5,0.9,10.1,1.4,15.1c-1.3-10-2.6-20.1-3.4-30.2c-0.9-10.1-1.4-20.2-1.9-30.3c-0.2-5.1-0.3-10.1-0.5-15.2
			c-0.1-2.5-0.8-7.6-0.8-7.6l0.8-7.6l-0.8-7.6l0.8-3.8v-3.8v-15.2c0,0,0.4-20.3,0.9-30.4l0.3-7.6l0.4-7.6c0.3-5.1,0.5-10.1,0.9-15.2
			c0.7-10.1,1.4-20.2,2.4-30.3l0.7-7.6l0.8-7.6C1152.5,185.7,1153.1,180.7,1153.8,175.7z"/>
		<path class="st19" d="M1164.6,244.5h37.3l-1.4,26.3c-0.3,5.1-3.1,9.8-7.7,12.6l-1.6,1c-6.1,3.7-14.1,3.5-19.8-0.6l0,0
			c-4.2-3-6.8-7.7-6.8-12.7V244.5z"/>
		<path class="st20" d="M1259.3,916.2l-0.7,21.1l-27.6,18.6c0,0-13-16.3-12.8-18.6c0.3-2.3,0-38.7,0-38.7s31.6,11.1,32.9,11.1
			S1259.3,916.2,1259.3,916.2z"/>
		<polygon class="st20" points="1124.1,937.3 1124.1,911.2 1092.1,902.9 1085,905.8 1083.7,937.3 1093.8,964.6 		"/>
		<path class="st21" d="M1169.7,537.1l40.5,382.6c15.9-0.6,32.4-1.8,49.1-3.6c1.9-73.4,7.3-292.7,6.4-380.8
			c-1-106.5-35.3-122.1-35.3-122.1l-58.4-14.2l-79.7,13.2C1117.1,502.1,1169.7,537.1,1169.7,537.1z"/>
		<path class="st21" d="M1078,915.3c12,1.3,28.6,2.8,48.4,3.9l42.4-442.2l4.5-70.4c0,0-65.2-29.2-86.7,5.5
			c-21.6,34.7-20.9,86.3-20.9,86.3S1068.4,824.1,1078,915.3z"/>
		<path class="st21" d="M1124.1,937.6v28.8c0,2.4-2.1,4.3-4.7,4.3h-72.8c-5.3,0-7.3-6.4-2.8-9l39.9-24.2
			C1083.7,937.6,1100.8,948.4,1124.1,937.6z"/>
		<path class="st21" d="M1258.8,937.6v28.8c0,2.4-2.1,4.3-4.7,4.3h-72.8c-5.3,0-7.3-6.4-2.8-9l39.9-24.2
			C1218.4,937.6,1235.3,948.4,1258.8,937.6z"/>
		<path class="st20" d="M1058.3,268.1l-17.8,53.3c0,0-77.7-68-77.3-87.2l1.4-5.8c1.8-7.3-0.1-12-3.1-12.3l-0.6,0.1
			c0,0-5.2,10.3-9.4,18.7l-4.7-4l-23.6,27.5l27,12.2l0,0l0,0c0,0,82.9,122.2,101.7,114.2c18.8-8.1,47.4-75.3,47.4-75.3L1058.3,268.1
			z"/>
		<path class="st8" d="M1091.9,187.4c0,0-11.8,3.2-28.7,27.5c-17,24.3-32.1,91.5-32.1,91.5l54.2,34.3l35.3-81.2L1091.9,187.4z"/>
		<path class="st8" d="M1033.2,299.8l53.6,33.1c1.9,1.1,2.5,3.3,1.6,5.1l-7.7,15.9c-1.2,2.4-4.5,3.2-6.9,1.8l-54.3-33.4
			c-1.9-1.2-2.5-3.4-1.5-5.3l8.5-15.6C1027.7,299.2,1030.9,298.5,1033.2,299.8z"/>
		<path class="st20" d="M1355.3,308.9c0,0,25.7,34,22.9,41.4c-3,7.3-130.9,104-130.9,104s-3.4,26-18.1,32.8l-18.6-31l105.9-109.4
			l-8.3-10.9L1355.3,308.9z"/>
		
			<linearGradient id="SVGID_2_" gradientUnits="userSpaceOnUse" x1="915.2592" y1="744.4075" x2="962.2675" y2="744.4075" gradientTransform="matrix(1 0 0 -1 0 980.1102)">
			<stop  offset="0" style="stop-color:#C0D8F2"/>
			<stop  offset="0.5" style="stop-color:#B7D4F0"/>
			<stop  offset="1" style="stop-color:#5FACE0"/>
		</linearGradient>
		<polygon class="st22" points="944.8,207.7 932.7,207.7 915.3,207.7 925.4,263.7 932.7,263.7 944.8,263.7 952.1,263.7 962.3,207.7 
					"/>
		<path class="st1" d="M964.5,213h-50.7c-1,0-1.9-0.8-1.9-1.8v-2.6c0-1,0.8-1.8,1.9-1.8h50.7c1,0,1.9,0.8,1.9,1.8v2.6
			C966.4,212.2,965.6,213,964.5,213z"/>
		<path class="st23" d="M923.6,222.7c-1.9,0-3.8,0.2-5.5,0.8l6.1,33.6c9.9-0.2,18-7.8,18-17.2C942.1,230.5,933.8,222.7,923.6,222.7z
			"/>
		<polygon class="st20" points="1181.8,149.7 1187.2,190.5 1143.8,189.1 1145,142.5 		"/>
		<path class="st1" d="M1234.2,181c-10.8-5.9-22.9-9.6-35.4-11.6c-7.6,6-31,5.7-43.7,6.1c-19.3,0.6-21.8,1.5-29.3-1.6
			c-17.4,6.1-47.9,16.5-48.3,26.4c-8.6,214.2,9.1,212.1,9.1,212.1c24.1,9.9,126.7,4.4,143.1,0c16.3-4.4,28.7-107.2,28.7-107.2
			L1308,349c17.2-15.2,51.2-35.5,51.2-35.5S1285.2,209,1234.2,181z"/>
		<path class="st24" d="M1289.9,331l52-37.6c2.5-1.8,6-1.3,7.9,1l12.1,15.2c1.8,2.3,1.4,5.4-1.1,7.1l-51.2,36.2
			c-2.3,1.6-5.6,1.4-7.5-0.7l-13-13.7C1287,336.2,1287.3,332.8,1289.9,331z"/>
		<path class="st25" d="M1144.5,164l0.6-21.5l37.4,11.1l1,8.1C1175.1,164.5,1159.4,168,1144.5,164z"/>
		<polygon class="st26" points="1110,73.3 1111,101.6 1116.2,103.9 1120.6,68.8 		"/>
		<path class="st27" d="M1119.6,97.7c2.1,6.2-0.5,12.5-5.8,14.1c-5.3,1.6-11.3-2.2-13.5-8.3c-2.1-6.2,0.5-12.5,5.8-14.1
			C1111.5,87.8,1117.5,91.5,1119.6,97.7z"/>
		<path class="st20" d="M1118.5,132.9c-1.4-2.7-2.5-5.6-3.4-8.5c-2.5-7.9-3.3-16.2-3.4-23.4c0-1.5-0.2-3.1-0.3-4.6
			c-0.6-6.2-0.1-12.7,2-19.3c6.9-21.2,28.2-35.9,51.9-35.8c32,0.2,56.3,25.4,53.9,54.2c3.6-1.5,7.4-1.6,10.6,0
			c6.2,3.2,7.8,11.5,3.6,18.7c-4.2,7.2-12.6,10.4-18.8,7.4c-0.8-0.4-1.6-1-2.3-1.6c-4.8,24.3-28,41.7-54,39.4
			c-12.7-1.1-23.8-6.8-31.8-15.1c-0.5-0.5-1.1-1.1-1.7-1.7C1122.3,139.6,1120.1,136.3,1118.5,132.9z"/>
		<path class="st15" d="M1170.4,96.3c-0.3,2.4,1.7,4.5,4.2,4.8c2.6,0.2,4.9-1.5,5.2-4c0.3-2.4-1.7-4.5-4.2-4.8
			C1173,92.1,1170.6,93.9,1170.4,96.3z"/>
		<path class="st15" d="M1129.8,95.2c-0.3,2.4,1.7,4.5,4.2,4.8c2.6,0.2,4.9-1.5,5.2-4c0.3-2.4-1.7-4.5-4.2-4.8
			C1132.3,91,1130.1,92.8,1129.8,95.2z"/>
		<path class="st26" d="M1165.6,87.1c2.4-0.6,4.7-1.2,6.9-1.5c2.3-0.3,4.5-0.3,6.6,0c2.1,0.3,4.2,0.8,6.3,1.8l0.8,0.3
			c0.3,0.1,0.5,0.2,0.8,0.4l1.5,0.8c1,0.6,2,1.2,3.1,1.7c-0.6-1.1-1.3-2-2-2.9c-0.8-0.8-1.7-1.8-2.8-2.4c-2-1.5-4.6-2.4-7.2-2.7
			c-2.6-0.3-5.3-0.1-7.7,0.7C1169.5,84.1,1167.2,85.4,1165.6,87.1z"/>
		<path class="st26" d="M1146.6,86.4c-1.4-1.9-3.6-3.4-5.8-4.4c-2.4-1-5-1.5-7.6-1.4c-2.6,0.2-5.3,0.8-7.5,2.2c-1.2,0.6-2,1.5-3,2.2
			c-0.8,0.8-1.6,1.8-2.4,2.7c1.2-0.4,2.2-1.1,3.3-1.5l1.6-0.6c0.3-0.1,0.5-0.2,0.8-0.3l0.8-0.2c2.1-0.8,4.3-1.1,6.4-1.2
			c2.2-0.1,4.4,0.1,6.6,0.6C1142.1,84.8,1144.3,85.5,1146.6,86.4z"/>
		<path class="st26" d="M1108,39.6c0,0-16.2-1.1,2.2-12.1s65.5-21.5,93-4.4c0,0,7.1-10.9,15.2-7.4c8.1,3.6-6.7,10.1-6.7,10.1
			s10.8,0.7,13.6,5.9c2,3.9-4.6,3.4-8.1,2.8c6,1.5,24.7,14.5,8,57.3c-4.1-1.3-33.4-31.7-33.4-31.7s-48.4,20.9-40.8,7.2
			c0,0-56.9,20.2-45.9-6.1C1105,61.4,1083,60.7,1108,39.6z"/>
		<path class="st26" d="M1227.3,92.4c12.5-5,2-15.8,2-15.8c14.7-10.1,6.4-22.6,1.7-23.5c9.1-17.3-7.3-26.7-13.9-22.9
			c7.7-14.3-10-19.2-14.8-12.6c-8.2-16.1-22.9-9.9-25.5-3.9c-6.4-11.5-22.1-6.9-22.9,0.4c-7.4-10.4-23.1-3-22.4,4.8
			c-10.2-7.6-29.4,0.1-17,9.2c12.5,9,75.8,25,75.8,25s-0.8,19.2,5.8,24.2c6.6,4.9,8.5,3.5,8.5,3.5c-7.9,15.5-5.7,19.5-1.9,20.9
			C1215.1,90.4,1227.3,92.4,1227.3,92.4z"/>
		<path class="st6" d="M1137.4,129c1.6,5.4,8.5,9.4,16.7,9.3s15-4.3,16.3-9.7L1137.4,129z"/>
		<path class="st8" d="M1204.6,220.5c2.1,3.6,4.2,7.2,6.4,10.8l6.4,10.7c2.2,3.6,4.3,7.2,6.5,10.7c2.2,3.6,4.4,7.1,6.6,10.7
			c2.2,3.6,4.4,7.1,6.7,10.6c1.1,1.8,2.2,3.6,3.4,5.3l3.5,5.3l3.5,5.3c0.6,0.9,1.2,1.8,1.8,2.6l1.8,2.6l1.8,2.6l0.9,1.3l0.9,1.3
			c1.3,1.7,2.5,3.4,3.7,5.1c-5.5-6.4-10.7-13.1-15.5-20c-4.8-6.9-9.5-13.9-13.9-21c-4.4-7.1-8.6-14.3-12.7-21.7
			C1212.1,235.4,1208.2,228,1204.6,220.5z"/>
		<path class="st28" d="M1240,494.7c-5.5,1.9-10.8,4-16.2,6.2c-5.3,2.3-10.6,4.6-15.8,6.9c-5.3,2.4-10.4,4.9-15.6,7.5
			c-5.2,2.6-10.2,5.2-15.3,7.9l-0.4-0.9c3.8-0.8,7.6-1.3,11.5-1.7c3.9-0.4,7.7-0.5,11.6-0.6c3.9,0,7.8,0.2,11.6,0.6l2.9,0.3l2.9,0.5
			l1.4,0.2l1.4,0.3l2.8,0.6l-2.9-0.6l-1.4-0.2l-1.4-0.2l-2.9-0.4l-2.9-0.2c-0.9-0.1-1.9-0.2-2.9-0.2c-0.9,0-1.9-0.2-2.9-0.2
			l-2.9-0.1c-0.9,0-1.9,0-2.9,0c-3.8,0.1-7.7,0.3-11.5,0.7s-7.6,1-11.3,1.8l-3.5,0.7l3-1.7c5.1-2.7,10.2-5.4,15.3-7.9
			c5.2-2.5,10.4-5,15.7-7.4c5.3-2.3,10.6-4.6,16-6.7c2.7-1.1,5.4-2,8.1-3C1234.5,496.4,1237.2,495.6,1240,494.7z"/>
		<path class="st26" d="M1191.7,60.2c0,0,14.1,30,11.8,46.1c0,0,10.2-13.3,23.2-11.9c0,0,8.7-26.6,3.6-44.7l-30.2,1.6L1191.7,60.2z"
			/>
		<path class="st20" d="M924.9,260h-0.4c-3,0.2-5.6-1.8-6.1-4.5l-5.6-30.9c-0.3-1.5,0.3-3.1,1.7-4c4.2-2.8,13-8.4,14.8-7.5
			c2.5,1.3-10.5,11.2-9.6,11.9c1,0.6,15.6-4,15.9-2.3c0.3,1.5-13.5,7.9-13.3,8.9c0.2,0.9,14-1.3,14.8,0.2c0.7,1.4-13.2,5.7-13.3,6.2
			L924.9,260z"/>
		<path class="st20" d="M961.9,216.2c0,0-12.9-2-13.7,0c-0.8,2,10.4,0.9,12.5,6.7C962.8,228.7,961.9,216.2,961.9,216.2z"/>
		<path class="st20" d="M920.6,238c0,0,14,1.2,14.9,3.2c0.9,1.9-13.9,2.1-13.9,2.1L920.6,238z"/>
		<path class="st29" d="M1204.4,444.9c0.2,0.6,0.5,1.1,0.8,1.5l0.8,1.5l1.7,3.1l2.8,5l8,13.3c1.1,2,11.6,19.6,14.1,23.5
			c-3.1-3.6-6.9-7-9.3-11c-1.3-1.9-2.5-4-3.6-5.9c-1.2-2-2.3-4-3.5-6.1c-2.2-4-4.4-8.2-6.4-12.3c-1-2.1-1.9-4.2-2.9-6.3
			c-0.4-1.1-0.9-2.1-1.4-3.2C1205.2,447.1,1204.7,446.1,1204.4,444.9z"/>
		<polygon class="st8" points="1122.9,175 1144.4,166.5 1154.4,175 1183.4,163.2 1198.7,169.5 1170.5,190.1 1154.5,176.6 
			1143.8,189.1 		"/>
		<path class="st8" d="M1191.5,174.6c-2.5,1.8-4.8,3.5-7.3,5.3l-7.2,5.3l-6.6,4.9c-2.5-2.3-4.9-4.7-7.5-7.1c-2.6-2.5-5.3-5-8-7.5
			l-0.7-0.6l-0.6,0.7c-1.8,2.2-3.5,4.4-5.3,6.5c-1.6,2-3.2,4-4.8,6.1c-3.3-2.2-6.7-4.4-10.1-6.5l-5.3-3.4c-1.8-1.1-3.6-2.3-5.3-3.4
			c1.7,1.2,3.4,2.5,5.1,3.7l5.1,3.7c3.4,2.4,6.9,4.8,10.3,7.3l0.5,0.4l0.4-0.5c1.8-2.1,3.6-4.3,5.4-6.5c1.6-1.9,3.1-3.8,4.7-5.7
			c2.5,2.3,4.8,4.6,7.3,6.9c2.7,2.5,5.3,5,8,7.5l0.5,0.5l0.6-0.4l7-5.5l7-5.6c2.3-1.9,4.7-3.7,6.9-5.6c2.3-1.9,4.6-3.7,6.9-5.7
			C1196.3,171.2,1193.8,172.9,1191.5,174.6z"/>
		<path class="st8" d="M1153.8,175.7c-0.8,10.1-1.7,20.2-2.4,30.3c-0.8,10.1-1.4,20.2-1.9,30.3c-0.3,5.1-0.5,10.1-0.8,15.2l-0.3,7.6
			l-0.3,7.6c-0.4,10.1-0.6,20.2-0.8,30.3c-0.4,20.2-0.3,40.5,0.2,60.7c0.4,10.1,0.7,20.2,1.5,30.3l0.5,7.6c0.1,1.3,0.2,2.5,0.3,3.8
			l0.3,3.8c0.5,5,0.9,10.1,1.4,15.1c-1.3-10-2.6-20.1-3.4-30.2c-0.9-10.1-1.4-20.2-1.9-30.3c-0.2-5.1-0.3-10.1-0.5-15.2
			c-0.1-2.5-0.8-7.6-0.8-7.6l0.8-7.6l-0.8-7.6l0.8-3.8v-3.8v-15.2c0,0,0.4-20.3,0.9-30.4l0.3-7.6l0.4-7.6c0.3-5.1,0.5-10.1,0.9-15.2
			c0.7-10.1,1.4-20.2,2.4-30.3l0.7-7.6l0.8-7.6C1152.5,185.7,1153.1,180.7,1153.8,175.7z"/>
		<path class="st8" d="M1164.6,244.5h37.3l-1.4,26.3c-0.3,5.1-3.1,9.8-7.7,12.6l-1.6,1c-6.1,3.7-14.1,3.5-19.8-0.6l0,0
			c-4.2-3-6.8-7.7-6.8-12.7V244.5z"/>
	</g>
	<path class="st27" d="M1156.1,93.5c-1.5,2.3-2.8,4.7-4,7.1c-1.2,2.4-2.2,4.9-3,7.5c-0.3,1.3-0.7,2.7-0.8,4c0,0.3,0,0.7,0,1.1
		c0,0.2,0.1,0.4,0.1,0.6c0.1,0.2,0.2,0.4,0.3,0.6c0.1,0.1,0.2,0.2,0.3,0.3l0.3,0.2c0.2,0.1,0.3,0.2,0.4,0.3c0.3,0.2,0.6,0.4,0.9,0.6
		c1.3,0.7,2.6,1.2,4,1.7c1.4,0.4,2.8,0.8,4.2,1.1c-2.6-1.1-5.2-2.3-7.5-3.8c-0.3-0.2-0.5-0.4-0.8-0.6l-0.3-0.3l-0.2-0.2
		c0,0,0-0.1-0.1-0.1c-0.2-0.2-0.2-1-0.1-1.5c0.2-1.2,0.4-2.5,0.8-3.7c0.8-2.5,1.7-5,2.6-7.5C1154.4,98.6,1155.3,96.1,1156.1,93.5z"
		/>
	<g>
		<path class="st26" d="M359.2,81.2c46.9,33,16.3,100.7,48.1,126.5c-51.1,29.7-139.1,6.1-182.4,7.1c-13.8-61,17-116.5,48-133.6
			C326.1,76.5,359.2,81.2,359.2,81.2z"/>
		<path class="st23" d="M514.3,289.3c1.8,0,3.6,0.2,5.2,0.7l-5.7,31.2c-9.2-0.2-16.7-7.3-16.7-16
			C497.1,296.5,504.8,289.3,514.3,289.3z"/>
		<path class="st10" d="M517.1,307.7c0,0-13,1.1-13.8,2.9c-0.8,1.8,12.9,1.9,12.9,1.9L517.1,307.7z"/>
		<path class="st20" d="M438.3,957.5L395,932.7l-26.4,21.6l11.3,7.4l39.2,5.1c0,0,15.3-1.9,16-2.3
			C435.8,964.2,438.3,957.5,438.3,957.5z"/>
		<path class="st21" d="M437.8,957l9.5,5.7c4.4,2.6,2.5,8.9-2.7,9l-71.8,0.4c-2.5,0-4.6-1.9-4.6-4.2l-0.1-14
			C416,967.6,432.4,963.2,437.8,957z"/>
		<path class="st26" d="M256.5,143.7c0,0-11.9-45.5,16.5-62.5c28.4-17,58.5-15.2,79-4.9c20.5,10.2,32.8,45.8,23.5,66.2l-68-19.5
			L256.5,143.7z"/>
		<path class="st20" d="M471.8,318.6c4.1-5.7,6.4-10.7,6.4-14l-1.4-5.5c-1.7-6.9,0-11.4,3-11.6l0.6,0.1c0,0,4.9,9.8,8.9,17.8
			l4.4-3.7l22.4,26.1l-25.5,11.6L471.8,318.6z"/>
		<polygon class="st20" points="368.6,954.3 359.6,907 397,903.3 399.3,905.8 405.6,938.6 387.9,955.1 		"/>
		<path class="st20" d="M174.8,956.2l-16.9-44.7l-35.2,1.2l3.7,12.4l27,27c0,0,13.1,7.5,13.9,7.6
			C168.3,959.9,174.8,956.2,174.8,956.2z"/>
		<path class="st21" d="M174.8,956.2l3.6,9.9c1.7,4.6-4.2,8.3-8.1,5.3l-56-41.8c-1.9-1.5-2.3-4.2-0.7-6l9.4-10.9
			C150.6,951.7,166.4,958,174.8,956.2z"/>
		<polygon class="st20" points="122.8,912.9 147.9,870.9 179.5,890 179.6,893.2 162.3,922.3 137.3,924.8 		"/>
		<path class="st20" d="M307.5,472.8L319,668.6c0,0,30.1,207.9,48.7,280.5l37.9-11l-24.1-505.2h-71.1L307.5,472.8z"/>
		<path class="st20" d="M384.3,489.4l-2.7-56l-56.7-1.4l-1.3,5.3l-64.9-7.4c0,0-53.3,63.9-40.7,165.7
			c12.6,101.8,9.8,138.3,9.8,138.3s-63.5,69.7-97.4,166.3c0,0,15.5,12.2,35.8,15.5c0,0,123.3-159,131-176
			c4.6-10.2,20-115.4,31.5-198.6C328.7,541.2,379.3,506.8,384.3,489.4z"/>
		<path class="st7" d="M329.7,225.6c0,0,40.9,2.4,57.2,22.5c20.5,25.1,33.2,108.7,33.2,108.7l53-41.4l22.9,22.5
			c0,0-68.4,88.5-80.5,81.9c-12.3-6.6-46.9-34.3-46.9-34.3s-14.2-79.6-14.2-82.1C354.3,301,329.7,225.6,329.7,225.6z"/>
		<path class="st21" d="M384.1,427.3c7,36,19.2,243.5,16.2,287.8c-71.8,16.6-177.1,1.6-177.1,1.6c-20.9-171.8-20.9-181.4-1.7-230.4
			s33.9-66.2,33.9-66.2C337.2,413.8,384.1,427.3,384.1,427.3z"/>
		<path class="st7" d="M394,307.8c-3.5-30.1-19.7-57.4-44.6-76.3c-3-2.3-6.6-4-10.4-4.8c-10.3-2.3-23.8-2.7-30.4-2.8h-21.7
			c0,0-34.8,1.8-50.3,6.3c-15.5,4.5-106.5,64.1-120.8,90.9c-13.4,25.2,103,105.4,103,105.4c2.8-0.1,21.8-27.2,19.7-29
			c-2-1.7-72.2-61.6-67.3-66.3c15-14.5,53.7-28.2,53.7-28.2s8.7,112.5,31,132.3c0,0,87.8,5.6,120.5,2c5.9-0.6,10.7-4.8,11.6-10.3
			C391.6,406.9,399.3,354,394,307.8z"/>
		<path class="st20" d="M365.9,246.5c-4.8-5.4-10.2-10.4-16.2-14.9c-3.1-2.4-6.8-4.1-10.7-5c-10.3-2.3-23.8-2.7-30.4-2.8h-21.7
			c0,0-5.9,0.3-14,1C290.5,237.2,323.3,254,365.9,246.5z"/>
		<path class="st20" d="M294.3,228.5l45.7,0.9c-0.9-9.5-1.7-21.9,0-26.4c2.9-7.6-48-8.7-48-8.7S294.6,213.7,294.3,228.5z"/>
		<path class="st27" d="M291.9,194.3c0,0,1.1,7.9,1.8,17.5c9.2,6.9,21.3,10.5,33.7,9c4.1-0.5,8-1.5,11.6-3c-0.3-6.2-0.2-12,0.8-14.8
			C342.8,195.4,291.9,194.3,291.9,194.3z"/>
		<path class="st20" d="M366.1,185.9c1.5-2.7,2.8-5.5,3.8-8.4c2.8-7.8,4.1-16.2,4.6-23.4c0.1-1.5,0.3-3.1,0.5-4.6
			c0.9-6.2,0.7-12.8-1.1-19.4c-5.8-21.5-26.5-37.2-50.3-38.1c-32-1.2-57.6,23.1-56.6,52.2c-3.5-1.6-7.3-1.9-10.6-0.4
			c-6.4,2.9-8.3,11.2-4.5,18.6c3.9,7.4,12.1,11,18.5,8.2c0.8-0.4,1.7-0.9,2.4-1.5c3.6,24.6,26.1,43,52.2,41.8
			c12.8-0.6,24.1-5.8,32.5-13.8c0.6-0.5,1.2-1.1,1.8-1.7C362.1,192.3,364.3,189.2,366.1,185.9z"/>
		<path class="st15" d="M317.3,151.1c0.2,2.6-2,4.8-4.8,5s-5.2-1.9-5.3-4.5c-0.2-2.6,2-4.8,4.8-5
			C314.8,146.4,317.3,148.5,317.3,151.1z"/>
		<path class="st15" d="M359.2,151.1c0.2,2.6-2,4.8-4.8,5c-2.8,0.2-5.2-1.9-5.3-4.5c-0.2-2.6,2-4.8,4.8-5
			C356.6,146.4,359.1,148.5,359.2,151.1z"/>
		<g>
			<path class="st26" d="M321.7,143.2c-2.3-1.1-4.7-2-7.2-2.6c-2.5-0.6-5-0.7-7.5-0.6c-1.3,0.1-2.5,0.3-3.6,0.6
				c-0.6,0.2-1.2,0.3-1.8,0.6c-0.3,0.1-0.6,0.2-0.8,0.3c-0.3,0.1-0.6,0.2-0.8,0.3c-2.3,1.1-4.4,2.3-6.5,3.8c1.5-1.9,3.6-3.6,5.8-5
				c1.2-0.6,2.4-1.2,3.6-1.6c1.3-0.4,2.6-0.6,4-0.8c2.7-0.2,5.5,0.1,8,1c1.3,0.4,2.5,1,3.6,1.6C319.6,141.6,320.7,142.3,321.7,143.2
				z"/>
		</g>
		<g>
			<path class="st26" d="M342.2,143.2c0.9-0.9,2-1.6,3.1-2.3c1.2-0.6,2.4-1.2,3.6-1.6c2.5-0.9,5.3-1.2,8-1c1.4,0.1,2.7,0.4,4,0.8
				c1.3,0.4,2.5,1,3.6,1.6c2.3,1.3,4.3,3,5.8,5c-2.1-1.5-4.2-2.8-6.5-3.8c-0.3-0.2-0.6-0.2-0.8-0.3c-0.3-0.1-0.6-0.2-0.8-0.3
				c-0.6-0.2-1.2-0.4-1.8-0.6c-1.2-0.3-2.4-0.6-3.6-0.6c-2.5-0.2-5,0-7.5,0.6C346.9,141.2,344.5,142.1,342.2,143.2z"/>
		</g>
		<path class="st30" d="M225.7,302.6c1.3-1.2,2.4-2.5,3.5-3.9c1.1-1.4,2-2.8,3-4.3c0.9-1.5,1.7-3,2.4-4.6c0.8-1.5,1.3-3.2,1.9-4.8
			c-0.3,1.7-0.6,3.4-1.2,5.1c-0.3,0.8-0.6,1.6-0.9,2.5c-0.3,0.8-0.8,1.6-1.2,2.4c-0.8,1.5-1.8,3.1-2.9,4.5c-0.8,1.1-1.8,2.3-2.8,3.3
			c0.9,0.2,1.9,0.3,2.9,0.3c1.4,0.1,2.7,0,4-0.2c0.7-0.1,1.4-0.2,2-0.3c0.7-0.2,1.3-0.3,1.9-0.6c1.3-0.4,2.5-1.1,3.7-1.6
			c-1.1,0.8-2.2,1.6-3.5,2.1c-1.3,0.6-2.6,1-4,1.3c-1.4,0.2-2.8,0.4-4.2,0.4c-1.4,0-2.8-0.2-4.2-0.5l-1-0.2L225.7,302.6z"/>
		<path class="st26" d="M267.1,144.2c0,0,36.9-13.9,56.6-35c0,0-0.4,11.6-4.6,15.6c1.3,0.8,26.8-8.6,32.7-26.8
			c5.9-18.2-29.1-11.1-29.1-11.1s-19.8-3.1-20.8-2.7c-0.8,0.4-15.1,8.3-15.7,9c-0.7,0.6-19.2,25.2-19.2,25.2l-4.7,9.1l-1.1,12.6
			L267.1,144.2z"/>
		<path class="st31" d="M322.6,178.7c0,0,6-2,11.6,1.5c0,0,6.1-3.6,10.8-0.2c0,0-2.2,8.4-12.2,7.8
			C322.8,187.2,322.6,178.7,322.6,178.7z"/>
		<path class="st27" d="M317.3,175.7c1.1,0.9,2.3,1.6,3.6,2.3c1.2,0.7,2.5,1.4,3.8,1.9c2.6,1.1,5.3,1.9,8.2,2
			c2.8,0.2,5.7-0.1,8.4-0.9c2.7-0.8,5.3-2.1,7.7-3.6c-1.1,0.9-2.2,1.8-3.5,2.5c-1.3,0.7-2.5,1.3-4,1.9c-1.4,0.5-2.8,0.8-4.3,1.1
			c-1.4,0.2-3,0.2-4.5,0.1c-3-0.2-5.8-1.1-8.5-2.3C321.7,179.3,319.4,177.7,317.3,175.7z"/>
		<path class="st27" d="M336.2,148.9c1.4,2.2,2.6,4.4,3.7,6.7c1.1,2.3,2.1,4.7,2.9,7.1c0.3,1.2,0.7,2.5,0.8,3.9c0,0.3,0,0.7,0,1.1
			c0,0.2-0.1,0.4-0.1,0.6c-0.1,0.2-0.2,0.4-0.3,0.6c-0.1,0.1-0.2,0.2-0.3,0.3l-0.3,0.2c-0.2,0.1-0.3,0.2-0.4,0.3
			c-0.3,0.2-0.6,0.4-0.9,0.6c-1.2,0.7-2.5,1.2-3.8,1.6c-1.3,0.4-2.6,0.7-4,1c2.5-1.1,4.9-2.2,7-3.6c0.3-0.2,0.5-0.4,0.8-0.6l0.3-0.3
			l0.2-0.2c0,0,0-0.1,0.1-0.1c0.2-0.2,0.2-0.9,0.1-1.5c-0.1-1.1-0.4-2.3-0.8-3.6c-0.7-2.3-1.6-4.8-2.5-7.1
			C337.9,153.7,337,151.3,336.2,148.9z"/>
		
			<linearGradient id="SVGID_3_" gradientUnits="userSpaceOnUse" x1="478.611" y1="678.3231" x2="521.7231" y2="678.3231" gradientTransform="matrix(1 0 0 -1 0 980.1102)">
			<stop  offset="0" style="stop-color:#C0D8F2"/>
			<stop  offset="0.5" style="stop-color:#B7D4F0"/>
			<stop  offset="1" style="stop-color:#5FACE0"/>
		</linearGradient>
		<polygon class="st32" points="494.6,276 505.7,276 521.7,276 512.4,327.6 505.7,327.6 494.6,327.6 487.9,327.6 478.6,276 		"/>
		<path class="st20" d="M479.9,287.4c0,0,11.9-1.9,12.8,0c0.8,1.9-9.7,0.9-11.6,6.2C479,299,479.9,287.4,479.9,287.4z"/>
		<path class="st23" d="M513.5,294.7c1.6,0,3.1,0.2,4.6,0.6l-5,27.5c-8.1-0.2-14.7-6.5-14.7-14.1C498.3,301,505.2,294.7,513.5,294.7
			z"/>
		<path class="st20" d="M513,328h0.4c2.7,0.2,5.2-1.6,5.7-4.2l5.3-28.8c0.3-1.4-0.3-2.8-1.5-3.6c-3.9-2.6-12-7.8-13.8-6.9
			c-2.3,1.2,9.8,10.4,8.9,11c-0.9,0.6-14.5-3.7-14.8-2.1c-0.3,1.5,12.5,7.4,12.4,8.2c-0.2,0.9-13-1.2-13.7,0.2
			c-0.7,1.3,12.3,5.3,12.4,5.8L513,328z"/>
		<path class="st8" d="M476.5,280.6h46.8c1,0,1.8-0.7,1.8-1.7V277c0-1-0.8-1.7-1.8-1.7h-46.8c-1,0-1.8,0.7-1.8,1.7v2
			C474.7,279.9,475.5,280.6,476.5,280.6z"/>
		<path class="st20" d="M260.6,412.4c-1,0.2-1.3,1.4-0.5,2c5.8,4.9,24.2,20.5,23.2,22.1c-1.2,2-18-11.6-19.9-10.5
			c-1.9,1.1,14.7,13.9,13.1,15.8c-1.6,1.9-16.4-10.3-17.4-9.6c-1,0.6,11.9,13.7,11.6,15.3c-0.3,1.7-15.8-10.7-17.2-10.3
			c-1.4,0.4,6.3,12.3,5.3,13c-1,0.7-1.5,1.4-27.1-20.8l-9.7-9.1l-3.6-11.4l12.1-8.8c0,0,44.6,4.4,45.5,5.9
			C276.7,407.5,275.8,408.7,260.6,412.4z"/>
		<path class="st7" d="M219.4,381.2c10.3,9.1,18.4,16,19.1,16.6c2,1.7-16.9,28.9-19.7,29c0,0-10.1-6.9-24-17.5L219.4,381.2z"/>
	</g>
</g>
</svg>
