<?xml version="1.0" encoding="utf-8"?>
<!-- Generator: Adobe Illustrator 24.0.2, SVG Export Plug-In . SVG Version: 6.00 Build 0)  -->
<svg version="1.1" id="Capa_1" xmlns="http://www.w3.org/2000/svg" xmlns:xlink="http://www.w3.org/1999/xlink" x="0px" y="0px"
	 viewBox="0 0 792 612" style="enable-background:new 0 0 792 612;" xml:space="preserve">
<style type="text/css">
	.st0{fill:#C2E6F9;}
	.st1{opacity:0.47;fill:#A8DBEF;enable-background:new    ;}
</style>
<path class="st0" d="M-1,472.8c6.9,13.9,41.9,31,76,24.5c53.1-10.1,100.1-52.9,176.3-38.4c109.2,20.7,82.7,106,129,141.3
	c58.2,44.5,77,78.8,75.5,112.3c-57.3-7.8-480.6-65.7-480.6-65.7l23.8-174L-1,472.8z"/>
<path class="st0" d="M597.9,614c2.9-72.2,128.4-156,194.1-159.3c0,38,0,159.3,0,159.3H597.9z"/>
<path class="st1" d="M840.3,188.1c-9.3-17.1-49.6-33.3-85.2-18.7c-55.5,22.7-99.6,87.6-183.6,82.2C451.4,244,467.2,127.2,412.4,89
	C343.3,40.9,318.3-0.9,315-45.1c62.6,0,525.3,0,525.3,0V188.1z"/>
</svg>
