<?xml version="1.0" encoding="utf-8"?>
<!-- Generator: Adobe Illustrator 24.0.2, SVG Export Plug-In . SVG Version: 6.00 Build 0)  -->
<svg version="1.1" id="bf2b12fd-98ef-4df9-abe4-52340225686d"
	 xmlns="http://www.w3.org/2000/svg" xmlns:xlink="http://www.w3.org/1999/xlink" x="0px" y="0px" viewBox="0 0 720 630.2"
	 style="enable-background:new 0 0 720 630.2;" xml:space="preserve">
<style type="text/css">
	.st0{opacity:0.1;}
	.st1{fill:#3F3D56;}
	.st2{fill:#9ED16F;}
	.st3{opacity:0.1;enable-background:new    ;}
	.st4{fill:#1D509F;}
	.st5{fill:none;stroke:#2F2E41;stroke-width:2;}
	.st6{fill:#FF6584;}
	.st7{opacity:0.4;fill:#FFFFFF;enable-background:new    ;}
	.st8{opacity:0.65;fill:#3F3D56;enable-background:new    ;}
	.st9{opacity:0.15;enable-background:new    ;}
	.st10{fill:none;stroke:#3F3D56;stroke-width:4;stroke-miterlimit:10;}
	.st11{fill:#FFC0BB;}
	.st12{fill:#282828;}
	.st13{opacity:0.6;fill:#FC8D84;enable-background:new    ;}
	.st14{fill:#F46C0F;}
	.st15{fill:#F99893;}
	.st16{fill:#333333;}
	.st17{fill:#FFFFFF;}
	.st18{opacity:0.5;fill:#DAEEF7;enable-background:new    ;}
	.st19{opacity:0.5;}
	.st20{fill:#DAEEF7;}
	.st21{fill:#06BFAD;}
	.st22{fill:#EFAC7F;}
	.st23{fill:#3797DB;}
	.st24{fill:#62BDF3;}
	.st25{opacity:0.3;fill:#DAEEF7;enable-background:new    ;}
	.st26{opacity:0.6;fill:#D19369;enable-background:new    ;}
	.st27{fill:#5E2E0D;}
	.st28{fill:#D19369;}
	.st29{opacity:0.5;fill:#2D185D;enable-background:new    ;}
	.st30{fill:#2D185D;}
</style>
<title>discount</title>
<g class="st0">
	<ellipse class="st1" cx="465.6" cy="598" rx="10.8" ry="21.1"/>
	<path class="st1" d="M474.1,507.9c1.5-3.9,2.3-8.4,2.3-12.9c0-11.7-4.8-21.1-10.8-21.1c-5.9,0-10.8,9.4-10.8,21.1
		c0,4.5,0.7,9,2.2,12.9c-3,8-3,17.8,0,25.8c-3,8-3,17.8,0,25.8c-1.5,3.9-2.3,8.4-2.2,12.9c0,11.7,4.8,21.1,10.8,21.1
		c5.9,0,10.8-9.4,10.8-21.1c0-4.5-0.7-9-2.2-12.9c3-8,3-17.8,0-25.8C477.1,525.6,477.1,515.9,474.1,507.9L474.1,507.9z"/>
	<ellipse class="st1" cx="465.6" cy="469.2" rx="10.8" ry="21.1"/>
	<ellipse class="st1" cx="465.6" cy="443.5" rx="10.8" ry="21.1"/>
	<path class="st2" d="M505.9,267.2c1.5-2.8,2.8-5.8,4-8.8l-28.3-6.9l30.6,0.3c5.9-19.3,6.3-41.4,1-61.1l-41,31.8l37.8-41.6
		c-14.3-36.9-45.8-49.4-70.4-28.1c-24.6,21.4-33,68.6-18.8,105.4c1.2,3.1,2.6,6.1,4.1,9c-2.3,4.4-4.3,9.1-5.9,14.1l36.7,28.5
		l-39.1-19.7c-5.6,24.7-2.5,51.9,8.3,72.4c-17.6,33.5-13.7,82,8.6,108.3c22.4,26.3,54.8,20.5,72.4-12.9c14.7-28,14.7-67.4,0-95.4
		C520.6,334.5,520.6,295.1,505.9,267.2L505.9,267.2z"/>
	<path class="st3" d="M413.8,314.9c0,17.3,3.9,34.1,11,47.7c-17.6,33.5-13.7,82,8.6,108.3c22.4,26.3,54.8,20.5,72.4-12.9
		c14.7-28,14.7-67.4,0-95.4C512.8,349.4,413.8,306.2,413.8,314.9z"/>
</g>
<g>
	<path class="st4" d="M684,308c-2.6,30.2-32.1,76.4-63.5,74s-52.7-52.5-50.1-82.7c2.6-30.2,30.1-52.7,61.5-50.3S686.6,277.8,684,308
		z"/>
	<path class="st5" d="M617.8,383.7c-11.1,1.4-14.5,10.2-11.3,17.1s10.7,13,14.1,19.8c1.5,3.4,2.6,6.9,3,10.4
		c1.6,8.4,3.2,16.9,0.7,25c-2.3,7.7-8.2,14.7-14.7,21.3c-12.5,12.8-27.4,24.6-44.5,35.2"/>
	<path class="st6" d="M625.5,387.6c-3.5-2.5-7.1-2.8-10.9-0.8l0.9-10.5l10.9,0.8L625.5,387.6z"/>
	<path class="st5" d="M615.1,381.3c3.3,1.9,7.4,2.2,11,0.8"/>
	
		<ellipse transform="matrix(0.1108 -0.9938 0.9938 0.1108 299.7723 899.8976)" class="st7" cx="652.8" cy="282.4" rx="13.9" ry="12"/>
	<path class="st5" d="M551.7,268.6c-7.3,1.8-9.9,11-8,18.1s6.6,13.2,8.6,20.2c0.9,3.5,1.5,7.1,1.7,10.8c0.8,8.7,1.5,17.5-0.4,26
		c-1.8,8.1-5.9,15.5-10.3,22.5c-8.6,13.7-18.8,26.4-30.3,37.9"/>
	<path class="st2" d="M613.3,192.6c-2.6,30.2-32.1,76.4-63.5,74s-52.7-52.5-50.1-82.7s30.1-52.7,61.5-50.3
		C592.5,136,615.9,162.4,613.3,192.6L613.3,192.6z"/>
	<path class="st2" d="M554.8,272.2c-3.5-2.5-7.1-2.8-10.9-0.8l0.9-10.5l10.9,0.8L554.8,272.2z"/>
	<path class="st5" d="M544.3,265.9c3.3,1.9,7.4,2.2,11,0.8"/>
	<ellipse transform="matrix(0.1108 -0.9938 0.9938 0.1108 351.6796 727.074)" class="st7" cx="582.2" cy="167" rx="13.9" ry="12"/>
</g>
<g class="st0">
	<ellipse class="st1" cx="163.6" cy="582.6" rx="6.5" ry="12.8"/>
	<path class="st1" d="M168.8,527.7c0.9-2.4,1.4-5.1,1.4-7.8c0-7.1-2.9-12.8-6.6-12.8s-6.5,5.7-6.5,12.8c0,2.7,0.5,5.5,1.4,7.8
		c-1.8,4.9-1.8,10.8,0,15.7c-1.8,4.9-1.8,10.8,0,15.7c-0.9,2.4-1.4,5.1-1.4,7.8c0,7.1,2.9,12.8,6.5,12.8s6.6-5.7,6.6-12.8
		c0-2.7-0.5-5.5-1.4-7.8c1.8-4.9,1.8-10.8,0-15.7C170.7,538.5,170.7,532.6,168.8,527.7L168.8,527.7z"/>
	<ellipse class="st1" cx="163.6" cy="504.2" rx="6.5" ry="12.8"/>
	<ellipse class="st1" cx="163.6" cy="488.5" rx="6.5" ry="12.8"/>
	<path class="st2" d="M139.1,381.2c-0.9-1.7-1.7-3.5-2.4-5.4l17.2-4.2l-18.6,0.2c-3.6-11.7-3.8-25.2-0.6-37.2l25,19.4l-23-25.4
		c8.7-22.4,27.9-30.1,42.9-17.1s20.1,41.7,11.4,64.2c-0.7,1.9-1.6,3.7-2.5,5.4c1.4,2.6,2.6,5.5,3.6,8.6l-22.4,17.4l23.8-12
		c3.4,15,1.5,31.6-5.1,44.1c10.7,20.4,8.4,49.9-5.3,65.9c-13.6,16-33.3,12.5-44.1-7.9c-9-17-9-41,0-58.1
		C130.2,422.2,130.2,398.2,139.1,381.2L139.1,381.2z"/>
	<path class="st3" d="M195.1,410.2c0,10.5-2.4,20.8-6.7,29c10.7,20.4,8.4,49.9-5.3,65.9c-13.6,16-33.3,12.5-44.1-7.9
		c-9-17-9-41,0-58.1C134.9,431.3,195.1,405,195.1,410.2z"/>
</g>
<g class="st0">
	<ellipse class="st1" cx="311.4" cy="590.6" rx="8.8" ry="17.2"/>
	<path class="st1" d="M318.3,517.1c1.2-3.2,1.9-6.8,1.8-10.5c0-9.5-3.9-17.2-8.8-17.2c-4.9,0-8.8,7.7-8.8,17.2
		c0,3.7,0.6,7.3,1.8,10.5c-2.4,6.5-2.4,14.5,0,21c-2.4,6.5-2.4,14.5,0,21c-1.2,3.2-1.9,6.8-1.8,10.5c0,9.5,3.9,17.2,8.8,17.2
		c4.8,0,8.8-7.7,8.8-17.2c0-3.7-0.6-7.3-1.8-10.5c2.4-6.5,2.4-14.5,0-21C320.8,531.6,320.8,523.6,318.3,517.1z"/>
	<ellipse class="st1" cx="311.4" cy="485.6" rx="8.8" ry="17.2"/>
	<ellipse class="st1" cx="311.4" cy="464.6" rx="8.8" ry="17.2"/>
	<path class="st2" d="M278.6,321c-1.2-2.3-2.3-4.7-3.3-7.2l23-5.7l-24.9,0.3c-4.8-15.7-5.1-33.7-0.8-49.8l33.4,25.9l-30.8-33.9
		c11.6-30.1,37.2-40.4,57.3-23.1s27,55.7,15.5,85.8c-1,2.7-2.2,5.2-3.5,7.6c1.9,3.6,3.5,7.4,4.8,11.5l-29.9,23.2l31.9-16
		c4.5,20.1,2,42.3-6.8,59c14.3,27.3,11.2,66.8-7,88.2c-18.2,21.5-44.6,16.7-59-10.5c-12-22.8-12-54.9,0-77.7
		C266.6,375.9,266.6,343.8,278.6,321L278.6,321z"/>
	<path class="st3" d="M353.6,359.9c0,14.1-3.2,27.8-9,38.8c14.3,27.3,11.2,66.8-7,88.2c-18.2,21.5-44.6,16.7-59-10.5
		c-12-22.8-12-54.9,0-77.7C273,388,353.6,352.8,353.6,359.9z"/>
</g>
<path class="st8" d="M613,606.2c0,5-24.5,9.6-64.9,13.1c-7.4,0.6-15.2,1.2-23.6,1.8c-7.2,0.5-14.8,0.9-22.7,1.4
	c-7.7,0.4-15.6,0.8-23.9,1.1c-26.1,1.1-54.9,1.9-85.6,2.3c-7.4,0.1-15,0.2-22.6,0.2c-8,0.1-16,0.1-24.1,0.1
	c-147.7,0-267.4-9-267.4-20c0-11.1,119.7-20,267.4-20c63.6,0,122,1.7,167.9,4.4l5,0.3l0,0C576.4,594.6,613,600.1,613,606.2z"/>
<path class="st1" d="M389,403.1c-16.6,0-29.7-9.9-39.3-29.6s-14.4-43.7-14.4-71.8c0-28.3,4.6-52.2,13.9-71.6s22.3-29.2,39.2-29.2
	c17.9,0,31.4,10.3,40.4,30.8s13.6,44.2,13.6,71.2c0,26.8-4.7,50.2-14.1,70.2C419,393.1,405.9,403.1,389,403.1z M389.5,380.9
	c10.9,0,19.1-7.1,24.5-21.4s8.1-32.2,8.1-54c0-24.2-2.8-43.9-8.3-59.3s-14-23.1-25.5-23.1c-21.8,0-32.6,25.9-32.6,77.6
	C355.7,354.1,367,380.9,389.5,380.9L389.5,380.9z M395,593.6h-24l157.4-388.7H552L395,593.6z M534.2,597.6c-16.9,0-30-10-39.5-29.9
	c-9.4-19.9-14.2-43.9-14.2-71.8c0-28.1,4.6-51.9,13.8-71.3c9.2-19.5,22.3-29.2,39.3-29.2c17.8,0,31.1,10.3,40.2,30.8
	c9,20.5,13.5,44.2,13.5,71.2c0,26.6-4.7,49.9-14,70.1C564,587.6,550.9,597.6,534.2,597.6L534.2,597.6z M534.5,574.8
	c10.9,0,19-7,24.4-21s8.1-31.9,8.1-53.7c0-23.3-2.7-42.9-8.2-58.7c-5.4-15.8-13.9-23.7-25.4-23.7c-21.9,0-32.8,25.9-32.8,77.6
	C500.5,548.3,511.8,574.8,534.5,574.8L534.5,574.8z"/>
<path class="st1" d="M389,403.1c-16.6,0-29.7-9.9-39.3-29.6s-14.4-43.7-14.4-71.8c0-28.3,4.6-52.2,13.9-71.6s22.3-29.2,39.2-29.2
	c17.9,0,31.4,10.3,40.4,30.8s13.6,44.2,13.6,71.2c0,26.8-4.7,50.2-14.1,70.2C419,393.1,405.9,403.1,389,403.1z M389.5,380.9
	c10.9,0,19.1-7.1,24.5-21.4s8.1-32.2,8.1-54c0-24.2-2.8-43.9-8.3-59.3s-14-23.1-25.5-23.1c-21.8,0-32.6,25.9-32.6,77.6
	C355.7,354.1,367,380.9,389.5,380.9L389.5,380.9z M395,593.6h-24l157.4-388.7H552L395,593.6z M534.2,597.6c-16.9,0-30-10-39.5-29.9
	c-9.4-19.9-14.2-43.9-14.2-71.8c0-28.1,4.6-51.9,13.8-71.3c9.2-19.5,22.3-29.2,39.3-29.2c17.8,0,31.1,10.3,40.2,30.8
	c9,20.5,13.5,44.2,13.5,71.2c0,26.6-4.7,49.9-14,70.1C564,587.6,550.9,597.6,534.2,597.6L534.2,597.6z M534.5,574.8
	c10.9,0,19-7,24.4-21s8.1-31.9,8.1-53.7c0-23.3-2.7-42.9-8.2-58.7c-5.4-15.8-13.9-23.7-25.4-23.7c-21.9,0-32.8,25.9-32.8,77.6
	C500.5,548.3,511.8,574.8,534.5,574.8L534.5,574.8z"/>
<path class="st9" d="M389,403.1c-16.6,0-29.7-9.9-39.3-29.6s-14.4-43.7-14.4-71.8c0-28.3,4.6-52.2,13.9-71.6s22.3-29.2,39.2-29.2
	c17.9,0,31.4,10.3,40.4,30.8s13.6,44.2,13.6,71.2c0,26.8-4.7,50.2-14.1,70.2C419,393.1,405.9,403.1,389,403.1z M389.5,380.9
	c10.9,0,19.1-7.1,24.5-21.4s8.1-32.2,8.1-54c0-24.2-2.8-43.9-8.3-59.3s-14-23.1-25.5-23.1c-21.8,0-32.6,25.9-32.6,77.6
	C355.7,354.1,367,380.9,389.5,380.9L389.5,380.9z M395,593.6h-24l157.4-388.7H552L395,593.6z M534.2,597.6c-16.9,0-30-10-39.5-29.9
	c-9.4-19.9-14.2-43.9-14.2-71.8c0-28.1,4.6-51.9,13.8-71.3c9.2-19.5,22.3-29.2,39.3-29.2c17.8,0,31.1,10.3,40.2,30.8
	c9,20.5,13.5,44.2,13.5,71.2c0,26.6-4.7,49.9-14,70.1C564,587.6,550.9,597.6,534.2,597.6L534.2,597.6z M534.5,574.8
	c10.9,0,19-7,24.4-21s8.1-31.9,8.1-53.7c0-23.3-2.7-42.9-8.2-58.7c-5.4-15.8-13.9-23.7-25.4-23.7c-21.9,0-32.8,25.9-32.8,77.6
	C500.5,548.3,511.8,574.8,534.5,574.8L534.5,574.8z"/>
<path class="st1" d="M373.9,403.1c-16.6,0-29.7-9.9-39.3-29.6s-14.4-43.7-14.4-71.8c0-28.3,4.6-52.2,13.9-71.6s22.3-29.2,39.2-29.2
	c17.9,0,31.4,10.3,40.4,30.8c9.1,20.5,13.6,44.2,13.6,71.2c0,26.8-4.7,50.2-14.1,70.2C403.9,393.1,390.8,403.1,373.9,403.1z
	 M374.4,380.9c10.9,0,19.1-7.1,24.5-21.4s8.1-32.2,8.1-54c0-24.2-2.8-43.9-8.3-59.3s-14-23.1-25.5-23.1c-21.8,0-32.6,25.9-32.6,77.6
	C340.6,354.1,351.9,380.9,374.4,380.9L374.4,380.9z M379.9,593.6h-24l157.4-388.7h23.6L379.9,593.6z M519.1,597.6
	c-16.9,0-30-10-39.5-29.9c-9.4-19.9-14.2-43.9-14.2-71.8c0-28.1,4.6-51.9,13.8-71.3c9.2-19.5,22.3-29.2,39.3-29.2
	c17.8,0,31.1,10.3,40.2,30.8c9,20.5,13.5,44.2,13.5,71.2c0,26.6-4.7,49.9-14,70.1C548.9,587.6,535.8,597.6,519.1,597.6L519.1,597.6z
	 M519.4,574.8c10.9,0,19-7,24.4-21s8.1-31.9,8.1-53.7c0-23.3-2.7-42.9-8.2-58.7c-5.4-15.8-13.9-23.7-25.4-23.7
	c-21.9,0-32.8,25.9-32.8,77.6C485.4,548.3,496.7,574.8,519.4,574.8L519.4,574.8z"/>
<path class="st10" d="M426.5,603.4c2-5.6-0.3-12.4-2.9-17.4c-2.6-5-5.8-10.1-5.7-16.5c0.1-9.1,6.5-14.5,11.7-19.3
	c3.8-3.6,7.4-7.8,10.5-12.6c1.3-1.9,2.4-4,3.2-6.5c1.1-3.6,1-7.6,1-11.5c-0.2-13-0.7-26-1.3-38.9"/>
<path class="st2" d="M452.8,480c-0.1-4.8-1.9-9.2-4.7-11.6l-2.1,6.3l0.1-7.6c-1-0.4-2.1-0.6-3.1-0.6c-5.2,0.4-9.3,7-9,14.8
	s4.7,13.9,9.9,13.5C449,494.5,453,487.8,452.8,480z"/>
<path class="st2" d="M435.9,576c-2.4,7-8.1,9.7-12.8,6.1S416.6,570,419,563s8.1-9.7,12.8-6.1c2.1,1.6,3.7,4.4,4.5,7.7l-5.9,7.2
	l6.5-2.3C436.9,571.8,436.6,574,435.9,576z"/>
<path class="st2" d="M431.2,548.5c-5.2,0.4-9.7-5.7-9.9-13.5l0,0c-0.1-2.2,0.2-4.4,0.8-6.5c1.1-3.8,3.4-6.7,6.1-7.9l-0.1,5.8
	l2.1-6.4l0,0c5.2-0.4,9.7,5.7,9.9,13.5C440.4,541.5,436.4,548.1,431.2,548.5L431.2,548.5L431.2,548.5z"/>
<path class="st2" d="M454.2,525.6c-5.2,0.5-9.7-5.4-10.1-13.2c-0.4-7.8,3.6-14.6,8.8-15.1c0.1,0,0.2,0,0.4,0
	c1.8-0.1,3.5,0.5,5.1,1.8l-1.7,6.9l3.4-5c1.9,2.5,3,6,3.1,9.8c0,1.3,0,2.6-0.2,3.9C462,520.8,458.4,525.3,454.2,525.6z"/>
<path class="st3" d="M451.5,483c-2.2,0.4-4.3,1.4-6.5,1.6s-4.6-0.6-6-3.1c-0.8-1.4-1.1-3.1-1.8-4.6c-0.6-1.4-1.4-2.6-2.4-3.4
	c-2.4,7-0.5,15.5,4.2,19.1c4.7,3.5,10.4,0.7,12.7-6.2c0.4-1.1,0.6-2.2,0.8-3.4C452.2,482.9,451.9,482.9,451.5,483z"/>
<path class="st3" d="M454.2,525.6c-5.2,0.4-9.7-5.7-9.9-13.5c-0.1-2.3,0.2-4.6,0.9-6.7c0.8,0.8,1.4,1.7,1.9,2.9
	c0.7,1.5,1.1,3.3,1.9,4.7c1.5,2.6,4,3.4,6.3,3.3c2.3-0.2,4.5-1.1,6.8-1.5c0.3,0,0.6-0.1,1-0.1C462,520.8,458.4,525.3,454.2,525.6z"
	/>
<path class="st3" d="M431.2,548.5c-5.2,0.4-9.7-5.7-9.9-13.5l0,0c-0.1-2.2,0.2-4.4,0.8-6.5c0.8,0.8,1.5,1.8,2,2.9
	c0.7,1.6,1.2,3.3,2.1,4.8c1.6,2.7,4.3,3.6,6.7,3.5s4.6-0.9,6.9-1.2C438.6,544.2,435.2,548.2,431.2,548.5z"/>
<path class="st3" d="M435.9,576c-2.4,7-8.1,9.8-12.7,6.2c-4.3-3.3-6.3-11-4.5-17.8c0.8,0.8,1.5,1.7,2.1,2.8c0.9,1.6,1.5,3.5,2.5,5
	c1.9,2.8,5.1,4,7.9,4.1C432.7,576.4,434.3,576.3,435.9,576z"/>
<path class="st10" d="M573.1,602.6c2-5.6-0.3-12.4-2.9-17.4c-2.6-5-5.8-10.1-5.7-16.5c0.1-9.1,6.5-14.5,11.7-19.3
	c3.8-3.6,7.4-7.8,10.5-12.6c1.3-1.9,2.4-4,3.2-6.5c1.1-3.6,1-7.6,1-11.5c-0.2-13-0.7-26-1.3-38.9"/>
<path class="st2" d="M599.4,479.3c-0.1-4.8-1.9-9.2-4.7-11.6l-2.1,6.3l0.1-7.6c-1-0.4-2.1-0.6-3.1-0.6c-5.2,0.4-9.3,7-9,14.8
	s4.7,13.9,9.9,13.5C595.6,493.7,599.7,487.1,599.4,479.3z"/>
<path class="st2" d="M582.5,575.3c-2.4,7-8.1,9.7-12.8,6.1c-4.7-3.6-6.5-12.1-4.1-19.1s8.1-9.7,12.8-6.1c2.1,1.6,3.7,4.4,4.5,7.7
	l-5.9,7.2l6.5-2.3C583.6,571.1,583.2,573.3,582.5,575.3z"/>
<path class="st2" d="M577.8,547.8c-5.2,0.4-9.7-5.7-9.9-13.5l0,0c-0.1-2.2,0.2-4.4,0.8-6.5c1.1-3.8,3.4-6.7,6.1-7.9l-0.1,5.8
	l2.1-6.4l0,0c5.2-0.4,9.7,5.7,9.9,13.5C587.1,540.7,583,547.4,577.8,547.8L577.8,547.8L577.8,547.8z"/>
<path class="st2" d="M600.8,524.8c-5.2,0.5-9.7-5.4-10.1-13.2c-0.4-7.8,3.6-14.6,8.8-15.1c0.1,0,0.2,0,0.4,0
	c1.8-0.1,3.5,0.5,5.1,1.8l-1.7,6.9l3.4-5c1.9,2.5,3,6,3.1,9.8c0,1.3,0,2.6-0.2,3.9C608.7,520.1,605.1,524.5,600.8,524.8z"/>
<path class="st3" d="M598.1,483.1c-2.2,0.4-4.3,1.4-6.5,1.6s-4.6-0.6-6-3.1c-0.8-1.4-1.1-3.1-1.8-4.6c-0.6-1.4-1.4-2.6-2.4-3.4
	c-2.4,7-0.5,15.5,4.2,19.1c4.7,3.5,10.4,0.7,12.7-6.2c0.4-1.1,0.6-2.2,0.8-3.4C598.9,483,598.5,483,598.1,483.1z"/>
<path class="st3" d="M600.8,524.8c-5.2,0.4-9.7-5.7-9.9-13.5c-0.1-2.3,0.2-4.6,0.9-6.7c0.8,0.8,1.4,1.7,1.9,2.9
	c0.7,1.5,1.1,3.3,1.9,4.7c1.5,2.6,4,3.4,6.3,3.3c2.3-0.2,4.5-1.1,6.8-1.5c0.3,0,0.6-0.1,1-0.1C608.7,520.1,605.1,524.5,600.8,524.8z
	"/>
<path class="st3" d="M577.8,547.8c-5.2,0.4-9.7-5.7-9.9-13.5l0,0c-0.1-2.2,0.2-4.4,0.8-6.5c0.8,0.8,1.5,1.8,2,2.9
	c0.7,1.6,1.2,3.3,2.1,4.8c1.6,2.7,4.3,3.6,6.7,3.5c2.3-0.1,4.6-0.9,6.9-1.2C585.3,543.5,581.8,547.5,577.8,547.8z"/>
<path class="st3" d="M582.5,575.3c-2.4,7-8.1,9.8-12.7,6.2c-4.3-3.3-6.3-11-4.5-17.8c0.8,0.8,1.5,1.7,2.1,2.8c0.9,1.6,1.5,3.5,2.5,5
	c1.9,2.8,5.1,4,7.9,4.1C579.3,575.7,580.9,575.6,582.5,575.3z"/>
<path class="st10" d="M109.8,593.2c-2-5.6,0.3-12.4,2.9-17.4s5.8-10.1,5.7-16.5c-0.1-9.1-6.5-14.5-11.7-19.3
	c-3.8-3.6-7.4-7.8-10.5-12.6c-1.3-1.9-2.4-4-3.2-6.5c-1.1-3.6-1-7.6-1-11.5c0.2-13,0.7-26,1.3-38.9"/>
<path class="st2" d="M83.5,469.8c0.1-4.8,1.9-9.2,4.7-11.6l2.1,6.3l-0.1-7.6c1-0.4,2.1-0.6,3.1-0.6c5.2,0.4,9.3,7,9,14.8
	c-0.2,7.8-4.7,13.9-9.9,13.5C87.3,484.3,83.2,477.6,83.5,469.8z"/>
<path class="st2" d="M100.4,565.8c2.4,7,8.1,9.7,12.8,6.1c4.7-3.6,6.5-12.1,4.1-19.1s-8.1-9.7-12.8-6.1c-2.1,1.6-3.7,4.4-4.5,7.7
	l5.9,7.2l-6.5-2.3C99.3,561.6,99.7,563.8,100.4,565.8z"/>
<path class="st2" d="M105.1,538.3c5.2,0.4,9.7-5.7,9.9-13.5l0,0c0.1-2.2-0.2-4.4-0.8-6.5c-1.1-3.8-3.4-6.7-6.1-7.9l0.1,5.8l-2.1-6.4
	l0,0c-5.2-0.4-9.7,5.7-9.9,13.5C95.8,531.2,99.9,537.9,105.1,538.3L105.1,538.3z"/>
<path class="st2" d="M82,515.4c5.2,0.5,9.7-5.4,10.1-13.2c0.3-7.8-3.6-14.6-8.8-15.1c-0.1,0-0.2,0-0.4,0c-1.8-0.1-3.5,0.5-5.1,1.8
	l1.7,6.9l-3.5-4.9c-1.8,2.5-3,6-3.1,9.8c0,1.3,0,2.6,0.2,3.9C74.2,510.6,77.8,515.1,82,515.4z"/>
<path class="st3" d="M84.7,473.6c2.2,0.4,4.3,1.4,6.5,1.6s4.6-0.6,6-3.1c0.8-1.4,1.1-3.1,1.8-4.6c0.6-1.4,1.4-2.6,2.4-3.4
	c2.4,7,0.5,15.5-4.2,19.1c-4.7,3.5-10.4,0.7-12.7-6.2c-0.4-1.1-0.6-2.2-0.8-3.4C84,473.5,84.4,473.5,84.7,473.6z"/>
<path class="st3" d="M82,515.4c5.2,0.4,9.7-5.7,9.9-13.5c0.1-2.3-0.2-4.6-0.9-6.7c-0.8,0.8-1.4,1.7-1.9,2.9
	c-0.7,1.5-1.1,3.3-1.9,4.7c-1.5,2.6-4,3.4-6.3,3.3c-2.3-0.2-4.5-1.1-6.8-1.5c-0.3,0-0.6-0.1-1-0.1C74.2,510.6,77.8,515.1,82,515.4z"
	/>
<path class="st3" d="M105.1,538.3c5.2,0.4,9.7-5.7,9.9-13.5l0,0c0.1-2.2-0.2-4.4-0.8-6.5c-0.8,0.8-1.5,1.8-2,2.9
	c-0.7,1.6-1.2,3.3-2.1,4.8c-1.6,2.7-4.3,3.6-6.7,3.5c-2.3-0.1-4.6-0.9-6.9-1.2C97.6,534,101.1,538,105.1,538.3z"/>
<path class="st3" d="M100.4,565.8c2.4,7,8.1,9.8,12.7,6.2c4.3-3.3,6.3-11,4.5-17.8c-0.8,0.8-1.5,1.7-2.1,2.8c-0.9,1.6-1.5,3.5-2.5,5
	c-1.9,2.8-5.1,4-7.9,4.1C103.6,566.2,102,566.1,100.4,565.8z"/>
<path class="st2" d="M209.1,571.9l6.5-5.7c-0.9-2.2-2-4.3-3.3-5.9l-12.2,5.7l9.6-8.4c-7.6-6.2-17-2-21.2,9.3
	c-1.3,3.4-1.9,7.3-1.9,11.2c0,12.9,7,13.3,15.6,13.3s15.6-0.4,15.6-13.3c0-3.3-0.5-6.5-1.3-9.5L209.1,571.9z"/>
<path class="st3" d="M210.7,584.5c-0.7-1-1.5-1.9-2.3-2.7c-1.2-1.2-2.4-2.4-3.8-2.8c-1.2-0.3-2.5-0.1-3.7-0.2
	c-2.2-0.2-4.2-1.6-5.7-3.9c-0.9-1.4-1.6-3.1-2.7-4.1c-1.2-1.1-2.6-1.4-4-1.1c-0.4,0.1-0.8,0.2-1.2,0.4c-0.6,2.5-0.9,5.2-0.9,7.9
	c0,12.9,7,13.3,15.6,13.3c4.2,0,8-0.1,10.8-1.7l-0.5-1.3C212,586.9,211.4,585.6,210.7,584.5z"/>
<g>
	<path class="st11" d="M165.1,594.8l0.3,9.1l11.6,7.9c0,0,5.5-7.1,5.4-7.9c-0.1-1,0-16.6,0-16.6s-13.2,4.8-13.8,4.8
		S165.1,594.8,165.1,594.8z"/>
	<polygon class="st11" points="221.9,603.8 221.9,592.6 235.5,589.1 238.4,590.3 238.9,603.8 234.7,615.5 	"/>
	<path class="st12" d="M202.9,432.3l-17.1,164c-6.7-0.2-13.7-0.8-20.7-1.6c-0.7-31.5-3.1-125.5-2.7-163.2
		c0.4-45.7,14.9-52.3,14.9-52.3l24.5-6l33.6,5.6C224.9,417.3,202.9,432.3,202.9,432.3z"/>
	<path class="st12" d="M241.4,594.4c-5.1,0.6-12.1,1.2-20.4,1.7l-17.8-189.6l-1.9-30.1c0,0,27.5-12.5,36.6,2.4s8.8,36.9,8.8,36.9
		S245.4,555.3,241.4,594.4z"/>
	<path class="st12" d="M221.9,603.8v12.4c0,1,0.9,1.9,1.9,1.9h30.6c2.2,0,3.1-2.7,1.2-3.9l-16.8-10.4
		C238.9,603.8,231.7,608.5,221.9,603.8z"/>
	<path class="st12" d="M165.4,603.8v12.4c0,1,0.9,1.9,1.9,1.9h30.6c2.2,0,3.1-2.7,1.2-3.9l-16.8-10.4
		C182.4,603.8,175.2,608.5,165.4,603.8z"/>
	<path class="st11" d="M249.7,317l7.4,22.8c0,0,32.7-29.2,32.6-37.4l-0.6-2.5c-0.7-3.1,0-5.1,1.3-5.3h0.3c0,0,2.2,4.5,4,8.1l1.9-1.7
		l10,11.9l-11.5,5.3l0,0l0,0c0,0-35,52.4-42.8,48.9c-7.9-3.5-19.9-32.2-19.9-32.2L249.7,317z"/>
	<path class="st11" d="M124.8,334.5c0,0-10.9,14.6-9.7,17.7c1.2,3.1,55,44.6,55,44.6s1.5,11.1,7.6,14.1l7.9-13.3l-44.5-46.9l3.6-4.7
		L124.8,334.5z"/>
	<polygon class="st11" points="197.7,266.2 195.4,283.7 213.7,283.1 213.1,263.1 	"/>
	<path class="st13" d="M213.4,272.4l-0.3-9.2l-15.8,4.8l-0.4,3.5C200.5,272.6,207.2,274.1,213.4,272.4z"/>
	<polygon class="st14" points="227.9,233.5 227.6,245.6 225.3,246.6 223.6,231.5 	"/>
	<path class="st15" d="M223.9,244c-0.9,2.7,0.1,5.4,2.4,6c2.2,0.7,4.8-0.9,5.7-3.6c0.9-2.7-0.1-5.4-2.4-6
		C227.3,239.7,224.8,241.3,223.9,244z"/>
	<path class="st11" d="M224.5,259.1c0.6-1.1,1-2.4,1.3-3.7c1-3.4,1.3-6.9,1.5-10.1c0-0.7,0-1.3,0.1-2c0.3-2.7,0-5.5-0.9-8.3
		c-2.8-9.1-11.9-15.3-21.9-15.3c-13.5,0.1-23.7,10.9-22.6,23.3c-1.5-0.7-3.1-0.7-4.5,0c-2.5,1.3-3.3,4.9-1.5,7.9s5.4,4.5,7.9,3.1
		c0.3-0.2,0.7-0.4,0.9-0.7c2.1,10.4,11.8,17.9,22.8,16.9c5.4-0.4,10-2.9,13.4-6.5c0.3-0.2,0.4-0.4,0.7-0.8
		C222.8,261.9,223.7,260.5,224.5,259.1z"/>
	<path class="st16" d="M202.6,243.4c0.1,1-0.7,1.9-1.8,2c-1,0.1-2.1-0.7-2.2-1.7s0.7-1.9,1.8-2C201.4,241.6,202.4,242.4,202.6,243.4
		z"/>
	<path class="st16" d="M219.7,242.8c0.1,1-0.7,1.9-1.8,2c-1,0.1-2.1-0.7-2.2-1.7s0.7-1.9,1.8-2C218.5,241.1,219.5,241.8,219.7,242.8
		z"/>
	<path class="st14" d="M204.5,239.5c-1-0.3-1.9-0.6-3-0.7c-0.9-0.1-1.9-0.1-2.8,0s-1.8,0.3-2.7,0.8l-0.3,0.1c-0.1,0-0.1,0.1-0.3,0.1
		l-0.6,0.3c-0.4,0.2-0.9,0.6-1.3,0.8c0.3-0.4,0.6-0.9,0.9-1.2c0.4-0.3,0.7-0.8,1.2-1c0.9-0.7,1.9-1,3-1.2c1-0.1,2.2,0,3.3,0.3
		C202.9,238.1,203.9,238.7,204.5,239.5z"/>
	<path class="st14" d="M212.6,239.1c0.6-0.8,1.5-1.5,2.5-1.9s2.1-0.7,3.3-0.6c1,0.1,2.2,0.3,3.1,0.9c0.4,0.2,0.9,0.7,1.3,0.9
		c0.3,0.3,0.7,0.8,1,1.2c-0.4-0.2-0.9-0.4-1.3-0.7l-0.7-0.2c-0.1,0-0.1-0.1-0.3-0.1l-0.3-0.1c-0.9-0.3-1.8-0.4-2.7-0.6
		c-0.9,0-1.8,0-2.8,0.2C214.5,238.5,213.6,238.7,212.6,239.1z"/>
	<path class="st14" d="M228.8,219.1c0,0,6.8-0.4-0.9-5.1c-7.7-4.7-27.5-9.2-39.1-1.9c0,0-3-4.7-6.4-3.1c-3.4,1.6,2.8,4.4,2.8,4.4
		s-4.6,0.3-5.7,2.6c-0.9,1.7,1.9,1.5,3.4,1.2c-2.5,0.7-10.4,6.2-3.4,24.5c1.8-0.6,14-13.5,14-13.5s20.4,9,17.3,3.1
		c0,0,24,8.6,19.3-2.6C230.1,228.4,239.3,228.2,228.8,219.1z"/>
	<path class="st17" d="M188.2,296.6c-0.9,1.6-1.8,3.1-2.7,4.6l-2.7,4.6c-0.9,1.6-1.8,3-2.7,4.6c-0.9,1.6-1.8,3-2.8,4.6
		c-0.9,1.6-1.9,3-2.8,4.6c-0.4,0.8-0.9,1.6-1.5,2.2l-1.5,2.2l-1.5,2.2c-0.3,0.3-0.4,0.8-0.7,1.1l-0.7,1.1l-0.7,1.1l-0.4,0.6
		l-0.4,0.6c-0.6,0.7-1,1.5-1.5,2.2c2.4-2.8,4.5-5.6,6.5-8.6c2.1-2.9,4-5.9,5.8-9c1.8-3,3.7-6.2,5.4-9.3
		C185,303,186.7,299.8,188.2,296.6z"/>
	<path class="st18" d="M173.3,414.1c2.2,0.8,4.6,1.7,6.8,2.7c2.2,1,4.5,2,6.7,3s4.3,2.1,6.5,3.2s4.3,2.2,6.4,3.4l0.1-0.4
		c-1.6-0.3-3.3-0.6-4.9-0.7s-3.3-0.2-4.9-0.2s-3.3,0.1-4.9,0.2l-1.2,0.1l-1.2,0.2l-0.6,0.1l-0.6,0.1l-1.2,0.3l1.2-0.2l0.6-0.1
		l0.6-0.1l1.2-0.1l1.2-0.1c0.4,0,0.7-0.1,1.2-0.1c0.4,0,0.7,0,1.2-0.1h1.2c0.4,0,0.7,0,1.2,0c1.6,0,3.3,0.1,4.9,0.3
		c1.6,0.2,3.3,0.4,4.8,0.8l1.5,0.3l-1.3-0.7c-2.1-1.2-4.3-2.4-6.4-3.4c-2.2-1.1-4.3-2.1-6.5-3.1s-4.5-1.9-6.7-2.9
		c-1.2-0.4-2.2-0.9-3.4-1.2C175.5,414.8,174.5,414.5,173.3,414.1z"/>
	<path class="st18" d="M237.8,413.2c-1.2,0.3-2.4,0.8-3.4,1.1c-1.2,0.4-2.2,0.8-3.4,1.2c-2.2,0.9-4.5,1.9-6.7,2.9s-4.5,2.1-6.5,3.1
		c-2.2,1.1-4.3,2.2-6.4,3.4l-1.3,0.7l1.5-0.3c1.6-0.3,3.1-0.6,4.8-0.8c1.6-0.2,3.3-0.3,4.9-0.3c0.4,0,0.7,0,1.2,0h1.2
		c0.4,0,0.7,0,1.2,0.1c0.4,0,0.7,0,1.2,0.1l1.2,0.1l1.2,0.1l0.6,0.1l0.6,0.1l1.2,0.2l-1.2-0.3l-0.7,0.1l-0.6-0.1l-1.2-0.2l-1.2-0.1
		c-1.6-0.2-3.3-0.2-4.9-0.2s-3.3,0.1-4.9,0.2s-3.3,0.3-4.9,0.7l0.1,0.4c2.1-1.1,4.3-2.2,6.4-3.4c2.2-1.1,4.3-2.1,6.5-3.2
		c2.2-1,4.5-2,6.7-3C233.2,414.9,235.5,414,237.8,413.2z"/>
	<path class="st18" d="M232.9,386.8c-1.9,0.3-4,0.7-6,0.9c-2.1,0.2-4,0.4-6.1,0.7c-4,0.3-8,0.7-12.2,0.7c-2.1,0-4,0-6.1,0
		c-2.1-0.1-4-0.1-6.1-0.3c-2.1-0.2-4-0.4-6.1-0.7c-1.9-0.3-4-0.7-6-1.2c1.9,0.6,3.9,1,6,1.3c1.9,0.3,4,0.6,6.1,0.8
		c2.1,0.2,4,0.3,6.1,0.3s4,0.1,6.1,0c4-0.1,8.2-0.3,12.2-0.8c2.1-0.2,4-0.4,6.1-0.8C228.9,387.6,231,387.3,232.9,386.8z"/>
	<path class="st14" d="M193.5,228c0,0-6,12.9-4.9,19.8c0,0-4.3-5.7-9.8-5c0,0-3.7-11.4-1.5-19.1l12.6,0.7L193.5,228z"/>
	<g class="st19">
		<path class="st20" d="M188.2,392.7c-0.1,0.2-0.1,0.4-0.3,0.7l-0.3,0.7l-0.7,1.3l-1.2,2.1l-3.4,5.7c-0.4,0.9-4.9,8.4-6,10.1
			c1.3-1.6,2.8-3,3.9-4.7c0.6-0.8,1-1.7,1.5-2.6s1-1.7,1.5-2.6c0.9-1.8,1.8-3.5,2.7-5.3c0.4-0.9,0.9-1.8,1.2-2.7
			c0.1-0.4,0.4-0.9,0.6-1.3C187.9,393.8,188.2,393.3,188.2,392.7z"/>
	</g>
	<path class="st17" d="M193.7,277c1,0.8,2.1,1.5,3.1,2.2l3,2.2l2.8,2.1c1-1,2.1-2,3.1-3c1-1.1,2.2-2.1,3.4-3.2l0.3-0.2l0.3,0.3
		c0.7,0.9,1.5,1.9,2.2,2.8s1.3,1.7,2.1,2.6c1.3-0.9,2.8-1.9,4.2-2.8l2.2-1.5c0.7-0.4,1.5-1,2.2-1.5c-0.7,0.6-1.5,1.1-2.1,1.6
		l-2.1,1.6c-1.5,1-2.8,2.1-4.3,3.1l-0.1,0.1l-0.1-0.2c-0.7-0.9-1.5-1.8-2.2-2.8c-0.6-0.8-1.3-1.7-1.9-2.5c-1,1-2.1,2-3.1,2.9
		c-1.2,1.1-2.2,2.1-3.4,3.2l-0.3,0.2l-0.3-0.2l-3-2.4l-3-2.4c-1-0.8-1.9-1.6-3-2.4c-1-0.8-1.9-1.6-2.8-2.5
		C191.6,275.4,192.6,276.2,193.7,277z"/>
	<path class="st17" d="M209.6,277.3c0.3,4.4,0.7,8.6,1,13s0.6,8.6,0.7,13c0.1,2.1,0.1,4.4,0.3,6.5l0.1,3.2l0.1,3.2
		c0.1,4.4,0.3,8.6,0.3,13c0.1,8.6,0.1,17.4-0.1,26c-0.1,4.4-0.3,8.6-0.6,13l-0.1,3.2c0,0.6,0,1.1-0.1,1.6l-0.1,1.6
		c-0.1,2.1-0.4,4.4-0.6,6.5c0.6-4.3,1-8.6,1.5-13c0.4-4.4,0.6-8.6,0.9-13c0.1-2.1,0.1-4.4,0.1-6.5c0-1.1,0-2.1,0-3.2v-3.2V339v-1.7
		v-1.8V329c-0.1-4.4-0.3-8.6-0.4-13l-0.1-3.2l-0.1-3.2c-0.1-2.1-0.3-4.4-0.4-6.5c-0.3-4.4-0.6-8.6-1-13l-0.3-3.2l-0.3-3.2
		C210,281.7,209.9,279.6,209.6,277.3z"/>
	<path class="st21" d="M204.8,307h-15.6l0.6,11.2c0.1,2.2,1.3,4.1,3.3,5.4l0.7,0.4c2.5,1.6,6,1.5,8.3-0.3l0,0
		c1.8-1.3,2.8-3.4,2.8-5.5L204.8,307L204.8,307z"/>
	<path class="st22" d="M165.1,594.8l0.3,9.1l11.6,7.9c0,0,5.5-7.1,5.4-7.9c-0.1-1,0-16.6,0-16.6s-13.2,4.8-13.8,4.8
		S165.1,594.8,165.1,594.8z"/>
	<polygon class="st22" points="221.9,603.8 221.9,592.6 235.5,589.1 238.4,590.3 238.9,603.8 234.7,615.5 	"/>
	<path class="st4" d="M202.9,432.3l-17.1,164c-6.7-0.2-13.7-0.8-20.7-1.6c-0.7-31.5-3.1-125.5-2.7-163.2
		c0.4-45.7,14.9-52.3,14.9-52.3l24.5-6l33.6,5.6C224.9,417.3,202.9,432.3,202.9,432.3z"/>
	<path class="st4" d="M241.4,594.4c-5.1,0.6-12.1,1.2-20.4,1.7l-17.8-189.6l-1.9-30.1c0,0,27.5-12.5,36.6,2.4s8.8,36.9,8.8,36.9
		S245.4,555.3,241.4,594.4z"/>
	<path class="st4" d="M221.9,603.8v12.4c0,1,0.9,1.9,1.9,1.9h30.6c2.2,0,3.1-2.7,1.2-3.9l-16.8-10.4
		C238.9,603.8,231.7,608.5,221.9,603.8z"/>
	<path class="st4" d="M165.4,603.8v12.4c0,1,0.9,1.9,1.9,1.9h30.6c2.2,0,3.1-2.7,1.2-3.9l-16.8-10.4
		C182.4,603.8,175.2,608.5,165.4,603.8z"/>
	<path class="st22" d="M249.7,317l7.4,22.8c0,0,32.7-29.2,32.6-37.4l-0.6-2.5c-0.7-3.1,0-5.1,1.3-5.3h0.3c0,0,2.2,4.5,4,8.1l1.9-1.7
		l10,11.9l-11.5,5.3l0,0l0,0c0,0-35,52.4-42.8,48.9c-7.9-3.5-19.9-32.2-19.9-32.2L249.7,317z"/>
	<path class="st23" d="M235.6,282.4c0,0,4.9,1.3,12.1,11.8c7.1,10.4,13.5,39.2,13.5,39.2l-22.8,14.7l-14.9-34.8L235.6,282.4z"/>
	<path class="st23" d="M260.3,330.6l-22.6,14.2c-0.7,0.4-1,1.5-0.7,2.2l3.3,6.8c0.4,1,1.9,1.3,2.8,0.8l22.9-14.3
		c0.7-0.4,1-1.5,0.6-2.2l-3.6-6.7C262.7,330.3,261.2,330.1,260.3,330.6z"/>
	<path class="st22" d="M124.8,334.5c0,0-10.9,14.6-9.7,17.7c1.2,3.1,55,44.6,55,44.6s1.5,11.1,7.6,14.1l7.9-13.3l-44.5-46.9l3.6-4.7
		L124.8,334.5z"/>
	<polygon class="st2" points="297.5,291.1 302.6,291.1 309.8,291.1 305.7,314.9 302.6,314.9 297.5,314.9 294.5,314.9 290.2,291.1 	
		"/>
	<path class="st24" d="M290.4,293.3h19.3c0.9,0,1.6-0.6,1.6-1.2l0,0c0-0.7-0.7-1.2-1.6-1.2h-19.3c-0.9,0-1.6,0.6-1.6,1.2l0,0
		C288.7,292.8,289.5,293.3,290.4,293.3z"/>
	<path class="st25" d="M306.4,297.6c0.7,0,1.6,0.1,2.4,0.3l-2.5,14.4c-4.2-0.1-7.6-3.4-7.6-7.4C298.7,300.8,302.1,297.6,306.4,297.6
		z"/>
	<polygon class="st22" points="197.7,266.2 195.4,283.7 213.7,283.1 213.1,263.1 	"/>
	<path class="st24" d="M175.7,279.7c4.6-2.6,9.7-4.1,14.9-4.9c3.3,2.6,13.1,2.5,18.4,2.7c8.2,0.2,9.1,0.7,12.3-0.7
		c7.3,2.6,20.2,7.1,20.4,11.3c3.6,91.8-3.9,90.9-3.9,90.9c-10.1,4.3-53.4,1.9-60.3,0c-6.8-1.9-12.1-45.9-12.1-45.9l-20.7,18.7
		c-7.3-6.5-21.6-15.2-21.6-15.2S154.2,291.7,175.7,279.7z"/>
	<path class="st23" d="M152.3,343.9l-21.9-16.1c-1-0.8-2.5-0.6-3.3,0.4l-5.1,6.5c-0.7,1-0.6,2.4,0.4,3l21.6,15.6
		c1,0.7,2.4,0.6,3.1-0.3l5.5-5.9C153.5,346.2,153.3,344.7,152.3,343.9z"/>
	<path class="st26" d="M213.4,272.4l-0.3-9.2l-15.8,4.8l-0.4,3.5C200.5,272.6,207.2,274.1,213.4,272.4z"/>
	<polygon class="st27" points="227.9,233.5 227.6,245.6 225.3,246.6 223.6,231.5 	"/>
	<path class="st28" d="M223.9,244c-0.9,2.7,0.1,5.4,2.4,6c2.2,0.7,4.8-0.9,5.7-3.6c0.9-2.7-0.1-5.4-2.4-6
		C227.3,239.7,224.8,241.3,223.9,244z"/>
	<path class="st22" d="M224.5,259.1c0.6-1.1,1-2.4,1.3-3.7c1-3.4,1.3-6.9,1.5-10.1c0-0.7,0-1.3,0.1-2c0.3-2.7,0-5.5-0.9-8.3
		c-2.8-9.1-11.9-15.3-21.9-15.3c-13.5,0.1-23.7,10.9-22.6,23.3c-1.5-0.7-3.1-0.7-4.5,0c-2.5,1.3-3.3,4.9-1.5,7.9s5.4,4.5,7.9,3.1
		c0.3-0.2,0.7-0.4,0.9-0.7c2.1,10.4,11.8,17.9,22.8,16.9c5.4-0.4,10-2.9,13.4-6.5c0.3-0.2,0.4-0.4,0.7-0.8
		C222.8,261.9,223.7,260.5,224.5,259.1z"/>
	<path class="st16" d="M202.6,243.4c0.1,1-0.7,1.9-1.8,2c-1,0.1-2.1-0.7-2.2-1.7s0.7-1.9,1.8-2C201.4,241.6,202.4,242.4,202.6,243.4
		z"/>
	<path class="st16" d="M219.7,242.8c0.1,1-0.7,1.9-1.8,2c-1,0.1-2.1-0.7-2.2-1.7s0.7-1.9,1.8-2C218.5,241.1,219.5,241.8,219.7,242.8
		z"/>
	<path class="st27" d="M204.5,239.5c-1-0.3-1.9-0.6-3-0.7c-0.9-0.1-1.9-0.1-2.8,0s-1.8,0.3-2.7,0.8l-0.3,0.1c-0.1,0-0.1,0.1-0.3,0.1
		l-0.6,0.3c-0.4,0.2-0.9,0.6-1.3,0.8c0.3-0.4,0.6-0.9,0.9-1.2c0.4-0.3,0.7-0.8,1.2-1c0.9-0.7,1.9-1,3-1.2c1-0.1,2.2,0,3.3,0.3
		C202.9,238.1,203.9,238.7,204.5,239.5z"/>
	<path class="st27" d="M212.6,239.1c0.6-0.8,1.5-1.5,2.5-1.9s2.1-0.7,3.3-0.6c1,0.1,2.2,0.3,3.1,0.9c0.4,0.2,0.9,0.7,1.3,0.9
		c0.3,0.3,0.7,0.8,1,1.2c-0.4-0.2-0.9-0.4-1.3-0.7l-0.7-0.2c-0.1,0-0.1-0.1-0.3-0.1l-0.3-0.1c-0.9-0.3-1.8-0.4-2.7-0.6
		c-0.9,0-1.8,0-2.8,0.2C214.5,238.5,213.6,238.7,212.6,239.1z"/>
	<path class="st27" d="M228.8,219.1c0,0,6.8-0.4-0.9-5.1c-7.7-4.7-27.5-9.2-39.1-1.9c0,0-3-4.7-6.4-3.1c-3.4,1.6,2.8,4.4,2.8,4.4
		s-4.6,0.3-5.7,2.6c-0.9,1.7,1.9,1.5,3.4,1.2c-2.5,0.7-10.4,6.2-3.4,24.5c1.8-0.6,14-13.5,14-13.5s20.4,9,17.3,3.1
		c0,0,24,8.6,19.3-2.6C230.1,228.4,239.3,228.2,228.8,219.1z"/>
	<path class="st27" d="M178.6,241.7c-5.2-2.1-0.9-6.8-0.9-6.8c-6.1-4.4-2.7-9.7-0.7-10.1c-3.9-7.4,3.1-11.4,5.8-9.9
		c-3.3-6.2,4.2-8.2,6.2-5.4c3.4-6.8,9.7-4.3,10.7-1.7c2.7-4.9,9.4-3,9.7,0.1c3.1-4.5,9.7-1.2,9.5,2c4.3-3.2,12.3,0,7.1,3.9
		c-5.2,3.9-31.8,10.7-31.8,10.7s0.3,8.3-2.4,10.4c-2.8,2.1-3.6,1.5-3.6,1.5c3.3,6.6,2.4,8.3,0.7,9
		C183.7,240.8,178.6,241.7,178.6,241.7z"/>
	<path class="st17" d="M216.4,257.4c-0.6,2.4-3.6,4-7,3.9c-3.4,0-6.2-1.8-6.8-4.1L216.4,257.4z"/>
	<path class="st23" d="M188.2,296.6c-0.9,1.6-1.8,3.1-2.7,4.6l-2.7,4.6c-0.9,1.6-1.8,3-2.7,4.6c-0.9,1.6-1.8,3-2.8,4.6
		c-0.9,1.6-1.9,3-2.8,4.6c-0.4,0.8-0.9,1.6-1.5,2.2l-1.5,2.2l-1.5,2.2c-0.3,0.3-0.4,0.8-0.7,1.1l-0.7,1.1l-0.7,1.1l-0.4,0.6
		l-0.4,0.6c-0.6,0.7-1,1.5-1.5,2.2c2.4-2.8,4.5-5.6,6.5-8.6c2.1-2.9,4-5.9,5.8-9c1.8-3,3.7-6.2,5.4-9.3
		C185,303,186.7,299.8,188.2,296.6z"/>
	<path class="st29" d="M173.3,414.1c2.2,0.8,4.6,1.7,6.8,2.7c2.2,1,4.5,2,6.7,3s4.3,2.1,6.5,3.2s4.3,2.2,6.4,3.4l0.1-0.4
		c-1.6-0.3-3.3-0.6-4.9-0.7s-3.3-0.2-4.9-0.2s-3.3,0.1-4.9,0.2l-1.2,0.1l-1.2,0.2l-0.6,0.1l-0.6,0.1l-1.2,0.3l1.2-0.2l0.6-0.1
		l0.6-0.1l1.2-0.1l1.2-0.1c0.4,0,0.7-0.1,1.2-0.1c0.4,0,0.7,0,1.2-0.1h1.2c0.4,0,0.7,0,1.2,0c1.6,0,3.3,0.1,4.9,0.3
		c1.6,0.2,3.3,0.4,4.8,0.8l1.5,0.3l-1.3-0.7c-2.1-1.2-4.3-2.4-6.4-3.4c-2.2-1.1-4.3-2.1-6.5-3.1s-4.5-1.9-6.7-2.9
		c-1.2-0.4-2.2-0.9-3.4-1.2C175.5,414.8,174.5,414.5,173.3,414.1z"/>
	<path class="st29" d="M237.8,413.2c-1.2,0.3-2.4,0.8-3.4,1.1c-1.2,0.4-2.2,0.8-3.4,1.2c-2.2,0.9-4.5,1.9-6.7,2.9s-4.5,2.1-6.5,3.1
		c-2.2,1.1-4.3,2.2-6.4,3.4l-1.3,0.7l1.5-0.3c1.6-0.3,3.1-0.6,4.8-0.8c1.6-0.2,3.3-0.3,4.9-0.3c0.4,0,0.7,0,1.2,0h1.2
		c0.4,0,0.7,0,1.2,0.1c0.4,0,0.7,0,1.2,0.1l1.2,0.1l1.2,0.1l0.6,0.1l0.6,0.1l1.2,0.2l-1.2-0.3l-0.7,0.1l-0.6-0.1l-1.2-0.2l-1.2-0.1
		c-1.6-0.2-3.3-0.2-4.9-0.2s-3.3,0.1-4.9,0.2s-3.3,0.3-4.9,0.7l0.1,0.4c2.1-1.1,4.3-2.2,6.4-3.4c2.2-1.1,4.3-2.1,6.5-3.2
		c2.2-1,4.5-2,6.7-3C233.2,414.9,235.5,414,237.8,413.2z"/>
	<path class="st29" d="M232.9,386.8c-1.9,0.3-4,0.7-6,0.9c-2.1,0.2-4,0.4-6.1,0.7c-4,0.3-8,0.7-12.2,0.7c-2.1,0-4,0-6.1,0
		c-2.1-0.1-4-0.1-6.1-0.3c-2.1-0.2-4-0.4-6.1-0.7c-1.9-0.3-4-0.7-6-1.2c1.9,0.6,3.9,1,6,1.3c1.9,0.3,4,0.6,6.1,0.8
		c2.1,0.2,4,0.3,6.1,0.3s4,0.1,6.1,0c4-0.1,8.2-0.3,12.2-0.8c2.1-0.2,4-0.4,6.1-0.8C228.9,387.6,231,387.3,232.9,386.8z"/>
	<path class="st27" d="M193.5,228c0,0-6,12.9-4.9,19.8c0,0-4.3-5.7-9.8-5c0,0-3.7-11.4-1.5-19.1l12.6,0.7L193.5,228z"/>
	<path class="st22" d="M305.8,313.6L305.8,313.6c1.3,0.1,2.5-0.8,2.6-1.9l2.4-13.3c0.1-0.7-0.1-1.3-0.7-1.7
		c-1.8-1.2-5.5-3.6-6.2-3.2c-1,0.6,4.5,4.8,4,5c-0.4,0.2-6.5-1.7-6.7-1c-0.1,0.7,5.7,3.4,5.7,3.8s-6-0.6-6.2,0.1
		c-0.3,0.6,5.5,2.5,5.7,2.7L305.8,313.6z"/>
	<path class="st22" d="M290.4,294.8c0,0,5.4-0.9,5.8,0c0.3,0.9-4.3,0.4-5.2,2.9C289.9,300,290.4,294.8,290.4,294.8z"/>
	<path class="st22" d="M307.6,304.1c0,0-6,0.6-6.2,1.3c-0.4,0.8,5.8,0.9,5.8,0.9L307.6,304.1z"/>
	<path class="st30" d="M188.2,392.7c-0.1,0.2-0.1,0.4-0.3,0.7l-0.3,0.7l-0.7,1.3l-1.2,2.1l-3.4,5.7c-0.4,0.9-4.9,8.4-6,10.1
		c1.3-1.6,2.8-3,3.9-4.7c0.6-0.8,1-1.7,1.5-2.6s1-1.7,1.5-2.6c0.9-1.8,1.8-3.5,2.7-5.3c0.4-0.9,0.9-1.8,1.2-2.7
		c0.1-0.4,0.4-0.9,0.6-1.3C187.9,393.8,188.2,393.3,188.2,392.7z"/>
	<polygon class="st23" points="222.5,277.1 213.4,273.4 209.3,277.1 197.1,272.1 190.5,274.7 202.6,283.6 209.3,277.8 213.7,283.1 	
		"/>
	<path class="st23" d="M193.7,277c1,0.8,2.1,1.5,3.1,2.2l3,2.2l2.8,2.1c1-1,2.1-2,3.1-3c1-1.1,2.2-2.1,3.4-3.2l0.3-0.2l0.3,0.3
		c0.7,0.9,1.5,1.9,2.2,2.8s1.3,1.7,2.1,2.6c1.3-0.9,2.8-1.9,4.2-2.8l2.2-1.5c0.7-0.4,1.5-1,2.2-1.5c-0.7,0.6-1.5,1.1-2.1,1.6
		l-2.1,1.6c-1.5,1-2.8,2.1-4.3,3.1l-0.1,0.1l-0.1-0.2c-0.7-0.9-1.5-1.8-2.2-2.8c-0.6-0.8-1.3-1.7-1.9-2.5c-1,1-2.1,2-3.1,2.9
		c-1.2,1.1-2.2,2.1-3.4,3.2l-0.3,0.2l-0.3-0.2l-3-2.4l-3-2.4c-1-0.8-1.9-1.6-3-2.4c-1-0.8-1.9-1.6-2.8-2.5
		C191.6,275.4,192.6,276.2,193.7,277z"/>
	<path class="st23" d="M209.6,277.3c0.3,4.4,0.7,8.6,1,13s0.6,8.6,0.7,13c0.1,2.1,0.1,4.4,0.3,6.5l0.1,3.2l0.1,3.2
		c0.1,4.4,0.3,8.6,0.3,13c0.1,8.6,0.1,17.4-0.1,26c-0.1,4.4-0.3,8.6-0.6,13l-0.1,3.2c0,0.6,0,1.1-0.1,1.6l-0.1,1.6
		c-0.1,2.1-0.4,4.4-0.6,6.5c0.6-4.3,1-8.6,1.5-13c0.4-4.4,0.6-8.6,0.9-13c0.1-2.1,0.1-4.4,0.1-6.5c0-1.1,0-2.1,0-3.2v-3.2V339v-1.7
		v-1.8V329c-0.1-4.4-0.3-8.6-0.4-13l-0.1-3.2l-0.1-3.2c-0.1-2.1-0.3-4.4-0.4-6.5c-0.3-4.4-0.6-8.6-1-13l-0.3-3.2l-0.3-3.2
		C210,281.7,209.9,279.6,209.6,277.3z"/>
	<path class="st23" d="M204.8,307h-15.6l0.6,11.2c0.1,2.2,1.3,4.1,3.3,5.4l0.7,0.4c2.5,1.6,6,1.5,8.3-0.3l0,0
		c1.8-1.3,2.8-3.4,2.8-5.5L204.8,307L204.8,307z"/>
</g>
<path class="st2" d="M22.4,477.3c0,17.6,18.7,45.7,41.7,45.7s41.7-28.1,41.7-45.7s-18.7-31.9-41.7-31.9
	C41,445.4,22.4,459.7,22.4,477.3z"/>
<path class="st5" d="M62.5,524.1c5.2,1.4,6.5,6.8,4.7,10.8s-5.6,7.3-7.5,11.3c-0.9,2-1.5,4.1-1.9,6.2c-1.1,5-2.2,10.1-1.4,15.1
	c0.8,4.8,3.3,9.2,6.1,13.5c5.4,8.3,12.1,16.1,19.7,23.3"/>
<path class="st6" d="M60,526c2.7-1.3,5.4-1.3,8,0v-6.1h-8V526z"/>
<path class="st5" d="M68,522.8c-2.5,1-5.5,1-8,0"/>
<ellipse class="st7" cx="46.7" cy="463.8" rx="8.8" ry="8.1"/>
</svg>
