<?xml version="1.0" encoding="utf-8"?>
<!-- Generator: Adobe Illustrator 24.0.2, SVG Export Plug-In . SVG Version: 6.00 Build 0)  -->
<svg version="1.1" id="e6a8cd33-67c2-415a-8c26-3ee9526a2914"
	 xmlns="http://www.w3.org/2000/svg" xmlns:xlink="http://www.w3.org/1999/xlink" x="0px" y="0px" viewBox="0 0 769.9 727.8"
	 style="enable-background:new 0 0 769.9 727.8;" xml:space="preserve">
<style type="text/css">
	.st0{opacity:0.17;}
	.st1{fill:#3F3D56;}
	.st2{fill:#9ED16F;}
	.st3{opacity:0.1;enable-background:new    ;}
	.st4{fill:#A0616A;}
	.st5{fill:#2F2E41;}
	.st6{fill:#FFFFFF;}
	.st7{fill:#E6E6E6;}
	.st8{fill:#62BDF3;stroke:#343433;stroke-miterlimit:10;}
	.st9{fill:#1D509F;stroke:#343433;stroke-miterlimit:10;}
	.st10{fill:#62BDF3;}
	.st11{opacity:0.3;fill:#62BDF3;}
	.st12{fill:#7772D6;}
	.st13{fill:#E1F9FF;}
	.st14{fill:#3797DB;}
	.st15{opacity:0.3;fill:#DAEEF7;}
	.st16{fill:none;stroke:#3F3D56;stroke-width:4;stroke-miterlimit:10;}
</style>
<g class="st0">
	<ellipse class="st1" cx="674.5" cy="677" rx="22.1" ry="28.9"/>
	<path class="st1" d="M691.9,553.3c3.1-5.4,4.7-11.5,4.7-17.7c0-16-9.9-28.9-22.1-28.9s-22.1,12.9-22.1,28.9
		c-0.1,6.2,1.5,12.3,4.6,17.7c-6.1,11-6.1,24.4,0,35.3c-6.1,11-6.1,24.4,0,35.3c-3.1,5.4-4.7,11.5-4.6,17.7c0,16,9.9,28.9,22.1,28.9
		s22.1-12.9,22.1-28.9c0.1-6.2-1.5-12.3-4.6-17.7c6.1-11,6.1-24.4,0-35.3C698.1,577.7,698.1,564.3,691.9,553.3L691.9,553.3z"/>
	<ellipse class="st1" cx="674.5" cy="500.3" rx="22.1" ry="28.9"/>
	<ellipse class="st1" cx="674.5" cy="465" rx="22.1" ry="28.9"/>
	<path class="st2" d="M757.1,223.1c3-3.8,5.8-7.9,8.2-12.1l-58-9.5l62.8,0.5c12.2-26.5,12.9-56.8,2-83.8l-84.2,43.7l77.7-57.1
		C736.3,54.2,671.6,37,621,66.3c-50.6,29.3-67.8,94-38.5,144.6c2.5,4.3,5.3,8.4,8.3,12.3c-4.7,6-8.7,12.4-12.1,19.3l75.3,39.1
		l-80.3-27c-11.5,33.9-5.1,71.2,17,99.3c-36.1,45.9-28.2,112.4,17.7,148.6c45.9,36.1,112.4,28.2,148.6-17.7
		c30.2-38.4,30.2-92.4,0-130.8C787.3,315.5,787.3,261.5,757.1,223.1L757.1,223.1z"/>
	<path class="st3" d="M568.2,288.6c0,23.7,7.9,46.8,22.6,65.4c-36.1,45.9-28.2,112.4,17.7,148.6c45.9,36.1,112.4,28.2,148.6-17.7
		c30.2-38.4,30.2-92.4,0-130.8C771.3,336,568.2,276.7,568.2,288.6z"/>
</g>
<rect x="252.8" y="702.5" class="st1" width="465" height="2.1"/>
<path class="st4" d="M631,348.5c3.5,4.3,3,10.8-1.1,14.4c-0.3,0.2-0.5,0.4-0.8,0.6L581,397.9l-21.2,14.7c-2.5,1.7-5.8,1.2-7.7-1.2
	l0,0c-2-2.6-1.7-6.4,0.8-8.5c0.2-0.2,0.5-0.4,0.8-0.5l20.5-12.4l35.8-35.4l-23-25.7l17.1-13.3L631,348.5z"/>
<polygon class="st4" points="517.9,671.4 506.1,671.4 499.1,570.5 529,569.6 "/>
<path class="st5" d="M518.7,704.1c-3.1,1.5-5.8-10.6-8.4-7.9c-7.4,7.6-18.7,9.2-28.6,5.9l3.5,0c-2.4-0.8-3.8-3.5-3-6
	c0-0.1,0-0.1,0.1-0.2l0,0c0.5-1.5,1.7-2.6,3.2-3l7.9-2l12.4-22.6l12.6-0.9l0,0c5.7,7.5,7.8,17.4,5.6,26.7
	C522.7,699,521,703.1,518.7,704.1z"/>
<polygon class="st4" points="596.2,671.4 584.5,671.4 577.5,570.5 608.2,564.3 "/>
<path class="st5" d="M597.1,704.1c-3.1,1.5-5.8-10.6-8.4-7.9c-7.4,7.6-18.7,9.2-28.6,5.9l3.5,0c-2.4-0.8-3.8-3.5-3-6
	c0-0.1,0-0.1,0.1-0.2l0,0c0.5-1.5,1.7-2.6,3.2-3l7.9-2l12.4-22.6l13.5-1.8l0.3,0.6c5.3,8.8,6.6,19.6,3.7,29.5
	C600.5,700.3,598.9,703.3,597.1,704.1z"/>
<path class="st2" d="M609.6,317.8c-10.8,1.6-18.3,7.7-21.4,20l-19.9-38.1c-2.4-5-1-11.1,3.5-14.3l0,0c4.7-3.4,11.2-2.4,14.8,2.2
	L609.6,317.8z"/>
<path class="st5" d="M630.4,559.8c-48.4,22.2-97.9,25-148.4,10.6c18.4-74.2,40.2-141.4,40.1-196.5l49.5-4.4l7.6,12.5
	c18.1,29.7,30.5,62.8,36.8,97.3L630.4,559.8z"/>
<ellipse class="st4" cx="549.4" cy="233.2" rx="25.6" ry="26.6"/>
<polygon class="st4" points="577.6,280.1 546,281.9 540.9,252.7 566.5,248.2 "/>
<path class="st2" d="M574.2,374l-34.6,1l-17.5,2.5c-8.6-29.4-15.8-58.7,1.7-83.2l20.5-21.2l30.7-0.9l0.4,0.2
	c10,6,14.7,18.4,11.3,29.9C579.1,327.9,574.2,352.2,574.2,374z"/>
<path class="st4" d="M521.3,456.3l-2.1,30.4c-0.2,3.4-2.8,6-6.1,6.3l0,0c-3.6,0.2-6.7-2.6-6.9-6.3c0-0.2,0-0.4,0-0.6l0.7-29.8
	l21.3-84.1l0.9-51.3l23.9-0.9l-1.7,59.3L521.3,456.3z"/>
<path class="st2" d="M555.4,324.4c-10.1-4.3-19.6-2.8-28.1,6.2l1.2-43.4c0.3-5.6,4.5-10.1,9.9-10.6l0,0c5.7-0.5,10.9,3.7,11.7,9.6
	L555.4,324.4z"/>
<path class="st5" d="M603.6,351.4h-78.5c18.3-50.3,24.2-97.1,0-137.2c0.4-12,15.3-22.5,26.9-21.3l0,0c13.6,1.4,32,11.8,34.5,25.8
	L603.6,351.4z"/>
<path class="st1" d="M353.5,190.6H350V88.9c0-32.5-25.4-58.9-56.7-58.9c0,0,0,0,0,0H85.5c-31.3,0-56.7,26.4-56.7,58.9c0,0,0,0,0,0
	v558.3c0,32.5,25.4,58.9,56.7,58.9c0,0,0,0,0,0h207.7c31.3,0,56.7-26.4,56.7-58.9c0,0,0,0,0,0V263.1h3.6V190.6z"/>
<path class="st6" d="M295.5,45.3h-27.1c4.2,10.7-0.7,22.9-11,27.2c-2.4,1-5,1.5-7.6,1.5h-119c-11.1,0-20.1-9.4-20.1-20.9
	c0-2.7,0.5-5.4,1.5-7.9H86.8c-23.4,0-42.4,19.7-42.4,44v557.5c0,24.3,19,44,42.4,44c0,0,0,0,0,0h208.7c23.4,0,42.4-19.7,42.4-44l0,0
	V89.3C337.9,65,318.9,45.3,295.5,45.3z"/>
<rect x="81.1" y="121.4" class="st7" width="220.2" height="196"/>
<ellipse class="st2" cx="146.4" cy="342.5" rx="16.1" ry="16.7"/>
<polygon class="st6" points="154.5,340.1 147.8,340.1 147.8,333.2 145.1,333.2 145.1,340.1 138.4,340.1 138.4,342.9 145.1,342.9 
	145.1,349.9 147.8,349.9 147.8,342.9 154.5,342.9 "/>
<ellipse class="st2" cx="231.4" cy="340.5" rx="16.1" ry="16.7"/>
<rect x="223.4" y="337.1" class="st6" width="16.1" height="2.8"/>
<rect x="81.1" y="387.5" class="st7" width="220.2" height="216.8"/>
<ellipse class="st2" cx="146.4" cy="628.4" rx="16.1" ry="16.7"/>
<polygon class="st6" points="154.5,627 147.8,627 147.8,620.1 145.1,620.1 145.1,627 138.4,627 138.4,629.8 145.1,629.8 
	145.1,636.8 147.8,636.8 147.8,629.8 154.5,629.8 "/>
<ellipse class="st2" cx="231.4" cy="628.4" rx="16.1" ry="16.7"/>
<rect x="223.4" y="627" class="st6" width="16.1" height="2.8"/>
<g>
	<path class="st8" d="M245.8,266.5L245.8,266.5c0,4.5-3.5,8.2-8.1,8.8v16.1c0,5.4-4.6,9.7-10.3,9.7h-72.6c-5.7,0-10.3-4.3-10.3-9.7
		v-16.1c-4.3-0.7-7.9-4.3-7.9-8.8l0,0c0-4.3,3.5-8,7.9-8.8v-59.1c-4.3-0.7-7.9-4.3-7.9-8.8l0,0c0-4.3,3.5-8,7.9-8.8v-6
		c0-5.4,4.6-9.7,10.3-9.7h17.3c2.2,0,4.1-1.7,4.1-3.7v-3.9h29.5v3.9c0,2.1,1.9,3.7,4.1,3.7h17.6c5.7,0,10.3,4.3,10.3,9.7v6
		c4.6,0.6,8.1,4.3,8.1,8.8l0,0c0,4.5-3.5,8.2-8.1,8.8v58.9C242.2,258.3,245.8,262,245.8,266.5z"/>
	<g>
		<polygon class="st8" points="144.2,257.7 207.8,257.2 144.2,256.4 		"/>
	</g>
	<g>
		<polygon class="st8" points="237.4,276.8 174,276 237.4,275.3 		"/>
	</g>
	<g>
		<polygon class="st8" points="144.2,181.5 207.8,180.9 144.2,180.2 		"/>
	</g>
	<g>
		<polygon class="st8" points="237.4,200.5 174,199.8 237.4,199 		"/>
	</g>
	<path class="st9" d="M209.7,142.2h-37.4c-3.3,0-6,2.4-6,5.6v7.1c0,3.2,2.7,5.6,6,5.6h37.4c3.3,0,6-2.4,6-5.6v-7.1
		C215.7,144.7,213,142.2,209.7,142.2z"/>
</g>
<g>
	<path class="st10" d="M157.4,410.5L157.4,410.5c0-2.7,2.3-5,5.3-5.3v-6.9c0-4.9,4.4-8.8,9.9-8.8h40c5.5,0,9.9,3.9,9.9,8.8v6.9
		c2.9,0.4,5,2.7,5,5.3l0,0c0,2.7-2.2,4.9-5,5.3v36c2.9,0.4,5,2.7,5,5.3l0,0c0,2.7-2.2,4.9-5,5.3v0.8c0,4.9-4.4,8.8-9.9,8.8h-7.9
		c-1.4,0-2.6,1-2.6,2.3v2.5h-19v-2.5c0-1.3-1.2-2.3-2.6-2.3h-7.9c-5.5,0-9.9-3.9-9.9-8.8v-0.8c-3-0.4-5.3-2.6-5.3-5.3l0,0
		c0-2.7,2.3-5,5.3-5.3v-35.9C159.6,415.5,157.4,413.2,157.4,410.5z"/>
	<g>
		<polygon class="st10" points="222.4,415.8 181.7,416.3 222.4,416.7 		"/>
	</g>
	<g>
		<polygon class="st10" points="162.6,404.3 203.3,404.7 162.6,405.2 		"/>
	</g>
	<g>
		<polygon class="st10" points="222.4,462.4 181.7,462.9 222.4,463.3 		"/>
	</g>
	<g>
		<polygon class="st10" points="162.6,450.8 203.3,451.3 162.6,451.8 		"/>
	</g>
	<path class="st11" d="M157.4,410.5L157.4,410.5c0-2.7,2.3-5,5.3-5.3v-6.9c0-4.9,4.4-8.8,9.9-8.8h7.1c3.2,24.8,11.9,62.4,35.3,82.2
		c-0.8,0.2-1.6,0.3-2.4,0.3h-7.9c-1.4,0-2.6,1-2.6,2.3v2.5h-19v-2.5c0-1.3-1.2-2.3-2.6-2.3h-7.9c-5.5,0-9.9-3.9-9.9-8.8v-0.8
		c-3-0.4-5.3-2.6-5.3-5.3l0,0c0-2.7,2.3-5,5.3-5.3v-35.9C159.6,415.5,157.4,413.2,157.4,410.5z"/>
	<path class="st10" d="M162.6,432.2c0,0.9,13.4,1.6,29.9,1.6s29.9-0.7,29.9-1.6c0-0.9-13.4-1.6-29.9-1.6S162.6,431.3,162.6,432.2z"
		/>
	<path class="st11" d="M162.6,451.8v-19.6c0.1,0.9,13.4,1.6,29.9,1.6c16.5,0,29.9-0.7,29.9-1.6v19.6c2.9,0.4,5,2.7,5,5.3
		c0,2.7-2.2,4.9-5,5.3v0.8c0,4.9-4.4,8.8-9.9,8.8h-7.9c-1.4,0-2.6,1-2.6,2.3v2.5h-19v-2.5c0-1.3-1.2-2.3-2.6-2.3h-7.9
		c-5.5,0-9.9-3.9-9.9-8.8v-0.8c-3-0.4-5.3-2.6-5.3-5.3C157.4,454.4,159.6,452.1,162.6,451.8z"/>
	<path class="st12" d="M181.5,486.5h21.9c2.7,0,4.8-2.2,4.8-4.8v-1.6c0-2.7-2.2-4.8-4.8-4.8h-21.9c-2.7,0-4.8,2.2-4.8,4.8v1.6
		C176.7,484.3,178.8,486.5,181.5,486.5z"/>
	<path class="st13" d="M189.5,600.3h5.7c17.1,0,30.9-13.8,30.9-30.9v-57.8c0-17.1-13.8-30.9-30.9-30.9h-5.7
		c-17.1,0-30.9,13.8-30.9,30.9v57.8C158.6,586.5,172.5,600.3,189.5,600.3z"/>
	<path class="st12" d="M172,534.2h40.7v-19c0-10.8-8.8-19.6-19.6-19.6h-1.6c-10.8,0-19.6,8.8-19.6,19.6V534.2z"/>
	<path class="st13" d="M175.5,534.2h33.9v-19.5c0-9-7.3-16.3-16.3-16.3h-1.3c-9,0-16.3,7.3-16.3,16.3V534.2z"/>
	<path class="st12" d="M168.4,536.8h47.3c0.6,0,1.1-0.5,1.1-1.1v-0.4c0-0.6-0.5-1.1-1.1-1.1h-47.3c-0.6,0-1.1,0.5-1.1,1.1v0.4
		C167.4,536.3,167.8,536.8,168.4,536.8z"/>
	<g>
		<path class="st12" d="M162,590.8V490.2c0-3.8,3.5-6.9,7.8-6.9H215c4.3,0,7.8,3.1,7.8,6.9v100.6c0,3.8-3.5,6.9-7.8,6.9h-45.2
			C165.5,597.8,162,594.6,162,590.8z M169.8,483.7c-4,0-7.3,2.9-7.3,6.5v100.6c0,3.6,3.3,6.5,7.3,6.5H215c4,0,7.3-2.9,7.3-6.5V490.2
			c0-3.6-3.3-6.5-7.3-6.5H169.8z"/>
	</g>
	<path class="st12" d="M216,592.1c-0.2,0.9,0.7,1.6,1.6,1.5c0.6-0.1,1-0.5,1.1-1c0.2-0.9-0.7-1.6-1.6-1.5
		C216.6,591.2,216.1,591.6,216,592.1z"/>
	<path class="st12" d="M166.5,592.1c-0.2,0.9,0.7,1.6,1.6,1.5c0.6-0.1,1-0.5,1.1-1c0.2-0.9-0.7-1.6-1.6-1.5
		C167,591.2,166.6,591.6,166.5,592.1z"/>
	<path class="st12" d="M216,488.9c-0.2,0.9,0.7,1.6,1.6,1.5c0.6-0.1,1-0.5,1.1-1c0.2-0.9-0.7-1.6-1.6-1.5
		C216.6,488,216.1,488.4,216,488.9z"/>
	<g>
		<path class="st12" d="M171.7,579.1v-10.7c0-1.9,1.7-3.5,3.9-3.5h33.6c2.1,0,3.9,1.5,3.9,3.5v10.7c0,1.9-1.7,3.5-3.9,3.5h-33.6
			C173.5,582.5,171.7,581,171.7,579.1z M175.6,565.6c-1.8,0-3.2,1.3-3.2,2.8v10.7c0,1.6,1.4,2.8,3.2,2.8h33.6c1.8,0,3.2-1.3,3.2-2.8
			v-10.7c0-1.6-1.4-2.8-3.2-2.8H175.6z"/>
	</g>
	<g>
		<g>
			<path class="st6" d="M199.9,515.3h0.3l-0.8-6.2c-0.1-0.4,0.3-0.8,0.8-0.8h0.6h1.5h0.6c0.5,0,0.8,0.4,0.8,0.8l-0.8,6.2h0.3
				c0.3,0,0.6,0.2,0.6,0.5v1.7c0,0.3-0.3,0.5-0.6,0.5h-3.3c-0.3,0-0.6-0.2-0.6-0.5v-1.7C199.3,515.6,199.5,515.3,199.9,515.3z"/>
			<path class="st2" d="M199.2,517.3h4.6c0.2,0,0.4-0.2,0.4-0.4v-0.2c0-0.2-0.2-0.4-0.4-0.4h-4.6c-0.2,0-0.4,0.2-0.4,0.4v0.1
				C198.7,517.1,198.9,517.3,199.2,517.3z"/>
		</g>
		<path class="st6" d="M181.6,515.3h0.3l-0.8-6.2c-0.1-0.4,0.3-0.8,0.8-0.8h0.6h1.5h0.6c0.5,0,0.8,0.4,0.8,0.8l-0.8,6.2h0.3
			c0.3,0,0.6,0.2,0.6,0.5v1.7c0,0.3-0.3,0.5-0.6,0.5h-3.3c-0.3,0-0.6-0.2-0.6-0.5v-1.7C181.1,515.6,181.3,515.3,181.6,515.3z"/>
		<path class="st14" d="M181,517.3h4.6c0.2,0,0.4-0.2,0.4-0.4v-0.2c0-0.2-0.2-0.4-0.4-0.4H181c-0.2,0-0.4,0.2-0.4,0.4v0.1
			C180.5,517.1,180.7,517.3,181,517.3z"/>
	</g>
	<g>
		<polygon class="st2" points="181.9,521.5 184.8,521.5 188.9,521.5 186.5,534.3 184.8,534.3 181.9,534.3 180.1,534.3 177.7,521.5 
					"/>
		<path class="st10" d="M177.4,522.7h11.8c0.3,0,0.6-0.3,0.6-0.6v-0.2c0-0.3-0.3-0.6-0.6-0.6h-11.8c-0.3,0-0.6,0.3-0.6,0.6v0.2
			C176.8,522.4,177.1,522.7,177.4,522.7z"/>
		<path class="st15" d="M187,524.7c0.5,0,0.9,0.1,1.3,0.2l-1.5,7.7c-2.4-0.1-4.3-1.8-4.3-3.9C182.5,526.5,184.5,524.7,187,524.7z"/>
	</g>
</g>
<g>
	<path class="st16" d="M361.8,702.5c4.1-7.6-0.6-17-5.9-23.8s-11.9-13.9-11.8-22.6c0.2-12.5,13.4-19.8,24-26.5
		c7.9-4.9,15.1-10.7,21.6-17.3c2.7-2.5,5-5.6,6.6-8.9c2.2-4.9,2.1-10.4,2-15.8c-0.5-17.8-1.3-35.6-2.6-53.4"/>
	<path class="st2" d="M415.7,533.3c-0.3-6.6-4-12.6-9.7-15.9l-4.4,8.6l0.1-10.4c-2.1-0.6-4.2-0.9-6.4-0.8
		c-10.7,0.5-19,9.6-18.5,20.3c0.5,10.7,9.6,19,20.3,18.5C407.9,553.2,416.2,544,415.7,533.3z"/>
	<path class="st2" d="M381,665.1c-4.9,9.6-16.6,13.3-26.2,8.4c-9.6-4.9-13.3-16.6-8.4-26.2c4.9-9.6,16.6-13.3,26.2-8.4
		c4.3,2.2,7.6,6,9.3,10.5l-12.2,9.9l13.4-3.1C383.2,659.3,382.4,662.3,381,665.1z"/>
	<path class="st2" d="M371.4,627.2c-10.7,0.5-19.8-7.8-20.3-18.5c0,0,0,0,0,0c-0.2-3,0.4-6.1,1.7-8.9c2.4-5.3,6.9-9.2,12.5-10.8
		l-0.1,8l4.4-8.7l0,0c10.7-0.5,19.8,7.8,20.4,18.5C390.3,617.6,382,626.7,371.4,627.2L371.4,627.2z"/>
	<path class="st2" d="M418.6,595.8c-10.7,0.7-20-7.4-20.7-18.1c-0.7-10.7,7.4-20,18.1-20.7c0.3,0,0.5,0,0.8,0
		c3.6-0.2,7.2,0.7,10.4,2.5l-3.4,9.4l7.1-6.8c3.8,3.5,6.1,8.3,6.3,13.4c0.1,1.8-0.1,3.6-0.5,5.4
		C434.7,589.3,427.3,595.4,418.6,595.8z"/>
	<path class="st3" d="M413.1,538.5c-4.5,0.5-8.9,1.9-13.4,2.2c-4.5,0.3-9.5-0.8-12.3-4.3c-1.5-1.9-2.3-4.3-3.6-6.3
		c-1.2-1.9-2.9-3.5-4.9-4.6c-4.9,9.6-1,21.3,8.6,26.2c9.6,4.9,21.3,1,26.2-8.6c0.7-1.5,1.3-3.1,1.7-4.7
		C414.6,538.4,413.8,538.4,413.1,538.5z"/>
	<path class="st3" d="M418.6,595.8c-10.7,0.5-19.9-7.8-20.3-18.6c-0.1-3.2,0.5-6.3,1.8-9.2c1.5,1,2.9,2.4,3.9,3.9
		c1.4,2.1,2.2,4.5,3.9,6.4c3,3.6,8.2,4.7,12.9,4.5s9.2-1.5,13.9-2c0.7-0.1,1.3-0.1,2-0.1C434.7,589.3,427.3,595.4,418.6,595.8z"/>
	<path class="st3" d="M371.4,627.2c-10.7,0.5-19.8-7.8-20.3-18.5c0,0,0,0,0,0c-0.2-3,0.4-6.1,1.7-8.9c1.6,1.1,3,2.4,4.1,4
		c1.5,2.1,2.5,4.6,4.2,6.6c3.3,3.7,8.8,4.9,13.8,4.8c4.8-0.1,9.5-1.3,14.3-1.7C386.7,621.4,379.6,626.9,371.4,627.2z"/>
	<path class="st3" d="M381,665.1c-4.9,9.6-16.6,13.4-26.2,8.5c-8.9-4.5-12.9-15.1-9.3-24.4c1.6,1.1,3,2.3,4.3,3.8
		c1.9,2.3,3.1,4.8,5.2,6.9c4,3.9,10.4,5.5,16.1,5.7C374.4,665.6,377.7,665.4,381,665.1z"/>
</g>
</svg>
