<?xml version="1.0" encoding="utf-8"?>
<!-- Generator: Adobe Illustrator 24.0.2, SVG Export Plug-In . SVG Version: 6.00 Build 0)  -->
<svg version="1.1" id="aba92bf9-15c7-4666-a277-8a6e60b3ba94"
	 xmlns="http://www.w3.org/2000/svg" xmlns:xlink="http://www.w3.org/1999/xlink" x="0px" y="0px" viewBox="0 0 677.9 623.7"
	 style="enable-background:new 0 0 677.9 623.7;" xml:space="preserve">
<style type="text/css">
	.st0{fill:#E6E6E6;}
	.st1{fill:#FFC0BB;}
	.st2{opacity:0.6;fill:#FC8D84;enable-background:new    ;}
	.st3{fill:#F46C0F;}
	.st4{fill:#F99893;}
	.st5{fill:#333333;}
	.st6{fill:#FFFFFF;}
	.st7{fill:#06BFAD;}
	.st8{fill:#3797DB;}
	.st9{fill:#EFAC7F;}
	.st10{fill:#62BDF3;}
	.st11{opacity:0.6;fill:#D19369;enable-background:new    ;}
	.st12{fill:#5E2E0D;}
	.st13{fill:#D19369;}
	.st14{fill:#3F3D56;}
	.st15{fill:#CCCCCC;}
	.st16{fill:#9ED16F;}
	.st17{fill:#3F3D56;stroke:#3F3D56;stroke-width:2;stroke-miterlimit:10;}
</style>
<path class="st0" d="M51.5,211.8l-2,0c0-2,0.1-4,0.2-6l2,0.1C51.6,207.9,51.5,209.9,51.5,211.8z"/>
<path class="st0" d="M648.7,441.6l-1.8-0.9c0.9-1.8,1.7-3.6,2.5-5.4l1.8,0.8C650.4,437.9,649.6,439.8,648.7,441.6z"/>
<polygon class="st0" points="643.1,431.7 645,431.1 648.1,440.4 657.2,436.7 657.9,438.5 646.8,443.1 "/>
<g>
	<g>
		<polygon class="st1" points="331.4,106 334.2,123.1 311.6,122.6 312.3,102.9 		"/>
		<path class="st2" d="M312,112l0.3-9l19.4,4.7l0.5,3.4C327.9,112.2,319.7,113.7,312,112z"/>
		<polygon class="st3" points="294.1,73.8 294.6,85.7 297.3,86.7 299.6,71.9 		"/>
		<path class="st4" d="M299.1,84.1c1.1,2.6-0.3,5.3-3,5.9c-2.8,0.7-5.9-0.9-7-3.5c-1.1-2.6,0.3-5.3,3-5.9
			C294.9,79.9,298,81.5,299.1,84.1z"/>
		<path class="st1" d="M298.5,98.9c-0.7-1.1-1.3-2.3-1.8-3.6c-1.3-3.3-1.7-6.8-1.8-9.9c0-0.6-0.1-1.3-0.2-1.9
			c-0.3-2.6,0-5.3,1.1-8.1c3.6-8.9,14.6-15.1,27-15.1c16.6,0.1,29.2,10.7,28,22.8c1.8-0.6,3.8-0.7,5.5,0c3.2,1.3,4,4.8,1.8,7.9
			c-2.2,3-6.6,4.4-9.8,3.1c-0.4-0.2-0.8-0.4-1.2-0.7c-2.5,10.2-14.6,17.5-28,16.6c-6.6-0.5-12.4-2.9-16.5-6.4
			c-0.3-0.2-0.6-0.4-0.9-0.7C300.5,101.7,299.4,100.4,298.5,98.9z"/>
		<path class="st5" d="M325.4,83.5c-0.1,1,0.9,1.9,2.2,2c1.4,0.1,2.6-0.6,2.7-1.7c0.1-1-0.9-1.9-2.2-2
			C326.8,81.8,325.6,82.5,325.4,83.5z"/>
		<path class="st5" d="M304.4,83c-0.1,1,0.9,1.9,2.2,2c1.4,0.1,2.6-0.6,2.7-1.7s-0.9-1.9-2.2-2C305.7,81.3,304.5,82,304.4,83z"/>
		<path class="st3" d="M323,79.6c1.2-0.3,2.4-0.5,3.6-0.6c1.2-0.1,2.3-0.1,3.4,0s2.2,0.3,3.3,0.7l0.4,0.1c0.1,0,0.3,0.1,0.4,0.2
			l0.8,0.3c0.5,0.2,1.1,0.5,1.6,0.7c-0.3-0.4-0.7-0.9-1.1-1.2c-0.4-0.3-0.9-0.7-1.5-1c-1.1-0.6-2.4-1-3.7-1.2s-2.8,0-4,0.3
			C325,78.4,323.8,78.9,323,79.6z"/>
		<path class="st3" d="M313.1,79.3c-0.7-0.8-1.8-1.4-3-1.8c-1.2-0.4-2.6-0.6-4-0.6s-2.7,0.3-3.9,0.9c-0.6,0.2-1.1,0.6-1.6,0.9
			c-0.4,0.3-0.8,0.7-1.2,1.2c0.6-0.2,1.1-0.4,1.7-0.6l0.8-0.3c0.1,0,0.3-0.1,0.4-0.1l0.4-0.1c1.1-0.3,2.2-0.4,3.3-0.5
			c1.1,0,2.3,0,3.4,0.2C310.7,78.7,311.9,79,313.1,79.3z"/>
		<path class="st3" d="M293,59.6c0,0-8.4-0.4,1.1-5.1c9.5-4.7,34-9,48.3-1.8c0,0,3.7-4.6,7.9-3.1c4.2,1.5-3.5,4.3-3.5,4.3
			s5.6,0.3,7,2.5c1.1,1.6-2.4,1.4-4.2,1.2c3.1,0.6,12.8,6.1,4.2,24.1c-2.1-0.5-17.3-13.3-17.3-13.3s-25.1,8.8-21.2,3
			c0,0-29.5,8.5-23.8-2.6C291.5,68.8,280.1,68.5,293,59.6z"/>
		<path class="st6" d="M343.2,135.8c1.1,1.5,2.2,3,3.3,4.6l3.3,4.5c1.1,1.5,2.2,3,3.4,4.5c1.1,1.5,2.3,3,3.4,4.5
			c1.1,1.5,2.3,3,3.5,4.5c0.6,0.7,1.1,1.5,1.8,2.2l1.8,2.2l1.8,2.2c0.3,0.4,0.6,0.7,0.9,1.1l0.9,1.1l0.9,1.1l0.5,0.5l0.5,0.5
			c0.7,0.7,1.3,1.4,1.9,2.1c-2.9-2.7-5.5-5.5-8-8.4c-2.5-2.9-4.9-5.8-7.2-8.8c-2.3-3-4.5-6-6.6-9.1C347.1,142,345.1,139,343.2,135.8
			z"/>
		<path class="st3" d="M336.5,68.3c0,0,7.3,12.6,6.1,19.4c0,0,5.3-5.6,12-5c0,0,4.5-11.2,1.9-18.8l-15.7,0.7L336.5,68.3z"/>
		<path class="st6" d="M336.4,116.5c-1.3,0.7-2.5,1.5-3.8,2.2l-3.7,2.2l-3.4,2.1c-1.3-1-2.6-2-3.9-3c-1.4-1.1-2.8-2.1-4.1-3.2
			l-0.4-0.3l-0.3,0.3c-0.9,0.9-1.8,1.8-2.7,2.8c-0.8,0.9-1.7,1.7-2.5,2.6c-1.7-0.9-3.5-1.8-5.2-2.8l-2.8-1.4c-0.9-0.5-1.8-1-2.8-1.4
			c0.9,0.5,1.8,1.1,2.6,1.6l2.6,1.6c1.8,1,3.6,2,5.4,3.1l0.3,0.2l0.2-0.2c0.9-0.9,1.8-1.8,2.8-2.7c0.8-0.8,1.6-1.6,2.5-2.4
			c1.3,1,2.5,1.9,3.8,2.9c1.4,1.1,2.8,2.1,4.2,3.2l0.3,0.2l0.3-0.2l3.6-2.3l3.6-2.3c1.2-0.8,2.4-1.6,3.6-2.3
			c1.2-0.8,2.4-1.6,3.6-2.4C338.9,115,337.6,115.8,336.4,116.5z"/>
		<path class="st6" d="M312.6,187.1c0.1,2.1,0.2,4.3,0.3,6.4c0,0,0,0,0,0c0.2,0,0.4,0.1,0.7,0.1c0-0.1,0-0.1,0-0.2
			c-0.2-8.5-0.3-17-0.1-25.5c0.1-4.3,0.2-8.5,0.4-12.8l0.1-3.2l0.2-3.2c0.1-2.1,0.2-4.3,0.4-6.4c0.3-4.3,0.6-8.5,1-12.8
			c0.4-4.3,0.8-8.5,1.2-12.8c-0.4,2.1-0.7,4.2-0.8,6.3l-0.4,3.2l-0.4,3.2c-0.5,4.3-0.9,8.5-1.2,12.8c-0.2,2.1-0.4,4.3-0.5,6.4
			l-0.2,3.2l-0.2,3.2c-0.3,4.3-0.5,12.8-0.5,12.8v8l-0.4,1.6l0.4,3.2l-0.4,3.2C312.2,183.9,312.6,186.1,312.6,187.1z"/>
		<path class="st7" d="M322.4,145.9h19.3l-0.7,11.1c-0.1,2.1-1.6,4.1-4,5.3l-0.8,0.4c-3.2,1.6-7.3,1.5-10.3-0.3l0,0
			c-2.2-1.3-3.5-3.2-3.5-5.3V145.9z"/>
		<path class="st8" d="M258.9,159.1c3.4,3.3,5.4,8.4,9.2,11.3c3.4,2.6,7.4,4.3,10.7,7.1c1.2,1,2.3,2.1,3.4,3.2
			c0.6,0.2,1.2,0.5,1.8,0.7l15.6-29.2l-14.9-30.4c0,0-6.1,1.4-14.9,11.6c-4.7,5.4-9.1,16-12.2,24.7
			C258,158.4,258.5,158.7,258.9,159.1z"/>
		<polygon class="st9" points="331.4,106 334.2,123.1 311.6,122.6 312.3,102.9 		"/>
		<path class="st10" d="M278.8,177.5c1.2,1,2.3,2.1,3.4,3.2c3.4,1.4,7,2.3,10.3,3.9c4,1.9,6.6,5,10.9,6.4c7.5,2.5,15.3,3.8,23.2,4.6
			c12.6-2.7,25.4-4.5,38-7.3c0.7-0.2,1.4-0.2,2.1-0.1c0.5-0.2,0.9-0.3,1.4-0.4c1.9-8.8,3-16.3,3-16.3l11.3,8.1
			c0.6-0.8,1.3-1.6,2.2-2.3c3.9-3.1,7.8-5.7,11.3-9.4c3.5-3.7,6.8-7.6,9.9-11.6c-13.5-13.5-32.3-30.4-47.3-37.1
			c-5.6-2.5-11.9-4-18.4-4.9c-4,2.5-16.1,2.4-22.7,2.6c-10,0.2-11.3,0.6-15.2-0.7c-9.1,2.6-24.9,6.9-25.1,11.1
			c-1,20.3-1.3,36-1.2,48.2C276.9,176.1,277.9,176.8,278.8,177.5z"/>
		<path class="st11" d="M312,112l0.3-9l19.4,4.7l0.5,3.4C327.9,112.2,319.7,113.7,312,112z"/>
		<polygon class="st12" points="294.1,73.8 294.6,85.7 297.3,86.7 299.6,71.9 		"/>
		<path class="st13" d="M299.1,84.1c1.1,2.6-0.3,5.3-3,5.9c-2.8,0.7-5.9-0.9-7-3.5c-1.1-2.6,0.3-5.3,3-5.9
			C294.9,79.9,298,81.5,299.1,84.1z"/>
		<path class="st9" d="M298.5,98.9c-0.7-1.1-1.3-2.3-1.8-3.6c-1.3-3.3-1.7-6.8-1.8-9.9c0-0.6-0.1-1.3-0.2-1.9
			c-0.3-2.6,0-5.3,1.1-8.1c3.6-8.9,14.6-15.1,27-15.1c16.6,0.1,29.2,10.7,28,22.8c1.8-0.6,3.8-0.7,5.5,0c3.2,1.3,4,4.8,1.8,7.9
			c-2.2,3-6.6,4.4-9.8,3.1c-0.4-0.2-0.8-0.4-1.2-0.7c-2.5,10.2-14.6,17.5-28,16.6c-6.6-0.5-12.4-2.9-16.5-6.4
			c-0.3-0.2-0.6-0.4-0.9-0.7C300.5,101.7,299.4,100.4,298.5,98.9z"/>
		<path class="st5" d="M325.4,83.5c-0.1,1,0.9,1.9,2.2,2c1.4,0.1,2.6-0.6,2.7-1.7c0.1-1-0.9-1.9-2.2-2
			C326.8,81.8,325.6,82.5,325.4,83.5z"/>
		<path class="st5" d="M304.4,83c-0.1,1,0.9,1.9,2.2,2c1.4,0.1,2.6-0.6,2.7-1.7s-0.9-1.9-2.2-2C305.7,81.3,304.5,82,304.4,83z"/>
		<path class="st12" d="M323,79.6c1.2-0.3,2.4-0.5,3.6-0.6c1.2-0.1,2.3-0.1,3.4,0s2.2,0.3,3.3,0.7l0.4,0.1c0.1,0,0.3,0.1,0.4,0.2
			l0.8,0.3c0.5,0.2,1.1,0.5,1.6,0.7c-0.3-0.4-0.7-0.9-1.1-1.2c-0.4-0.3-0.9-0.7-1.5-1c-1.1-0.6-2.4-1-3.7-1.2s-2.8,0-4,0.3
			C325,78.4,323.8,78.9,323,79.6z"/>
		<path class="st12" d="M313.1,79.3c-0.7-0.8-1.8-1.4-3-1.8c-1.2-0.4-2.6-0.6-4-0.6s-2.7,0.3-3.9,0.9c-0.6,0.2-1.1,0.6-1.6,0.9
			c-0.4,0.3-0.8,0.7-1.2,1.2c0.6-0.2,1.1-0.4,1.7-0.6l0.8-0.3c0.1,0,0.3-0.1,0.4-0.1l0.4-0.1c1.1-0.3,2.2-0.4,3.3-0.5
			c1.1,0,2.3,0,3.4,0.2C310.7,78.7,311.9,79,313.1,79.3z"/>
		<path class="st12" d="M293,59.6c0,0-8.4-0.4,1.1-5.1c9.5-4.7,34-9,48.3-1.8c0,0,3.7-4.6,7.9-3.1c4.2,1.5-3.5,4.3-3.5,4.3
			s5.6,0.3,7,2.5c1.1,1.6-2.4,1.4-4.2,1.2c3.1,0.6,12.8,6.1,4.2,24.1c-2.1-0.5-17.3-13.3-17.3-13.3s-25.1,8.8-21.2,3
			c0,0-29.5,8.5-23.8-2.6C291.5,68.8,280.1,68.5,293,59.6z"/>
		<path class="st12" d="M355,81.9c6.5-2.1,1.1-6.7,1.1-6.7c7.6-4.3,3.3-9.5,0.9-9.9c4.7-7.3-3.8-11.3-7.2-9.6c4-6-5.2-8.1-7.7-5.3
			c-4.3-6.8-11.9-4.1-13.2-1.6c-3.3-4.8-11.5-2.9-11.9,0.2c-3.8-4.4-12-1.3-11.7,2c-5.3-3.2-15.3,0-8.8,3.9
			c6.5,3.8,39.3,10.5,39.3,10.5s-0.4,8.1,3,10.2c3.4,2.1,4.4,1.5,4.4,1.5c-4.1,6.5-2.9,8.2-1,8.8C348.6,81,355,81.9,355,81.9z"/>
		<path class="st6" d="M308.3,97.3c0.8,2.3,4.4,3.9,8.7,3.9c4.3,0,7.8-1.8,8.5-4.1L308.3,97.3z"/>
		<path class="st8" d="M343.2,135.8c1.1,1.5,2.2,3,3.3,4.6l3.3,4.5c1.1,1.5,2.2,3,3.4,4.5c1.1,1.5,2.3,3,3.4,4.5
			c1.1,1.5,2.3,3,3.5,4.5c0.6,0.7,1.1,1.5,1.8,2.2l1.8,2.2l1.8,2.2c0.3,0.4,0.6,0.7,0.9,1.1l0.9,1.1l0.9,1.1l0.5,0.5l0.5,0.5
			c0.7,0.7,1.3,1.4,1.9,2.1c-2.9-2.7-5.5-5.5-8-8.4c-2.5-2.9-4.9-5.8-7.2-8.8c-2.3-3-4.5-6-6.6-9.1C347.1,142,345.1,139,343.2,135.8
			z"/>
		<path class="st12" d="M336.5,68.3c0,0,7.3,12.6,6.1,19.4c0,0,5.3-5.6,12-5c0,0,4.5-11.2,1.9-18.8l-15.7,0.7L336.5,68.3z"/>
		<polygon class="st8" points="300.8,116.6 311.9,113 317.1,116.6 332.2,111.7 340.2,114.3 325.5,123 317.2,117.3 311.6,122.6 		"/>
		<path class="st8" d="M336.4,116.5c-1.3,0.7-2.5,1.5-3.8,2.2l-3.7,2.2l-3.4,2.1c-1.3-1-2.6-2-3.9-3c-1.4-1.1-2.8-2.1-4.1-3.2
			l-0.4-0.3l-0.3,0.3c-0.9,0.9-1.8,1.8-2.7,2.8c-0.8,0.9-1.7,1.7-2.5,2.6c-1.7-0.9-3.5-1.8-5.2-2.8l-2.8-1.4c-0.9-0.5-1.8-1-2.8-1.4
			c0.9,0.5,1.8,1.1,2.6,1.6l2.6,1.6c1.8,1,3.6,2,5.4,3.1l0.3,0.2l0.2-0.2c0.9-0.9,1.8-1.8,2.8-2.7c0.8-0.8,1.6-1.6,2.5-2.4
			c1.3,1,2.5,1.9,3.8,2.9c1.4,1.1,2.8,2.1,4.2,3.2l0.3,0.2l0.3-0.2l3.6-2.3l3.6-2.3c1.2-0.8,2.4-1.6,3.6-2.3
			c1.2-0.8,2.4-1.6,3.6-2.4C338.9,115,337.6,115.8,336.4,116.5z"/>
		<path class="st8" d="M312.6,187.1c0.1,2.1,0.2,4.3,0.3,6.4c0,0,0,0,0,0c0.2,0,0.4,0.1,0.7,0.1c0-0.1,0-0.1,0-0.2
			c-0.2-8.5-0.3-17-0.1-25.5c0.1-4.3,0.2-8.5,0.4-12.8l0.1-3.2l0.2-3.2c0.1-2.1,0.2-4.3,0.4-6.4c0.3-4.3,0.6-8.5,1-12.8
			c0.4-4.3,0.8-8.5,1.2-12.8c-0.4,2.1-0.7,4.2-0.8,6.3l-0.4,3.2l-0.4,3.2c-0.5,4.3-0.9,8.5-1.2,12.8c-0.2,2.1-0.4,4.3-0.5,6.4
			l-0.2,3.2l-0.2,3.2c-0.3,4.3-0.5,12.8-0.5,12.8v8l-0.4,1.6l0.4,3.2l-0.4,3.2C312.2,183.9,312.6,186.1,312.6,187.1z"/>
		<path class="st8" d="M322.4,145.9h19.3l-0.7,11.1c-0.1,2.1-1.6,4.1-4,5.3l-0.8,0.4c-3.2,1.6-7.3,1.5-10.3-0.3l0,0
			c-2.2-1.3-3.5-3.2-3.5-5.3V145.9z"/>
	</g>
	<path class="st14" d="M466.6,602.7H139c-16.2,0-29.3-12.5-29.3-27.9V455.1c-0.7,0.7-1.4,1.5-2.1,2.2v117.5
		c0,16.5,14.1,29.9,31.5,29.9h328.5C467.2,604,466.9,603.3,466.6,602.7z"/>
	<path class="st14" d="M109.7,160.3c0-15.4,13.1-27.9,29.3-27.9h109.2c-0.2-0.7-0.4-1.3-0.6-2H139c-17.4,0-31.4,13.4-31.5,29.9
		v183.5c0.7,0.7,1.4,1.4,2.1,2.2L109.7,160.3z"/>
	<path class="st14" d="M549.6,183.9l-68.5-51.5c-1.6-1.2-3.7-1.9-5.7-1.9h-60.9c-0.2,0.7-0.4,1.3-0.6,2h61.5c1.6,0,3.2,0.5,4.4,1.5
		l68.5,51.5c1.3,1,2.1,2.5,2.1,4.1v299.9c0.7,0,1.4,0.1,2.1,0.1v-300C552.5,187.3,551.4,185.2,549.6,183.9L549.6,183.9z"/>
	<path class="st0" d="M548.7,186.5h-55.2c-8.4,0-15.2-6.5-15.2-14.4l0,0v-38.8c0-0.5,0.4-0.9,1-0.9c0.2,0,0.4,0.1,0.6,0.2l69.5,52.3
		c0.4,0.3,0.5,0.9,0.2,1.3C549.2,186.4,549,186.5,548.7,186.5z"/>
	<path class="st14" d="M548.7,187.5h-55.2c-9,0-16.3-6.9-16.3-15.5v-38.8c0-1.1,0.9-1.9,2-1.9c0.5,0,0.9,0.1,1.2,0.4l69.5,52.3
		c0.9,0.7,1,1.9,0.3,2.7C549.9,187.3,549.3,187.5,548.7,187.5L548.7,187.5z M548.7,185.5L548.7,185.5z M479.3,133.5v38.5
		c0,7.4,6.3,13.4,14.1,13.4h54.9L479.3,133.5z"/>
	<path class="st15" d="M439,253.3H276.6c-4.2,0-7.6-3.2-7.6-7.2c0-4,3.4-7.2,7.6-7.2c0,0,0,0,0,0H439c4.2,0,7.6,3.2,7.6,7.2
		C446.6,250.1,443.2,253.3,439,253.3z"/>
	<path class="st15" d="M470.4,277.7H276.6c-4.2,0-7.6-3.2-7.6-7.2c0-4,3.4-7.2,7.6-7.2c0,0,0,0,0,0h193.8c4.2,0,7.6,3.2,7.6,7.2
		C478,274.5,474.6,277.7,470.4,277.7C470.4,277.7,470.4,277.7,470.4,277.7L470.4,277.7z"/>
	<path class="st15" d="M439,362.6H276.6c-4.2,0-7.6-3.2-7.6-7.2c0-4,3.4-7.2,7.6-7.2H439c4.2,0,7.6,3.2,7.6,7.2
		C446.6,359.4,443.2,362.6,439,362.6z"/>
	<path class="st15" d="M470.4,387H276.6c-4.2,0-7.6-3.2-7.6-7.2c0-4,3.4-7.2,7.6-7.2c0,0,0,0,0,0h193.8c4.2,0,7.6,3.2,7.6,7.2
		C478,383.7,474.6,387,470.4,387C470.4,387,470.4,387,470.4,387L470.4,387z"/>
	<path class="st15" d="M439,471.8H276.6c-4.2,0-7.6-3.2-7.6-7.2c0-4,3.4-7.2,7.6-7.2H439c4.2,0,7.6,3.2,7.6,7.2
		C446.6,468.6,443.2,471.8,439,471.8z"/>
	<path class="st15" d="M470.4,496.2H276.6c-4.2,0-7.6-3.2-7.6-7.2c0-4,3.4-7.2,7.6-7.2h193.8c4.2,0,7.6,3.2,7.6,7.2
		C478,493,474.6,496.2,470.4,496.2L470.4,496.2z"/>
	<ellipse id="a4ecd73b-08d8-48cc-a4e8-61145e733de3" class="st16" cx="208.9" cy="258.3" rx="26.9" ry="25.5"/>
	<path id="e1436a23-a259-49e2-b8fe-799bdd526759" class="st6" d="M206.2,268c-0.6,0-1.2-0.2-1.7-0.5l0,0l-6.3-4.6
		c-1.2-0.9-1.5-2.6-0.5-3.7c0.9-1.2,2.7-1.4,3.9-0.5c0,0,0,0,0,0l4.1,3l9.7-12c0.9-1.2,2.7-1.4,3.9-0.5c0,0,0,0,0,0l0,0l-0.1,0.1
		l0.1-0.1c1.2,0.9,1.5,2.6,0.5,3.7L208.5,267C207.9,267.7,207.1,268,206.2,268L206.2,268z"/>
	<ellipse id="be8a52d2-63f9-435f-813d-f0401f75b826" class="st0" cx="208.9" cy="367.5" rx="26.9" ry="25.5"/>
	<path id="e3c7ab69-76f6-4704-bab0-1a6933653e72" class="st6" d="M206.2,377.3c-0.6,0-1.2-0.2-1.7-0.5l0,0l-6.3-4.6
		c-1.2-0.9-1.5-2.6-0.5-3.7c0.9-1.2,2.7-1.4,3.9-0.5l4.1,3l9.7-12c0.9-1.2,2.7-1.4,3.9-0.5c0,0,0,0,0,0l0,0l-0.1,0.1l0.1-0.1
		c1.2,0.9,1.5,2.6,0.5,3.7l-11.4,14.1C207.9,376.9,207.1,377.3,206.2,377.3L206.2,377.3z"/>
	<ellipse id="fc7f6027-3824-4a0f-8274-ead5998d3b8e" class="st0" cx="208.9" cy="476.8" rx="26.9" ry="25.5"/>
	<path id="a068fab7-b499-433d-8534-b02b75008e19" class="st6" d="M206.2,486.5c-0.6,0-1.2-0.2-1.7-0.5l0,0l-6.3-4.6
		c-1.2-0.9-1.5-2.6-0.5-3.7c0.9-1.2,2.7-1.4,3.9-0.5l4.1,3l9.7-12c0.9-1.2,2.7-1.4,3.9-0.5c0,0,0,0,0,0l0,0l-0.1,0.1l0.1-0.1
		c1.2,0.9,1.5,2.6,0.5,3.7l-11.4,14.1C207.9,486.2,207.1,486.5,206.2,486.5L206.2,486.5z"/>
	<path class="st14" d="M246.1,134.5c2.7,9.2,6.9,17.8,12.4,25.3c0.1,0.1,0.3,0.2,0.4,0.3c1.6,1.6,2.9,3.6,4.3,5.5
		c2.2,2.6,4.6,5,7.2,7.3c2.8,1.8,5.8,3.4,8.4,5.6c1.2,1,2.3,2.1,3.4,3.2c3.4,1.4,7,2.3,10.3,3.9c3.3,1.6,5.7,4,8.9,5.6
		c8.9,3,18.3,4.7,28.1,4.9c5.1-1.1,10.3-2,15.5-2.9c-12,1.9-24.7,1.4-37.2-2c-7.3-1.9-14.3-4.8-20.8-8.5
		c-18.9-10.8-32.7-28-38.7-48.2c-0.2-0.7-0.4-1.3-0.6-2c-1.8-6.6-2.7-13.3-2.7-20.1c0.1-45.2,38.6-81.7,86.2-81.7
		c47.5,0.1,86,36.7,86,81.9c0,6.7-0.9,13.4-2.6,19.9l0,0c-0.2,0.7-0.4,1.3-0.6,2c-8.9,30.2-34.6,51.7-64.7,57.9
		c5.2-0.9,10.3-1.9,15.4-3.1c0.5-0.1,1-0.1,1.4-0.1c6-2.5,11.7-5.6,16.9-9.2c0.5-0.6,1-1.1,1.7-1.6c3.8-3,7.6-5.6,11-9.1
		c0.3-0.3,0.5-0.5,0.8-0.8c0.5-0.6,1.1-1.1,1.6-1.7c8.2-9.1,14.5-20,18-32.2c0.2-0.7,0.4-1.3,0.5-2c11.6-44.9-17.2-90.2-64.5-101.3
		c-6.9-1.6-13.9-2.4-21-2.4h0c-48.6,0.1-88,37.5-88,83.6c0,6.8,0.9,13.5,2.6,20.1C245.8,133.1,246,133.8,246.1,134.5z"/>
	<path class="st14" d="M554.1,601.5"/>
	<path class="st14" d="M193.3,602.7H521c16.2,0,29.3-12.5,29.3-27.9V455.1c0.7,0.7,1.4,1.5,2.1,2.2v117.5
		c0,16.5-14.1,29.9-31.5,29.9H192.4C192.7,604,193.1,603.3,193.3,602.7z"/>
	<path class="st17" d="M330.5,28.7c-48.6,0.1-88,37.5-88,83.6c0,6.8,0.9,13.5,2.6,20.1c0.2,0.7,0.4,1.3,0.6,2
		c10.4,36.4,45.2,61.6,84.9,61.6c39.7,0,74.4-25.2,84.9-61.6c0.2-0.7,0.4-1.3,0.5-2c11.6-44.9-17.2-90.2-64.5-101.3
		C344.6,29.5,337.6,28.7,330.5,28.7L330.5,28.7z M414,132.4c-0.2,0.7-0.4,1.3-0.6,2c-12.9,43.5-60.4,68.9-106.2,56.7
		c-7.3-1.9-14.3-4.8-20.8-8.5c-18.9-10.8-32.7-28-38.7-48.2c-0.2-0.7-0.4-1.3-0.6-2c-1.8-6.6-2.7-13.3-2.7-20.1
		c0.1-45.2,38.6-81.7,86.2-81.7c47.5,0.1,86,36.7,86,81.9C416.6,119.2,415.7,125.9,414,132.4L414,132.4z"/>
	<path class="st14" d="M107.6,312.9v166.7c0.7,0.7,1.4,1.4,2.1,2.2l0-169.4C109,312.7,108.3,312.9,107.6,312.9z"/>
</g>
</svg>
