<?xml version="1.0" encoding="utf-8"?>
<!-- Generator: Adobe Illustrator 24.0.2, SVG Export Plug-In . SVG Version: 6.00 Build 0)  -->
<svg version="1.1" id="af4a84a9-df7a-48d3-8a0e-abab0432828c"
	 xmlns="http://www.w3.org/2000/svg" xmlns:xlink="http://www.w3.org/1999/xlink" x="0px" y="0px" viewBox="0 0 812.3 733.9"
	 style="enable-background:new 0 0 812.3 733.9;" xml:space="preserve">
<style type="text/css">
	.st0{fill:#E6E6E6;}
	.st1{fill:#3F3D56;}
	.st2{fill:#FFFFFF;}
	.st3{fill:#9ED16F;}
	.st4{fill:#5E2E0D;}
	.st5{opacity:0.3;fill:#DAEEF7;}
	.st6{fill:#FFC0BB;}
	.st7{fill:#EFAC7F;}
	.st8{fill:#45258F;}
	.st9{fill:#96A65F;}
	.st10{fill:#1D509F;}
	.st11{fill:#D19369;}
	.st12{fill:#333333;}
	.st13{opacity:0.3;fill:#D19369;}
	.st14{fill:#3797DB;}
</style>
<path class="st0" d="M722.8,566.1c-12.9,36.4-30.7,72.4-55.1,106.2c-0.5,0.8-1.1,1.5-1.6,2.3L593,652.9c0.3-0.7,0.7-1.5,1-2.4
	c22-52.7,154.6-373.7,138.9-440C734.4,215.9,783,395.8,722.8,566.1z"/>
<path class="st0" d="M681.8,676.4c-0.9,0.7-1.8,1.3-2.7,1.9l-54.8-16.2c0.6-0.6,1.4-1.3,2.3-2.1c14.1-13.1,55.9-52.4,96.3-94
	c43.4-44.7,85.3-92,89.5-112.4C811.5,458.3,786.9,599.7,681.8,676.4z"/>
<path id="bcf9023f-ac5b-481c-aaa4-352627f2cc6c" class="st1" d="M688.6,191.9h-4V86.1c0-33.8-28.4-61.2-63.4-61.2l0,0H389.1
	c-35,0-63.4,27.4-63.4,61.2v0v580.4c0,33.8,28.4,61.2,63.4,61.2c0,0,0,0,0,0h232.1c35,0,63.4-27.4,63.4-61.2c0,0,0,0,0,0V267.2h4
	L688.6,191.9z"/>
<path id="f7950315-d447-41b3-b140-1076b53a001f" class="st2" d="M623.7,40.8h-30.3c4.7,11.1-0.8,23.8-12.3,28.3
	c-2.7,1.1-5.6,1.6-8.5,1.6h-133c-12.4,0-22.5-9.7-22.5-21.7c0-2.8,0.6-5.6,1.7-8.2h-28.3c-26.1,0-47.3,20.5-47.3,45.7c0,0,0,0,0,0
	l0,0v579.6c0,25.3,21.2,45.7,47.3,45.7h0h233.2c26.1,0,47.3-20.5,47.3-45.7v0v0l0,0V86.5C671.1,61.3,649.9,40.8,623.7,40.8
	L623.7,40.8C623.7,40.8,623.7,40.8,623.7,40.8z"/>
<ellipse id="f890d8c3-e731-49cb-a2e5-5c59e9f60352" class="st0" cx="507.5" cy="635" rx="26" ry="25.1"/>
<g id="a1a6c59b-3717-4dad-b370-97c9e621082a">
	<rect id="aadecade-068c-4f25-a9ef-29b7b9ecc005" x="363.4" y="344" class="st0" width="287.5" height="54.8"/>
	<path id="be47b05f-620a-4a83-9c0d-c2bf8bc76fef" class="st2" d="M369.5,392.9h275.2v-43H369.5V392.9z"/>
	<path id="a28d2100-c4d0-4925-85de-1e7d52571659" class="st3" d="M393.6,354.7c9.4,0,17,7.3,17,16.4c0,9-7.6,16.4-17,16.4
		c-9.4,0-17-7.3-17-16.4S384.2,354.7,393.6,354.7L393.6,354.7z"/>
	<rect id="bf3352be-1ca2-4e23-bbaf-f2f5ef64af93" x="434.2" y="364.7" class="st0" width="167.3" height="3.6"/>
	<rect id="bb396d43-890f-415a-a911-0c113deb0c88" x="434.2" y="374" class="st0" width="167.3" height="3.6"/>
</g>
<g id="a76a8676-f787-4aac-bc26-4d28e625d812">
	<rect id="a3fed62c-a480-4fda-a6ab-9c7719a11d03" x="363.4" y="422.3" class="st0" width="287.5" height="54.8"/>
	<path id="b2013604-1388-480a-bf39-bc8d6d6f2c30" class="st2" d="M369.5,471.2h275.2v-43H369.5V471.2z"/>
	<ellipse id="a10785fe-0480-48e0-a209-79d56eb9fb83" class="st3" cx="393.6" cy="449.3" rx="17" ry="16.4"/>
	<rect id="e4ba10f0-0456-4e2c-9d9e-10f625ff54d2" x="434.2" y="442.9" class="st0" width="167.3" height="3.6"/>
	<rect id="a086a789-ddcc-4a0c-b196-f7973999ed5b" x="434.2" y="452.2" class="st0" width="167.3" height="3.6"/>
</g>
<g id="a5a5e7c6-2328-4bbd-a0bc-78368cb001e7">
	<rect id="be3c08ee-83a5-46f6-b550-c65a1a75b35b" x="363.4" y="500.5" class="st0" width="287.5" height="54.8"/>
	<path id="beee7471-5a7b-446e-b565-9b3273ba023a" class="st2" d="M369.5,549.4h275.2v-43H369.5V549.4z"/>
	<ellipse id="f8684faf-2b28-4db0-a7a9-e69102a88591" class="st3" cx="393.6" cy="527.6" rx="17" ry="16.4"/>
	<rect id="e7cf9a62-74c8-4968-991d-f63bde6d8d74" x="434.2" y="521.2" class="st0" width="167.3" height="3.6"/>
	<rect id="b57b1a7e-a030-4cfd-a852-c296d4f42a3d" x="434.2" y="530.4" class="st0" width="167.3" height="3.6"/>
</g>
<ellipse class="st3" cx="507.1" cy="212.2" rx="80" ry="77.3"/>
<path class="st2" d="M539.2,179.8h-64.1c-5.9,0-10.7,4.6-10.7,10.3v44.2c0,5.7,4.8,10.3,10.7,10.3h64.1c5.9,0,10.7-4.6,10.7-10.3
	v-44.2C549.9,184.4,545.1,179.8,539.2,179.8z M539.2,185.6c0.4,0,0.8,0,1.1,0.1l-33.2,25.6l-33-25.6c0.3-0.1,0.6-0.1,0.9-0.1H539.2z
	 M539.2,238.7h-64.1c-2.5,0-4.6-2-4.6-4.4v-43.8l34.7,27c1.1,0.9,2.7,0.9,3.8,0l34.7-26.7v43.6C543.8,236.7,541.7,238.7,539.2,238.7
	z"/>
<g>
	<path class="st4" d="M165.8,198.4c26,19.5,9.1,59.5,26.6,74.8c-28.3,17.6-77.1,3.6-101,4.2c-7.7-36.1,9.4-68.9,26.6-79
		C147.5,195.6,165.8,198.4,165.8,198.4z"/>
	<path class="st5" d="M251.7,321.4c1,0,1.9,0.2,2.8,0.4l-3.1,18.4c-5.1-0.1-9.2-4.3-9.2-9.4C242.2,325.6,246.4,321.4,251.7,321.4z"
		/>
	<path class="st6" d="M253.3,332.3c0,0-7.2,0.7-7.7,1.7s7.1,1.1,7.1,1.1L253.3,332.3z"/>
	<path class="st7" d="M209.6,716.4l-24-14.6L171,714.5l6.3,4.4l21.7,3c0,0,8.5-1.1,8.8-1.3C208.2,720.3,209.6,716.4,209.6,716.4z"/>
	<path class="st8" d="M209.6,716.4l5.3,3.3c2.4,1.5,1.4,5.3-1.5,5.3l-39.8,0.2c-1.4,0-2.5-1.1-2.6-2.5l-0.1-8.3
		C197.5,722.7,206.7,720.1,209.6,716.4z"/>
	<path class="st4" d="M108.9,235.4c0,0-6.6-26.9,9.1-37c15.7-10.1,32.4-9,43.8-2.9s18.2,27.1,13.1,39.1l-37.7-11.5L108.9,235.4z"/>
	<path class="st7" d="M228.2,338.7c2.2-3.4,3.6-6.3,3.6-8.3l-0.7-3.3c-0.9-4.1,0-6.7,1.6-6.9l0.3,0c0,0,2.7,5.8,4.9,10.5l2.4-2.2
		l12.4,15.4l-14.1,6.8L228.2,338.7z"/>
	<polygon class="st7" points="171,714.5 166,686.5 186.8,684.4 188,685.8 191.5,705.2 181.7,715 	"/>
	<path class="st7" d="M63.7,715.6l-9.3-26.4L34.9,690l2.1,7.3l14.9,15.9c0,0,7.3,4.5,7.7,4.5C60.1,717.8,63.7,715.6,63.7,715.6z"/>
	<path class="st8" d="M63.7,715.6l2,5.9c0.9,2.7-2.3,4.9-4.5,3.1l-31-24.7c-1.1-0.9-1.3-2.5-0.4-3.5l5.2-6.4
		C50.3,712.9,59,716.6,63.7,715.6z"/>
	<polygon class="st7" points="34.9,690 48.8,665.2 66.3,676.5 66.3,678.3 56.7,695.6 42.9,697 	"/>
	<path class="st7" d="M137.2,430.2l6.3,115.7c0,0,16.6,122.9,27,165.8l21-6.5l-13.3-298.6h-39.4L137.2,430.2z"/>
	<path class="st7" d="M179.7,439.7l-1.5-33.1l-31.4-0.8l-0.7,3.2l-36-4.4c0,0-29.5,37.8-22.5,97.9c7,60.2,5.4,81.7,5.4,81.7
		s-35.2,41.2-54,98.3c0,0,8.6,7.2,19.9,9.2c0,0,68.3-94,72.6-104c2.6-6,11-68.3,17.5-117.4C148.9,470.3,176.9,450,179.7,439.7z"/>
	<path class="st9" d="M149.5,283.7c0,0,22.6,1.4,31.7,13.3c11.3,14.9,18.4,64.3,18.4,64.3l29.4-24.5l12.7,13.3
		c0,0-37.8,52.3-44.6,48.4c-6.8-3.9-26-20.2-26-20.2s-7.9-47.1-7.9-48.5C163.1,328.3,149.5,283.7,149.5,283.7z"/>
	<path class="st10" d="M179.6,403c3.9,21.2,10.7,143.9,8.9,170.1c-39.8,9.8-98.1,0.9-98.1,0.9c-11.6-101.5-11.6-107.2-0.9-136.2
		c10.6-29,18.8-39.1,18.8-39.1C153.6,395,179.6,403,179.6,403z"/>
	<path class="st3" d="M185.1,332.5c-1.9-17.8-10.9-34-24.7-45.1c-1.7-1.4-3.6-2.3-5.7-2.8c-5.7-1.4-13.2-1.6-16.8-1.7h-12
		c0,0-19.3,1.1-27.9,3.7c-8.6,2.7-59,37.9-66.9,53.7c-7.5,14.9,57,62.3,57,62.3c1.5-0.1,12.1-16.1,10.9-17.1
		c-1.1-1-40-36.4-37.2-39.2c8.3-8.6,29.8-16.6,29.8-16.6s4.8,66.5,17.1,78.2c0,0,48.7,3.3,66.8,1.2c3.3-0.4,5.9-2.9,6.4-6.1
		C183.8,391.1,188,359.8,185.1,332.5z"/>
	<path class="st7" d="M169.5,296.3c-2.7-3.2-5.8-6.2-9.1-9c-1.7-1.4-3.7-2.3-5.8-2.8c-5.7-1.4-13.2-1.6-16.8-1.7h-12
		c0,0-3.3,0.2-7.7,0.6C127.8,290.8,145.9,300.7,169.5,296.3z"/>
	<path class="st7" d="M129.9,285.5l25.3,0.5c-0.5-5.6-1-13,0-15.6c1.6-4.5-26.6-5.2-26.6-5.2S130,276.8,129.9,285.5z"/>
	<path class="st11" d="M128.5,265.2c0,0,0.6,4.7,1,10.3c5.1,4.1,11.8,6.2,18.7,5.3c2.3-0.3,4.4-0.9,6.4-1.8
		c-0.2-3.7-0.1-7.1,0.5-8.7C156.7,265.9,128.5,265.2,128.5,265.2z"/>
	<path class="st7" d="M169.7,260.2c0.8-1.6,1.5-3.2,2.1-5c1.6-4.7,2.3-9.6,2.5-13.8c0.1-0.9,0.2-1.8,0.3-2.7
		c0.5-3.7,0.4-7.5-0.6-11.5c-3.2-12.7-14.7-22-27.9-22.5c-17.8-0.7-31.9,13.7-31.3,30.8c-1.9-1-4-1.1-5.9-0.3
		c-3.5,1.7-4.6,6.6-2.5,11c2.1,4.4,6.7,6.5,10.2,4.8c0.5-0.2,0.9-0.5,1.3-0.9c2,14.5,14.4,25.4,28.9,24.7c7.1-0.4,13.4-3.4,18-8.2
		c0.3-0.3,0.6-0.6,1-1C167.4,264.1,168.6,262.2,169.7,260.2z"/>
	<path class="st12" d="M142.6,239.7c0.1,1.5-1.1,2.9-2.7,2.9c-1.6,0.1-2.9-1.1-3-2.7c-0.1-1.5,1.1-2.9,2.7-2.9
		C141.2,237,142.6,238.2,142.6,239.7z"/>
	<path class="st12" d="M165.8,239.7c0.1,1.5-1.1,2.9-2.7,2.9c-1.6,0.1-2.9-1.1-3-2.7c-0.1-1.5,1.1-2.9,2.7-2.9
		C164.4,237,165.7,238.2,165.8,239.7z"/>
	<g>
		<path class="st4" d="M145,235c-1.3-0.7-2.6-1.2-4-1.5c-1.4-0.3-2.7-0.4-4.1-0.3c-0.7,0.1-1.4,0.2-2,0.4c-0.3,0.1-0.7,0.2-1,0.3
			c-0.2,0.1-0.3,0.1-0.5,0.2c-0.2,0.1-0.3,0.1-0.5,0.2c-1.3,0.6-2.4,1.4-3.6,2.3c0.9-1.2,2-2.2,3.2-2.9c0.6-0.4,1.3-0.7,2-0.9
			c0.7-0.2,1.5-0.4,2.2-0.5c1.5-0.1,3,0.1,4.4,0.6c0.7,0.2,1.4,0.6,2,0.9C143.9,234.1,144.5,234.5,145,235z"/>
	</g>
	<g>
		<path class="st4" d="M156.4,235c0.5-0.5,1.1-0.9,1.7-1.3c0.6-0.4,1.3-0.7,2-0.9c1.4-0.5,2.9-0.7,4.4-0.6c0.8,0.1,1.5,0.2,2.2,0.5
			c0.7,0.2,1.4,0.6,2,0.9c1.3,0.8,2.4,1.8,3.2,2.9c-1.2-0.9-2.4-1.7-3.6-2.3c-0.2-0.1-0.3-0.1-0.5-0.2c-0.2-0.1-0.3-0.1-0.5-0.2
			c-0.3-0.1-0.6-0.2-1-0.3c-0.7-0.2-1.3-0.3-2-0.4c-1.4-0.1-2.8,0-4.1,0.3C159,233.9,157.7,234.4,156.4,235z"/>
	</g>
	<path class="st9" d="M91.9,329.3c0.7-0.7,1.3-1.5,1.9-2.3c0.6-0.8,1.1-1.7,1.6-2.5c0.5-0.9,0.9-1.8,1.3-2.7c0.4-0.9,0.7-1.9,1-2.9
		c-0.1,1-0.3,2-0.6,3c-0.1,0.5-0.3,1-0.5,1.5c-0.2,0.5-0.4,1-0.6,1.4c-0.5,0.9-1,1.8-1.6,2.7c-0.5,0.7-1,1.3-1.6,2
		c0.5,0.1,1.1,0.2,1.6,0.2c0.7,0,1.5,0,2.2-0.1c0.4,0,0.7-0.1,1.1-0.2c0.4-0.1,0.7-0.2,1.1-0.3c0.7-0.2,1.4-0.6,2.1-1
		c-0.6,0.5-1.2,0.9-1.9,1.3c-0.7,0.3-1.4,0.6-2.2,0.8c-0.8,0.2-1.6,0.3-2.3,0.2c-0.8,0-1.6-0.1-2.4-0.3l-0.6-0.1L91.9,329.3z"/>
	<path class="st4" d="M114.8,235.6c0,0,20.4-8.2,31.3-20.7c0,0-0.2,6.8-2.5,9.2c0.7,0.5,14.9-5.1,18.1-15.8
		c3.3-10.7-16.1-6.6-16.1-6.6s-11-1.8-11.5-1.6c-0.5,0.2-8.3,4.9-8.7,5.3c-0.4,0.4-10.7,14.9-10.7,14.9l-2.6,5.4l-0.6,7.4
		L114.8,235.6z"/>
	<path class="st13" d="M145.6,256c0,0,3.3-1.2,6.4,0.8c0,0,3.4-2.1,6-0.1c0,0-1.2,5-6.8,4.6C145.7,261.1,145.6,256,145.6,256z"/>
	<path class="st11" d="M142.7,254.2c0.6,0.5,1.3,1,2,1.4c0.7,0.4,1.4,0.8,2.1,1.1c1.4,0.6,3,1.1,4.5,1.2c1.6,0.1,3.1-0.1,4.7-0.5
		c1.5-0.5,2.9-1.2,4.3-2.1c-0.6,0.5-1.2,1-1.9,1.5c-0.7,0.4-1.4,0.8-2.2,1.1c-0.8,0.3-1.6,0.5-2.4,0.6c-0.8,0.1-1.6,0.1-2.5,0.1
		c-1.6-0.2-3.2-0.6-4.7-1.4C145.1,256.4,143.7,255.4,142.7,254.2z"/>
	<path class="st11" d="M153.1,238.4c0.8,1.3,1.5,2.6,2.1,4c0.6,1.4,1.2,2.8,1.6,4.2c0.2,0.7,0.4,1.5,0.4,2.3c0,0.2,0,0.4,0,0.6
		c0,0.1,0,0.2-0.1,0.3c0,0.1-0.1,0.2-0.2,0.4c0,0.1-0.1,0.1-0.1,0.2l-0.1,0.1c-0.1,0.1-0.2,0.1-0.2,0.2c-0.2,0.1-0.3,0.2-0.5,0.3
		c-0.7,0.4-1.4,0.7-2.1,0.9c-0.7,0.2-1.4,0.4-2.2,0.6c1.4-0.6,2.7-1.3,3.9-2.1c0.1-0.1,0.3-0.2,0.4-0.3l0.2-0.2l0.1-0.1c0,0,0,0,0,0
		c0.1-0.1,0.1-0.5,0.1-0.8c-0.1-0.7-0.2-1.4-0.4-2.1c-0.4-1.4-0.9-2.8-1.4-4.2C154,241.2,153.5,239.8,153.1,238.4z"/>
	<polygon class="st3" points="240.8,313.7 247,313.7 255.9,313.7 250.7,344.3 247,344.3 240.8,344.3 237.1,344.3 231.9,313.7 	"/>
	<path class="st7" d="M232.7,320.3c0,0,6.6-1.1,7.1,0c0.4,1.1-5.3,0.5-6.4,3.7C232.2,327.1,232.7,320.3,232.7,320.3z"/>
	<path class="st5" d="M251.3,324.6c0.9,0,1.7,0.1,2.5,0.4l-2.8,16.3c-4.5-0.1-8.1-3.8-8.1-8.3C242.9,328.3,246.7,324.6,251.3,324.6z
		"/>
	<path class="st7" d="M251,344.3l0.3,0c1.5,0.1,2.9-1,3.1-2.5l2.9-17c0.2-0.8-0.2-1.7-0.9-2.2c-2.1-1.5-6.7-4.6-7.6-4.1
		c-1.3,0.7,5.4,6.2,4.9,6.5c-0.5,0.3-8-2.2-8.2-1.2c-0.2,0.8,6.9,4.4,6.8,4.9c-0.1,0.5-7.2-0.7-7.6,0.1c-0.4,0.8,6.8,3.1,6.8,3.4
		L251,344.3z"/>
	<path class="st14" d="M231.5,316.6h24.8c0.9,0,1.6-0.7,1.6-1.6v-0.2c0-0.9-0.7-1.6-1.6-1.6h-24.8c-0.9,0-1.6,0.7-1.6,1.6v0.2
		C230,315.9,230.7,316.6,231.5,316.6z"/>
	<path class="st7" d="M111.2,394.1c-0.5,0.1-0.7,0.8-0.3,1.2c3.2,2.9,13.4,12.1,12.9,13.1c-0.7,1.2-9.9-6.8-11-6.2
		c-1.1,0.6,8.2,8.2,7.3,9.3c-0.9,1.1-9.1-6-9.7-5.7c-0.6,0.3,6.6,8.1,6.4,9.1c-0.1,1-8.7-6.3-9.5-6.1c-0.8,0.2,3.5,7.3,2.9,7.7
		c-0.6,0.4-0.9,0.8-15-12.3l-5.3-5.4l-2-6.7l6.7-5.2c0,0,24.7,2.6,25.2,3.5C120.1,391.3,119.6,392,111.2,394.1z"/>
	<path class="st3" d="M88.4,375.7c5.7,5.4,10.2,9.5,10.6,9.8c1.1,1-9.4,17.1-10.9,17.1c0,0-5.6-4.1-13.3-10.3L88.4,375.7z"/>
</g>
</svg>
