<?xml version="1.0" encoding="utf-8"?>
<!-- Generator: Adobe Illustrator 24.0.2, SVG Export Plug-In . SVG Version: 6.00 Build 0)  -->
<svg version="1.1" id="b9b3c72a-3b99-4e28-aee4-7b73d40b397f"
	 xmlns="http://www.w3.org/2000/svg" xmlns:xlink="http://www.w3.org/1999/xlink" x="0px" y="0px" viewBox="0 0 496 386.9"
	 style="enable-background:new 0 0 496 386.9;" xml:space="preserve">
<style type="text/css">
	.st0{fill:#C2E6F9;stroke:#343433;stroke-miterlimit:10;}
	.st1{fill:#62BDF3;stroke:#343433;stroke-miterlimit:10;}
	.st2{fill:#1D509F;stroke:#343433;stroke-miterlimit:10;}
	.st3{fill:#1D509F;}
	.st4{fill:#FFFFFF;}
	.st5{fill:#9ED16F;}
	.st6{fill:#FFB8B8;}
	.st7{opacity:0.2;enable-background:new    ;}
	.st8{fill:#3F3D56;}
	.st9{fill:#2F2E41;}
</style>
<g>
	<path class="st0" d="M248.7,225.7L248.7,225.7c0,2.4-1.3,4.4-3,4.7v8.6c0,2.9-1.7,5.2-3.8,5.2h-26.8c-2.1,0-3.8-2.3-3.8-5.2v-8.6
		c-1.6-0.4-2.9-2.3-2.9-4.7l0,0c0-2.3,1.3-4.3,2.9-4.7v-31.6c-1.6-0.4-2.9-2.3-2.9-4.7l0,0c0-2.3,1.3-4.3,2.9-4.7v-3.2
		c0-2.9,1.7-5.2,3.8-5.2h6.4c0.8,0,1.5-0.9,1.5-2v-2.1h10.9v2.1c0,1.1,0.7,2,1.5,2h6.5c2.1,0,3.8,2.3,3.8,5.2v3.2
		c1.7,0.3,3,2.3,3,4.7l0,0c0,2.4-1.3,4.4-3,4.7v31.5C247.4,221.4,248.7,223.3,248.7,225.7z"/>
	<g>
		<polygon class="st1" points="211.3,221 234.7,220.7 211.3,220.3 		"/>
	</g>
	<g>
		<polygon class="st1" points="245.7,231.2 222.3,230.8 245.7,230.4 		"/>
	</g>
	<g>
		<polygon class="st1" points="211.3,180.2 234.7,179.9 211.3,179.5 		"/>
	</g>
	<g>
		<polygon class="st1" points="245.7,190.4 222.3,190 245.7,189.6 		"/>
	</g>
	<path class="st2" d="M235.5,159.2h-13.8c-1.2,0-2.2,1.3-2.2,3v3.8c0,1.7,1,3,2.2,3h13.8c1.2,0,2.2-1.3,2.2-3v-3.8
		C237.6,160.5,236.7,159.2,235.5,159.2z"/>
</g>
<path class="st3" d="M182.8,326.8c-1.3,16.1-6,30.8-11,45c-0.2,0.5-0.3,1-0.5,1.4h-52.1c-1.1-0.4-2.1-0.9-3.1-1.4
	c-5.9-2.9-11.4-7.3-16.4-13c-19.2-22.2-26.5-64.1-23.2-101.7c2.1-23.3,8.4-47.2,20.9-59.8c6.6-6.7,15-8.8,22.5-6.3
	c0.2,0.1,0.4,0.1,0.6,0.2c6.5,2.3,12.3,8.2,15.6,17.6c5.9,16.9,2.4,37.8-0.5,56.6s-4.5,41.3,3.9,55.2c-2.8-13.2,0-28.8,6.6-37.7
	c5-6.7,12-9.2,18.4-7.1c0.6,0.2,1.2,0.4,1.8,0.7c1.4,0.7,2.8,1.6,4.1,2.8C180.2,288.1,184.2,308.6,182.8,326.8z"/>
<path class="st4" d="M149,371.8c1.4,0.5,2.9,1,4.3,1.4h-7.9c-1-0.4-2.1-0.9-3.1-1.4c-2.2-1.1-4.4-2.4-6.6-3.9
	c-8.7-5.9-16.7-14.7-22.8-26.4c-3-5.7-5.4-12-7.2-18.9c-1.9-7.7-3.2-15.8-3.7-24.1c-1.1-17,0-34.5,2.1-51.2
	c2.2-17.3,5.6-34.1,10.4-50.1c0.6-1.9,1.2-3.8,1.8-5.7c0.1-0.3,0.3-0.5,0.5-0.6s0.4,0,0.6,0.2c0.4,0.4,0.6,1.3,0.4,2
	c-4.9,15.3-8.6,31.5-11,48.3c-2.4,16.3-3.7,33.4-3.3,50.2c0.4,15.7,3,31.1,8.8,44c5.3,11.7,12.6,21,20.7,27.2
	C138.1,366.7,143.4,369.7,149,371.8z"/>
<path class="st4" d="M168.4,373.2h-2.3c-0.3-0.5-0.5-1-0.8-1.4c-5.3-10.3-8.9-22.6-10.4-35.8c-1.9-16.4-0.4-33.4,4.2-48.3
	c1.3-4.2,2.8-8.2,4.5-12c0.6,0.2,1.2,0.4,1.8,0.7c-4.5,9.6-7.6,20.8-8.9,32.7c-2.4,22.5,1.7,45.5,11.1,62.7
	C167.9,372.2,168.2,372.7,168.4,373.2z"/>
<path class="st3" d="M385.7,360.9c0.3,4.2,1.6,8.1,2.9,11.9c0,0.1,0.1,0.3,0.1,0.4h13.7c0.3-0.1,0.6-0.2,0.8-0.4
	c1.6-0.8,3-1.9,4.3-3.4c5.1-5.9,7-16.9,6.1-26.8c-0.5-6.2-2.2-12.5-5.5-15.8c-1.8-1.7-3.9-2.3-5.9-1.7c-0.1,0-0.1,0-0.2,0.1
	c-1.7,0.5-3.2,2.2-4.1,4.6c-1.6,4.5-0.6,10,0.1,14.9c0.8,5,1.2,10.9-1,14.6c1-4.8-0.6-9.9-3.5-11.6c-1-0.5-2-0.6-3.1-0.3
	c-0.2,0.1-0.3,0.1-0.5,0.2c-0.4,0.2-0.7,0.4-1.1,0.7C386.4,350.7,385.3,356.1,385.7,360.9z"/>
<path class="st4" d="M393.8,372.8c-0.4,0.1-0.8,0.3-1.1,0.4h2.1c0.3-0.1,0.5-0.2,0.8-0.4c0.6-0.3,1.2-0.6,1.7-1c2.3-1.5,4.4-3.9,6-7
	c0.8-1.5,1.4-3.2,1.9-5c0.5-2,0.8-4.2,1-6.4c0.2-4.5,0-9.1-0.6-13.5c-0.6-4.6-1.5-9-2.7-13.2c-0.2-0.5-0.3-1-0.5-1.5
	c0-0.1-0.1-0.1-0.1-0.2c-0.1,0-0.1,0-0.2,0.1s-0.2,0.3-0.1,0.5c1.3,4,2.3,8.3,2.9,12.7c0.7,4.3,1,8.8,0.9,13.3
	c0,4.1-0.9,8.2-2.3,11.6c-1.4,3.1-3.3,5.5-5.5,7.2C396.7,371.5,395.3,372.3,393.8,372.8z"/>
<path class="st4" d="M389.3,373.2h0.6c0.1-0.1,0.1-0.3,0.2-0.4c1.4-2.7,2.3-6,2.8-9.4c0.5-4.3,0.1-8.8-1.1-12.8
	c-0.3-1.1-0.7-2.2-1.2-3.2c-0.2,0.1-0.3,0.1-0.5,0.2c1.2,2.5,2,5.5,2.3,8.6c0.6,5.9-0.5,12-2.9,16.5
	C389.4,372.9,389.3,373.1,389.3,373.2z"/>
<path class="st5" d="M261.7,263.4h-43l-0.5-21.3c-0.1-3.5,1.6-6.5,3.8-6.6c0.2,0,0.4,0,0.6,0l25,4.9l0,0c7.7,0,14,10.1,14,22.5v0.5
	H261.7z"/>
<path class="st6" d="M317.7,201.3c-0.8-4.1-3.5-6.4-6-5.1c-0.3,0.1-0.5,0.3-0.8,0.5l-41.3-23.8l-1.8,16.6l41.2,18.2
	c1.4,3.7,4.4,4.9,6.6,2.6C317.5,208.4,318.3,204.7,317.7,201.3z"/>
<path class="st7" d="M317.7,201.3c-0.8-4.1-3.5-6.4-6-5.1c-0.3,0.1-0.5,0.3-0.8,0.5l-41.3-23.8l-1.8,16.6l41.2,18.2
	c1.4,3.7,4.4,4.9,6.6,2.6C317.5,208.4,318.3,204.7,317.7,201.3z"/>
<path class="st3" d="M276.9,175.9l-3.9,16.4c-0.4,1.8-1.7,2.7-2.8,2c-0.1-0.1-0.2-0.1-0.3-0.2l-9.5-8.6c-3.1-1.9-4.6-7.5-3.4-12.5
	c1.2-4.9,4.7-7.4,7.7-5.5l10.6,3.8c1.2,0.4,1.9,2.3,1.6,4.1C277,175.6,276.9,175.8,276.9,175.9z"/>
<g>
	<path class="st0" d="M233.8,230L233.8,230c0,2.4-1.3,4.4-3,4.7v8.6c0,2.9-1.7,5.2-3.8,5.2h-26.8c-2.1,0-3.8-2.3-3.8-5.2v-8.6
		c-1.6-0.4-2.9-2.3-2.9-4.7l0,0c0-2.3,1.3-4.3,2.9-4.7v-31.6c-1.6-0.4-2.9-2.3-2.9-4.7l0,0c0-2.3,1.3-4.3,2.9-4.7v-3.2
		c0-2.9,1.7-5.2,3.8-5.2h6.4c0.8,0,1.5-0.9,1.5-2v-2.1H219v2.1c0,1.1,0.7,2,1.5,2h6.5c2.1,0,3.8,2.3,3.8,5.2v3.2
		c1.7,0.3,3,2.3,3,4.7l0,0c0,2.4-1.3,4.4-3,4.7v31.5C232.5,225.6,233.8,227.6,233.8,230z"/>
	<g>
		<polygon class="st1" points="196.3,225.3 219.8,225 196.3,224.6 		"/>
	</g>
	<g>
		<polygon class="st1" points="230.7,235.5 207.3,235.1 230.7,234.7 		"/>
	</g>
	<g>
		<polygon class="st1" points="196.3,184.5 219.8,184.2 196.3,183.8 		"/>
	</g>
	<g>
		<polygon class="st1" points="230.7,194.7 207.3,194.3 230.7,193.9 		"/>
	</g>
	<path class="st2" d="M220.5,163.5h-13.8c-1.2,0-2.2,1.3-2.2,3v3.8c0,1.7,1,3,2.2,3h13.8c1.2,0,2.2-1.3,2.2-3v-3.8
		C222.7,164.8,221.7,163.5,220.5,163.5z"/>
</g>
<path class="st5" d="M320.9,216.5l-14.8,10.8l1.9,11.8c3.8,22.7,4.7,46.3,2.9,69.7l0,0l10.8,3.6l9-36.8l-3.1-41.8L320.9,216.5z"/>
<path class="st8" d="M349.9,270.9c-9.7,0-17.6,11.4-18,25.6H368C367.6,282.2,359.7,270.9,349.9,270.9z"/>
<path class="st8" d="M342.4,273.3c-0.5-64.2-23.3-58.3-23.3-58.3s0.4,20,0.6,20.6c14.5,44.1-9.4,95.8-39.9,86.3
	c-0.6-0.2-1.1-0.4-1.7-0.5c-8-2.7-13.3-14.9-12.2-27.9c3-38.7-11.9-38-11.9-38h-21.8L221,239c-1.4-2-3.4-1.8-4.7,0.4
	c-0.3,0.5-0.5,1.1-0.6,1.7l-1.5,6.4c0,0-21.5,3.6-19.7,37.5h6.7c0,1,0,1.9,0.1,2.9l49.7-0.6c2.9,0,5.5,3.8,5.5,8.4
	c0,4.7-2.3,8.5-5.2,8.5c-0.1,0-0.1,0-0.2,0l-8-0.4c-2.5,17.7,3.6,29.5,10.3,37c6.3,6.9,13.7,10.6,21.3,10.5h21.7
	c28.2,0,33.2-38.2,33.2-38.2C344.2,302.9,342.4,273.3,342.4,273.3z"/>
<ellipse class="st8" cx="348.6" cy="331.6" rx="25.2" ry="40.5"/>
<ellipse class="st4" cx="348.6" cy="331.6" rx="6.2" ry="9.9"/>
<ellipse class="st8" cx="221.3" cy="325.4" rx="29" ry="46.7"/>
<ellipse class="st4" cx="221.3" cy="325.4" rx="7.1" ry="11.4"/>
<path class="st8" d="M306.2,230.5l-5.3-23.2c-1.2-5.1,0.5-10.7,3.6-12.6l0,0l15.3-9c5.6-3.3,11.8,1.3,13.8,10.3l0,0
	c0.4,1.9,0.7,3.9,0.7,6c0,5.2-1.5,10.2-4,13.5c-0.9,1.2-1.9,2.1-3,2.7L306.2,230.5z"/>
<path class="st5" d="M334,201.8c0,5.1-1.5,10-3.9,13.2c-7.2-3-11.5-14.9-9.6-26.4c0.2-1.1,0.4-2.3,0.7-3.4c5.7-2,11.3,3.8,12.5,13
	C333.9,199.4,334,200.6,334,201.8z"/>
<ellipse class="st5" cx="198.3" cy="277.3" rx="6.3" ry="12.3"/>
<polygon class="st6" points="281.3,320.7 286.8,320.7 289.4,297.8 281.3,297.8 "/>
<path class="st9" d="M279.9,317.8h10.8l0,0c3.8,0,6.9,5,6.9,11.1l0,0v0.4h-17.7L279.9,317.8z"/>
<path class="st9" d="M287.6,311.3c-0.1,0-0.1,0-0.2,0l-7.6-0.9c-1.1-0.2-1.9-1.7-1.8-3.5c0-0.3,0.1-0.6,0.1-0.8l10.2-36.8
	c0.1-0.7,0.1-1.4-0.1-2c-0.2-0.6-0.6-1.1-1-1.3c-4.8-2-17.1-7.4-27.7-13.6c-4.6-2.7-7.4-6.6-8.5-11.5c-1.5-6.5,0.7-12.5,0.8-12.8
	l0.1-0.2l10,1.5l10.8,1.5l23.8,20.5c4.1,3.6,5.9,11.7,4,18.6l-11,39.5C289.2,310.6,288.4,311.3,287.6,311.3z"/>
<ellipse class="st6" cx="263.6" cy="138.9" rx="11" ry="17.7"/>
<polygon class="st6" points="278.1,322.9 283.6,322.9 286.2,300 278.1,300 "/>
<path class="st9" d="M276.7,320h10.8l0,0c3.8,0,6.9,5,6.9,11.1l0,0v0.4h-17.7L276.7,320z"/>
<path class="st9" d="M284.5,313.5c-0.1,0-0.1,0-0.2,0l-7.6-0.9c-1.1-0.2-1.9-1.7-1.8-3.5c0-0.3,0.1-0.6,0.1-0.8l10.2-36.8
	c0.1-0.7,0.1-1.4-0.1-2c-0.2-0.6-0.6-1.1-1-1.3c-4.8-2-17.1-7.4-27.7-13.6c-4.6-2.7-7.4-6.6-8.5-11.5c-1.5-6.5,0.7-12.5,0.8-12.8
	l0.1-0.2l10,1.5l10.8,1.5l23.8,20.5c4.1,3.6,5.9,11.7,4,18.6l-11,39.5C286,312.7,285.3,313.5,284.5,313.5z"/>
<path class="st3" d="M267,166.6l-11.7-6.5c0,0-7.3,9-3.8,31.5c1.8,11.6,1.3,23.8-1.5,34.8c-0.3,1.4-0.7,2.7-1.2,4
	c0,0,13,25.2,25.1,6.5l-4.7-36.4C269.3,200.5,276.7,176.4,267,166.6z"/>
<path class="st9" d="M265,157.2c-1.6-3.8-2.8-9-1.1-12.6c1.7-3.5,5.1-3,7.7-4.6c3.6-2.2,5.7-9,5.1-15.2s-3.7-11.2-7.4-13.3
	c-3.7-2.1-7.8-1.4-11.4,1c-4.4,3-8.2,8.7-9.8,15.9c-1.6,7.2-0.7,15.9,2.6,21.5c3.5,6,9.1,7.6,14.2,7.5"/>
<path class="st6" d="M317.1,200.6c-1.1-3.9-3.9-5.6-6.4-3.9c-0.3,0.2-0.5,0.4-0.7,0.7L267.2,182l-0.5,16.8l42.2,9.9
	c1.7,3.4,4.7,4,6.8,1.3C317.5,207.7,318.1,203.8,317.1,200.6L317.1,200.6z"/>
<path class="st3" d="M274.7,183.5l-2.6,17c-0.3,1.9-1.5,3-2.6,2.5c-0.1,0-0.2-0.1-0.3-0.2l-10.1-6.6c-3.2-1.3-5.2-6.5-4.4-11.7
	c0.8-5.1,4.1-8.3,7.3-7l10.8,1.6c1.2,0.2,2.1,1.9,1.9,3.8C274.8,183.1,274.7,183.3,274.7,183.5L274.7,183.5z"/>
<ellipse class="st5" cx="312.2" cy="208.9" rx="3.1" ry="5"/>
<path class="st8" d="M451.2,372.5c0,0.4-0.2,0.7-0.4,0.7H79.9c-0.2,0-0.4-0.3-0.4-0.7c0-0.4,0.2-0.7,0.4-0.7h370.8
	C451,371.8,451.2,372.1,451.2,372.5z"/>
</svg>
