<?xml version="1.0" encoding="utf-8"?>
<!-- Generator: Adobe Illustrator 24.0.2, SVG Export Plug-In . SVG Version: 6.00 Build 0)  -->
<svg version="1.1" id="bf2b12fd-98ef-4df9-abe4-52340225686d"
	 xmlns="http://www.w3.org/2000/svg" xmlns:xlink="http://www.w3.org/1999/xlink" x="0px" y="0px" viewBox="0 0 720 630.2"
	 style="enable-background:new 0 0 720 630.2;" xml:space="preserve">
<style type="text/css">
	.st0{fill:url(#SVGID_1_);}
	.st1{fill:#FFFFFF;}
	.st2{fill:#9ED16F;}
	.st3{clip-path:url(#SVGID_3_);}
	.st4{fill:url(#SVGID_4_);}
	.st5{opacity:0.1;enable-background:new    ;}
	.st6{fill:#FF5252;}
</style>
<title>discount</title>
<linearGradient id="SVGID_1_" gradientUnits="userSpaceOnUse" x1="349.063" y1="59.2234" x2="349.063" y2="533.9648" gradientTransform="matrix(1 0 0 -1 0 629.8898)">
	<stop  offset="0" style="stop-color:#808080;stop-opacity:0.25"/>
	<stop  offset="0.5351" style="stop-color:#808080;stop-opacity:0.12"/>
	<stop  offset="1" style="stop-color:#808080;stop-opacity:0.1"/>
</linearGradient>
<polygon class="st0" points="563.8,552 447,552 247.9,570.7 47.4,552 47.4,95.9 247.1,109.9 451.1,95.9 650.8,122.3 645.6,472.6 "/>
<polygon class="st1" points="560,545.7 445.7,545.7 251,563.8 54.9,545.7 54.9,101.9 250.2,115.5 449.8,101.9 645,127.6 640,468.4 
	"/>
<polygon class="st2" points="560.6,533.6 440.3,533.6 256.7,550.7 71.6,533.6 71.6,115 255.9,127.8 444.1,115 628.3,139.2 
	628.3,468.1 "/>
<g>
	<defs>
		<polygon id="SVGID_2_" points="560.6,533.6 440.3,533.6 256.7,550.7 71.6,533.6 71.6,115 255.9,127.8 444.1,115 628.3,139.2 
			628.3,468.1 		"/>
	</defs>
	<clipPath id="SVGID_3_">
		<use xlink:href="#SVGID_2_"  style="overflow:visible;"/>
	</clipPath>
	<g class="st3">
		<polygon class="st1" points="792.7,659.3 370,434 477.4,90.6 440.8,76.6 388.8,243.1 -25.8,22.1 -42.5,60.5 376.1,283.7 
			280.5,589.4 317.1,603.3 357.3,474.6 775.9,697.8 		"/>
	</g>
</g>
<linearGradient id="SVGID_4_" gradientUnits="userSpaceOnUse" x1="596.071" y1="84.8727" x2="596.071" y2="171.2796" gradientTransform="matrix(1 0 0 -1 0 629.8898)">
	<stop  offset="0" style="stop-color:#000000;stop-opacity:0.12"/>
	<stop  offset="0.5513" style="stop-color:#000000;stop-opacity:9.000000e-02"/>
	<stop  offset="1" style="stop-color:#000000;stop-opacity:2.000000e-02"/>
</linearGradient>
<polygon class="st4" points="552.1,545 553.5,458.6 640,462 "/>
<polygon class="st1" points="71.6,295.9 336.9,409 354.5,444.2 337,461.8 71.6,340.6 "/>
<polygon class="st1" points="560,545 561.3,465.3 640,468.4 "/>
<polygon class="st1" points="432.1,478 542.8,128 586.8,133.8 462.8,496.3 "/>
<polyline class="st5" points="255.9,550.7 440.2,533.6 440.2,115 255.9,127.8 "/>
<path class="st6" d="M424.6,267.4c0,33.8-63.6,129.6-63.6,129.6s-63.6-95.8-63.6-129.6c0-33.8,28.5-61.2,63.6-61.2
	C396.2,206.1,424.6,233.6,424.6,267.4C424.6,267.4,424.6,267.4,424.6,267.4L424.6,267.4z"/>
<ellipse class="st1" cx="361" cy="263.1" rx="19.2" ry="18.5"/>
<polygon class="st1" points="531.3,295.9 628.3,319.9 628.3,364.6 509.6,323.8 "/>
<polygon class="st1" points="161.8,381.8 137.3,544.9 165.1,550.5 201.7,400 201.7,378.7 "/>
<polygon class="st1" points="160.8,169 133.4,322.2 154.6,333.3 205.3,168.9 "/>
<ellipse class="st6" cx="213.4" cy="138.6" rx="5.9" ry="5.6"/>
<ellipse class="st6" cx="143.2" cy="430.1" rx="5.9" ry="5.6"/>
<ellipse class="st6" cx="137.3" cy="471.6" rx="5.9" ry="5.6"/>
<ellipse class="st6" cx="199.5" cy="461.8" rx="5.9" ry="5.6"/>
<ellipse class="st6" cx="99.3" cy="292.8" rx="5.9" ry="5.6"/>
<ellipse class="st6" cx="560.1" cy="287.2" rx="5.9" ry="5.6"/>
<ellipse class="st6" cx="509.6" cy="482.9" rx="5.9" ry="5.6"/>
</svg>
