<?xml version="1.0" encoding="utf-8"?>
<!-- Generator: Adobe Illustrator 24.0.2, SVG Export Plug-In . SVG Version: 6.00 Build 0)  -->
<svg version="1.1" id="fd01fc53-8d1b-486a-a481-e11f41af06c1"
	 xmlns="http://www.w3.org/2000/svg" xmlns:xlink="http://www.w3.org/1999/xlink" x="0px" y="0px" viewBox="0 0 907.2 771.4"
	 style="enable-background:new 0 0 907.2 771.4;" xml:space="preserve">
<style type="text/css">
	.st0{fill:#444053;}
	.st1{fill:#3F3D56;}
	.st2{fill:#F2F2F2;}
	.st3{fill:#FFFFFF;}
	.st4{opacity:0.2;}
	.st5{fill:none;stroke:#444053;stroke-width:3;stroke-miterlimit:10;}
	.st6{fill:#9ED16F;}
	.st7{fill:#1D509F;}
	.st8{fill:#F1F1F1;}
	.st9{fill:#FFC0BB;}
	.st10{fill:#282828;}
	.st11{opacity:0.6;fill:#FC8D84;enable-background:new    ;}
	.st12{fill:#F46C0F;}
	.st13{fill:#F99893;}
	.st14{fill:#333333;}
	.st15{opacity:0.5;fill:#DAEEF7;enable-background:new    ;}
	.st16{opacity:0.5;}
	.st17{fill:#DAEEF7;}
	.st18{fill:#06BFAD;}
	.st19{fill:#EFAC7F;}
	.st20{fill:#3797DB;}
	.st21{fill:url(#SVGID_1_);}
	.st22{fill:#62BDF3;}
	.st23{opacity:0.3;fill:#DAEEF7;enable-background:new    ;}
	.st24{fill:#62BDF3;stroke:#3797DB;stroke-width:2;stroke-miterlimit:10;}
	.st25{opacity:0.6;fill:#D19369;enable-background:new    ;}
	.st26{fill:#5E2E0D;}
	.st27{fill:#D19369;}
	.st28{opacity:0.5;fill:#2D185D;enable-background:new    ;}
	.st29{fill:#2D185D;}
</style>
<title>destinations</title>
<g>
	<polygon class="st0" points="616.2,132.5 616.2,738.7 455.5,710 260,761 258.4,761.4 102.9,706.7 102.9,179.7 264.4,132.5 
		441,179.7 447.7,177.9 	"/>
	<path class="st1" d="M165.7,494.9c-0.8-1.5-1.6-3.1-2.4-4.6l1.2-1c0.7,1.5,1.5,3,2.3,4.5L165.7,494.9z"/>
	<path class="st2" d="M858.1,382.4c-30-148.4-133.5-255.5-255-259.8c-64.2-2.3-131.8,24.5-181,118.5c-88,167.9,5.4,283.9,70.5,339
		c31.5,26.7,59.8,58.8,84.2,95.3c44,65.7,128.6,147.4,229.3,19.4C879.2,602.1,878.1,481.2,858.1,382.4z"/>
	<polygon class="st3" points="603.5,166.5 603.5,712 453.4,686.3 270.9,732.1 269.4,732.5 124.2,683.2 124.2,208.9 275,166.5 
		439.8,208.9 446.1,207.3 	"/>
	<path class="st1" d="M159,480.6c-1.3-3.3-2.6-6.7-3.7-10.1l1.3-0.7c1.1,3.4,2.3,6.7,3.6,10L159,480.6z M152.4,460
		c-0.9-3.5-1.7-7.2-2.3-10.8l1.4-0.4c0.6,3.6,1.4,7.1,2.3,10.6L152.4,460z M148.5,438.2c-0.4-3.7-0.7-7.4-0.9-11.1l1.4-0.1
		c0.2,3.7,0.5,7.3,0.9,10.9L148.5,438.2z M148.9,416h-1.4c0.1-3.7,0.3-7.4,0.6-11.1l1.4,0.2C149.1,408.7,148.9,412.4,148.9,416z
		 M150.7,394.2l-1.4-0.3c0.5-3.6,1.2-7.3,2-10.9l1.4,0.5C151.9,387,151.2,390.6,150.7,394.2L150.7,394.2z M155.4,373l-1.4-0.6
		c1-3.5,2.2-6.9,3.4-10.3l1.3,0.8C157.5,366.2,156.4,369.6,155.4,373L155.4,373z M352.5,367.4c-1.1-3.4-2.4-6.7-3.7-9.9l1.3-0.8
		c1.4,3.3,2.6,6.7,3.8,10.1L352.5,367.4z M162.7,353.1l-1.2-0.9c1.5-3.2,3-6.4,4.7-9.4l1.2,1C165.7,346.8,164.2,349.9,162.7,353.1z
		 M344.4,348c-1.6-3.1-3.2-6.1-5-9l1.1-1.1c1.8,3,3.5,6,5,9.2L344.4,348z M172.6,335l-1.1-1.1c1.9-2.9,3.8-5.7,5.9-8.3l1,1.3
		C176.4,329.4,174.5,332.2,172.6,335z M333.9,330.4c-1.9-2.7-4-5.4-6.1-7.9l1-1.3c2.1,2.6,4.2,5.2,6.2,8L333.9,330.4z M184.7,319.1
		l-1-1.4c2.2-2.4,4.5-4.8,6.9-7l0.9,1.5C189.2,314.4,186.9,316.7,184.7,319.1z M321.3,315.3c-2.3-2.3-4.6-4.5-7-6.5l0.8-1.5
		c2.4,2.1,4.8,4.3,7.1,6.6L321.3,315.3z M198.7,306l-0.8-1.5c2.5-2,5.1-3.8,7.7-5.5l0.7,1.6C203.7,302.2,201.2,304.1,198.7,306z
		 M306.8,302.9c-2.5-1.8-5.1-3.5-7.8-5l0.6-1.6c2.7,1.5,5.3,3.3,7.9,5.1L306.8,302.9z M214.2,295.9l-0.6-1.7
		c2.7-1.4,5.5-2.7,8.3-3.8l0.4,1.7C219.6,293.2,216.9,294.5,214.2,295.9z M291,293.7c-2.7-1.2-5.5-2.4-8.3-3.3l0.4-1.7
		c2.8,1,5.7,2.1,8.4,3.4L291,293.7z M230.8,289.2l-0.3-1.8c2.9-0.8,5.8-1.5,8.7-2.1l0.2,1.8C236.5,287.7,233.6,288.4,230.8,289.2
		L230.8,289.2z M274.1,288c-2.8-0.7-5.8-1.2-8.6-1.5l0.1-1.8c2.9,0.4,5.9,0.9,8.8,1.6L274.1,288z M248,286l-0.1-1.8
		c2.9-0.2,5.9-0.3,8.8-0.2v1.8C253.9,285.7,250.9,285.8,248,286z"/>
	<path class="st1" d="M356.8,383c-0.4-1.7-0.8-3.5-1.2-5.2l1.4-0.6c0.4,1.7,0.9,3.5,1.3,5.2L356.8,383z"/>
	<path class="st1" d="M348.1,281.5h-1.4c0-1.8,0-3.7,0.1-5.5l1.4,0.1C348.1,277.9,348.1,279.7,348.1,281.5z"/>
	<path class="st1" d="M348.7,286.9l-1.4-0.2c0.3-3.7,0.7-7.3,1.2-10.9l1.4,0.3C349.5,279.7,349,283.3,348.7,286.9z M351.8,265.4
		l-1.4-0.4c0.7-3.6,1.6-7.1,2.5-10.6l1.4,0.6C353.3,258.4,352.5,261.9,351.8,265.4z M581.4,246.3c-1.1-3.4-2.3-6.7-3.5-10l1.3-0.8
		c1.3,3.3,2.5,6.7,3.6,10.1L581.4,246.3z M357.3,244.7L356,244c1.1-3.4,2.4-6.8,3.7-10.1l1.3,0.8C359.6,238,358.4,241.4,357.3,244.7
		z M573.8,226.7c-1.4-3.1-3-6.2-4.6-9.2l1.2-1c1.6,3,3.2,6.2,4.7,9.3L573.8,226.7z M365.1,225.2l-1.2-0.9c1.5-3.1,3.1-6.3,4.8-9.3
		l1.2,1C368.2,219,366.6,222.1,365.1,225.2L365.1,225.2z M564,208.7c-1.8-2.8-3.7-5.6-5.6-8.3l1.1-1.2c2,2.7,3.9,5.5,5.7,8.4
		L564,208.7z M375,207.3l-1.1-1.1c1.8-2.9,3.8-5.7,5.8-8.3l1.1,1.2C378.8,201.7,376.8,204.5,375,207.3z M552.3,192.6
		c-2.1-2.5-4.3-4.9-6.5-7.2l0.9-1.4c2.3,2.3,4.5,4.8,6.6,7.3L552.3,192.6z M386.9,191.4l-1-1.3c2.1-2.5,4.4-4.9,6.6-7.2l0.9,1.4
		C391.2,186.5,389,188.9,386.9,191.4L386.9,191.4z M538.9,178.7c-2.4-2.1-4.8-4.1-7.3-6l0.7-1.6c2.5,1.9,5,3.9,7.3,6.1L538.9,178.7z
		 M400.4,177.7l-0.8-1.5c2.4-2.1,4.9-4.1,7.4-5.9l0.7,1.6C405.2,173.7,402.8,175.7,400.4,177.7L400.4,177.7z M524,167.4
		c-2.6-1.7-5.2-3.2-7.9-4.6l0.6-1.7c2.7,1.4,5.4,3,8,4.7L524,167.4z M415.3,166.6l-0.6-1.6c2.6-1.6,5.3-3.2,8-4.6l0.5,1.7
		C420.6,163.5,417.9,165,415.3,166.6L415.3,166.6z M508.1,158.9c-2.7-1.2-5.5-2.2-8.3-3.1l0.4-1.8c2.8,0.9,5.7,2,8.4,3.2
		L508.1,158.9z M431.3,158.4l-0.4-1.8c2.8-1.1,5.6-2.2,8.4-3.1l0.3,1.8C436.9,156.2,434.1,157.2,431.3,158.4L431.3,158.4z
		 M491.3,153.4c-2.8-0.7-5.7-1.2-8.6-1.6l0.2-1.8c2.9,0.4,5.8,1,8.7,1.6L491.3,153.4z M448.2,153.1l-0.2-1.8
		c2.9-0.6,5.8-1.1,8.7-1.5l0.1,1.8C453.9,152,451,152.5,448.2,153.1L448.2,153.1z M474.1,150.9c-2.9-0.1-5.8-0.2-8.7-0.1V149
		c2.9-0.1,5.9-0.1,8.8,0.1L474.1,150.9z"/>
	<g class="st4">
		<polyline class="st5" points="438.4,291.7 438.5,465.5 495.3,465.5 495.3,394.2 592.7,394.2 604.1,375.5 		"/>
		<polyline class="st5" points="121.9,346.9 333.3,346.9 346.3,339.4 351.6,339.4 351.6,507 443.1,507 447,521.9 447,597.4 
			517.6,597.4 517.6,690.7 		"/>
		<line class="st5" x1="379.5" y1="690.7" x2="379.5" y2="507"/>
		<line class="st5" x1="604.1" y1="641.5" x2="379.5" y2="641.5"/>
		<line class="st5" x1="547.9" y1="291.7" x2="547.9" y2="690.7"/>
		<line class="st5" x1="121.2" y1="606.2" x2="604.1" y2="606.2"/>
		<line class="st5" x1="180" y1="690.7" x2="180" y2="291.7"/>
		<line class="st5" x1="292.2" y1="291.7" x2="292.2" y2="690.7"/>
		<line class="st5" x1="121.9" y1="392.5" x2="495.3" y2="394.2"/>
		<line class="st5" x1="230.6" y1="292.4" x2="230.6" y2="690.7"/>
		<polyline class="st5" points="121.2,484.8 292.2,484.8 379.5,606.2 		"/>
		<line class="st5" x1="398.4" y1="291.7" x2="398.4" y2="507"/>
		<line class="st5" x1="379.5" y1="545.5" x2="604.1" y2="545.5"/>
	</g>
	<path class="st1" d="M585.6,240.1c-0.4-1.7-0.8-3.5-1.2-5.2l1.4-0.6c0.4,1.7,0.9,3.5,1.3,5.2L585.6,240.1z"/>
	<ellipse class="st6" cx="164.9" cy="515.1" rx="24" ry="2.3"/>
	<ellipse class="st6" cx="356.1" cy="405.7" rx="24" ry="2.3"/>
	<ellipse class="st6" cx="592.3" cy="291.7" rx="24" ry="2.3"/>
	<polygon class="st1" points="510.7,375 582.8,284.2 583.8,285.5 511.7,376.3 	"/>
	<rect x="368.7" y="386.6" class="st1" width="121.1" height="1.8"/>
	<polygon class="st1" points="278.9,484.3 346.6,399 347.6,400.3 279.9,485.6 	"/>
	<rect x="177.5" y="496.1" class="st1" width="80.9" height="1.8"/>
	<polygon class="st1" points="75.1,608.9 155.5,507.6 156.5,508.9 76.1,610.2 	"/>
	<path class="st1" d="M164.9,513.8c-7.3,0-13.3-7.5-13.3-16.8s6-16.8,13.3-16.8s13.3,7.5,13.3,16.8l0,0
		C178.2,506.3,172.3,513.8,164.9,513.8z M164.9,482.1c-6.6,0-11.9,6.7-11.9,14.9s5.3,14.9,11.9,14.9s11.9-6.7,11.9-14.9l0,0
		C176.8,488.8,171.5,482.1,164.9,482.1z"/>
	<path class="st1" d="M271,513.8c-7.3,0-13.3-7.5-13.3-16.8s6-16.8,13.3-16.8s13.3,7.5,13.3,16.8l0,0
		C284.3,506.3,278.3,513.8,271,513.8z M271,482.1c-6.6,0-11.9,6.7-11.9,14.9s5.3,14.9,11.9,14.9s11.9-6.7,11.9-14.9l0,0
		C282.9,488.8,277.5,482.1,271,482.1z"/>
	<path class="st1" d="M356.1,404.3c-7.3,0-13.3-7.5-13.3-16.8s6-16.8,13.3-16.8s13.3,7.5,13.3,16.8S363.5,404.3,356.1,404.3z
		 M356.1,372.6c-6.6,0-11.9,6.7-11.9,14.9c0,8.3,5.3,14.9,11.9,14.9s11.9-6.7,11.9-14.9C368,379.3,362.7,372.6,356.1,372.6
		L356.1,372.6z"/>
	<path class="st1" d="M502.4,404.3c-7.3,0-13.3-7.5-13.3-16.8s6-16.8,13.3-16.8s13.3,7.5,13.3,16.8S509.7,404.3,502.4,404.3z
		 M502.4,372.6c-6.6,0-11.9,6.7-11.9,14.9c0,8.3,5.3,14.9,11.9,14.9c6.6,0,11.9-6.7,11.9-14.9C514.2,379.3,508.9,372.6,502.4,372.6
		L502.4,372.6z"/>
	<path class="st1" d="M592.3,290.3c-7.3,0-13.3-7.5-13.3-16.8c0-9.3,6-16.8,13.3-16.8s13.3,7.5,13.3,16.8
		C605.6,282.8,599.6,290.3,592.3,290.3z M592.3,258.6c-6.6,0-11.9,6.7-11.9,14.9c0,8.3,5.3,14.9,11.9,14.9c6.6,0,11.9-6.7,11.9-14.9
		C604.1,265.3,598.8,258.6,592.3,258.6L592.3,258.6z"/>
	<path class="st1" d="M66.6,637.6c-7.3,0-13.3-7.5-13.3-16.8s6-16.8,13.3-16.8s13.3,7.6,13.3,16.8l0,0
		C79.9,630.1,74,637.6,66.6,637.6z M66.6,605.9c-6.6,0-11.9,6.7-11.9,14.9c0,8.3,5.3,14.9,11.9,14.9c6.6,0,11.9-6.7,11.9-14.9l0,0
		C78.5,612.6,73.2,605.9,66.6,605.9z"/>
	<path class="st6" d="M164.9,398.1c-13.2,0-24,13.5-24,30.2l0,0c0,16.7,24,71.7,24,71.7s24-55,24-71.7S178.1,398.1,164.9,398.1
		L164.9,398.1z M164.9,444.2c-7,0-12.6-7.1-12.6-15.9s5.6-15.9,12.6-15.9s12.6,7.1,12.6,15.9S171.9,444.2,164.9,444.2L164.9,444.2z"
		/>
	<path class="st7" d="M356.1,284.9c-13.2,0-24,13.5-24,30.2s24,71.7,24,71.7s24-55,24-71.7C380.1,298.4,369.4,284.9,356.1,284.9
		L356.1,284.9z M356.1,330.9c-7,0-12.6-7.1-12.6-15.9c0-8.8,5.6-15.9,12.6-15.9s12.6,7.1,12.6,15.9
		C368.7,323.8,363.1,330.9,356.1,330.9L356.1,330.9z"/>
	<path class="st6" d="M592.3,176.1c-13.2,0-24,13.5-24,30.2l0,0c0,16.7,24,71.7,24,71.7s24-55,24-71.7
		C616.2,189.7,605.5,176.1,592.3,176.1L592.3,176.1z M592.3,222.2c-7,0-12.6-7.1-12.6-15.9c0-8.8,5.6-15.9,12.6-15.9
		s12.6,7.1,12.6,15.9S599.2,222.2,592.3,222.2L592.3,222.2L592.3,222.2z"/>
	<ellipse class="st8" cx="479.7" cy="652.6" rx="13" ry="16.3"/>
	<ellipse class="st8" cx="379.9" cy="588.2" rx="13" ry="16.3"/>
	<g>
		<path class="st9" d="M736,733l-0.3,11l-13.8,9.7c0,0-6.5-8.6-6.4-9.7c0.1-1.2,0-20.3,0-20.3s15.7,5.8,16.4,5.8
			C732.6,729.6,736,733,736,733z"/>
		<polygon class="st9" points="668.7,744 668.7,730.3 652.7,726 649.2,727.6 648.5,744 653.6,758.3 		"/>
		<path class="st10" d="M691.4,534.7l20.2,200.1c7.9-0.4,16.1-0.9,24.5-1.9c0.9-38.4,3.6-153.1,3.2-199.2
			c-0.5-55.7-17.6-63.9-17.6-63.9l-29.1-7.4l-39.7,6.9C665.2,516.4,691.4,534.7,691.4,534.7z"/>
		<path class="st10" d="M645.7,732.5c6,0.7,14.3,1.5,24.1,2.1l21.1-231.4l2.2-36.8c0,0-32.5-15.3-43.2,2.9
			c-10.8,18.1-10.4,45.1-10.4,45.1S640.9,684.8,645.7,732.5z"/>
		<path class="st10" d="M668.7,744.2v15.1c0,1.3-1.1,2.2-2.3,2.2h-36.3c-2.6,0-3.6-3.3-1.4-4.7l19.9-12.6
			C648.5,744.2,657,749.8,668.7,744.2z"/>
		<path class="st10" d="M735.8,744.2v15.1c0,1.3-1.1,2.2-2.3,2.2h-36.3c-2.6,0-3.6-3.3-1.4-4.7l19.9-12.6
			C715.7,744.2,724.1,749.8,735.8,744.2z"/>
		<path class="st9" d="M635.9,393.9l-8.9,27.9c0,0-38.7-35.6-38.5-45.6l0.7-3c0.9-3.8,0-6.3-1.6-6.4h-0.3c0,0-2.6,5.4-4.7,9.8
			l-2.3-2.1l-11.8,14.4l13.5,6.3l0,0l0,0c0,0,41.3,64,50.7,59.8s23.6-39.4,23.6-39.4L635.9,393.9z"/>
		<path class="st9" d="M783.9,415.3c0,0,12.8,17.8,11.4,21.6c-1.5,3.8-65.2,54.4-65.2,54.4s-1.7,13.6-9,17.2l-9.3-16.3l52.8-57.3
			l-4.1-5.7L783.9,415.3z"/>
		<polygon class="st9" points="697.4,332 700.1,353.4 678.5,352.6 679.1,328.3 		"/>
		<path class="st11" d="M678.8,339.4l0.3-11.3l18.6,5.8l0.5,4.2C694.1,339.8,686.2,341.6,678.8,339.4z"/>
		<polygon class="st12" points="661.6,292.1 662.1,306.8 664.7,308 666.9,289.7 		"/>
		<path class="st13" d="M666.4,304.9c1.1,3.2-0.3,6.5-2.9,7.3c-2.7,0.8-5.7-1.2-6.7-4.4c-1.1-3.2,0.3-6.5,2.9-7.3
			C662.4,299.6,665.4,301.5,666.4,304.9z"/>
		<path class="st9" d="M665.9,323.3c-0.7-1.4-1.3-2.9-1.7-4.5c-1.2-4.1-1.6-8.5-1.7-12.2c0-0.8-0.1-1.6-0.2-2.4
			c-0.3-3.2,0-6.6,1-10.1c3.4-11.1,14.1-18.8,25.9-18.8c16,0.1,28.1,13.3,26.8,28.3c1.8-0.8,3.7-0.8,5.3,0c3.1,1.6,3.9,6,1.8,9.7
			c-2.1,3.8-6.3,5.4-9.4,3.8c-0.4-0.2-0.8-0.5-1.1-0.8c-2.4,12.7-14,21.8-26.9,20.6c-6.3-0.6-11.9-3.6-15.8-7.9
			c-0.3-0.3-0.5-0.5-0.8-0.9C667.7,326.7,666.7,325,665.9,323.3z"/>
		<path class="st14" d="M691.7,304c-0.1,1.3,0.8,2.3,2.1,2.5c1.3,0.1,2.4-0.8,2.6-2.1c0.1-1.3-0.8-2.3-2.1-2.5
			C693,301.9,691.9,302.8,691.7,304z"/>
		<path class="st14" d="M671.5,303.5c-0.1,1.3,0.8,2.3,2.1,2.5c1.3,0.1,2.4-0.8,2.6-2.1c0.1-1.3-0.8-2.3-2.1-2.5
			C672.8,301.3,671.6,302.3,671.5,303.5z"/>
		<path class="st12" d="M689.4,299.3c1.2-0.4,2.3-0.6,3.5-0.8c1.1-0.2,2.2-0.2,3.3,0c1.1,0.2,2.1,0.4,3.1,0.9l0.4,0.2
			c0.1,0,0.3,0.1,0.4,0.2l0.8,0.4c0.5,0.3,1,0.6,1.6,0.9c-0.3-0.5-0.6-1.1-1-1.5s-0.8-0.9-1.4-1.3c-1-0.8-2.3-1.3-3.6-1.4
			c-1.3-0.1-2.7,0-3.8,0.4C691.3,297.7,690.2,298.3,689.4,299.3z"/>
		<path class="st12" d="M679.9,298.9c-0.7-1-1.8-1.8-2.9-2.3c-1.2-0.5-2.5-0.8-3.8-0.7s-2.6,0.4-3.7,1.2c-0.6,0.3-1,0.8-1.5,1.2
			c-0.4,0.4-0.8,0.9-1.2,1.4c0.6-0.2,1.1-0.5,1.6-0.8l0.8-0.4c0.1,0,0.3-0.1,0.4-0.2l0.4-0.1c1.1-0.4,2.2-0.5,3.2-0.6
			c1.1,0,2.2,0,3.3,0.3C677.6,298.1,678.7,298.4,679.9,298.9z"/>
		<path class="st12" d="M660.6,274.4c0,0-8.1-0.5,1.1-6.3c9.2-5.8,32.6-11.3,46.3-2.3c0,0,3.5-5.7,7.6-3.8s-3.3,5.3-3.3,5.3
			s5.4,0.4,6.8,3.1c1,2.1-2.3,1.8-4.1,1.5c3,0.8,12.3,7.6,4,29.9c-2-0.7-16.6-16.5-16.6-16.5s-24.1,11-20.3,3.8
			c0,0-28.4,10.5-22.9-3.1C659.1,285.8,648.2,285.5,660.6,274.4z"/>
		<path class="st3" d="M708.8,369.1c1.1,1.9,2.1,3.8,3.2,5.6l3.2,5.6c1.1,1.9,2.2,3.8,3.3,5.6c1.1,1.9,2.2,3.8,3.3,5.5
			s2.2,3.8,3.3,5.5c0.5,0.9,1.1,1.9,1.7,2.8l1.7,2.8l1.7,2.8c0.3,0.4,0.6,0.9,0.9,1.3l0.9,1.3l0.9,1.3l0.5,0.7l0.5,0.7
			c0.6,0.9,1.2,1.8,1.9,2.7c-2.7-3.3-5.3-6.9-7.7-10.5s-4.7-7.2-6.9-11s-4.3-7.5-6.3-11.3C712.5,376.9,710.6,373,708.8,369.1z"/>
		<path class="st15" d="M726.4,512.5c-2.7,1-5.4,2.1-8.1,3.2c-2.7,1.2-5.3,2.4-7.9,3.7c-2.6,1.3-5.2,2.6-7.8,3.9s-5.1,2.7-7.6,4.1
			l-0.2-0.4c1.9-0.4,3.8-0.7,5.7-0.9s3.8-0.3,5.8-0.3c1.9,0,3.9,0.1,5.8,0.4l1.4,0.2l1.4,0.3l0.7,0.1l0.7,0.2l1.4,0.4l-1.4-0.3
			l-0.7-0.1l-0.7-0.1l-1.4-0.2l-1.4-0.1c-0.5,0-1-0.1-1.4-0.1c-0.5,0-1-0.1-1.4-0.1h-1.4c-0.5,0-1,0-1.4,0c-1.9,0-3.8,0.2-5.7,0.4
			c-1.9,0.2-3.8,0.5-5.7,0.9l-1.7,0.4l1.5-0.9c2.5-1.4,5.1-2.9,7.6-4.1c2.6-1.3,5.2-2.6,7.8-3.8c2.6-1.3,5.3-2.4,8-3.5
			c1.4-0.5,2.7-1.1,4.1-1.6C723.7,513.3,725,513,726.4,512.5z"/>
		<path class="st15" d="M649.9,511.4c1.4,0.4,2.8,0.9,4.1,1.4c1.4,0.5,2.7,1,4.1,1.6c2.7,1.1,5.4,2.3,8,3.5s5.2,2.5,7.8,3.8
			s5.1,2.7,7.6,4.1l1.5,0.9l-1.7-0.4c-1.9-0.4-3.8-0.7-5.7-0.9c-1.9-0.2-3.8-0.4-5.7-0.4c-0.5,0-1,0-1.4,0h-1.4c-0.5,0-1,0-1.4,0.1
			c-0.4,0.1-1,0-1.4,0.1l-1.4,0.1l-1.4,0.2l-0.7,0.1l-0.9,0.1l-1.4,0.3l1.4-0.4l0.7-0.2l0.7-0.1l1.4-0.3l1.4-0.2
			c1.9-0.3,3.8-0.4,5.8-0.4c1.9,0,3.9,0.1,5.8,0.3c1.9,0.2,3.8,0.4,5.7,0.9l-0.2,0.4c-2.5-1.4-5.1-2.8-7.6-4.1
			c-2.6-1.3-5.1-2.7-7.8-3.9c-2.7-1.3-5.2-2.5-7.9-3.7C655.4,513.5,652.7,512.4,649.9,511.4z"/>
		<path class="st15" d="M655.8,479.2c2.4,0.4,4.7,0.8,7.1,1.1c2.4,0.3,4.8,0.6,7.2,0.8c4.8,0.4,9.6,0.8,14.4,0.9c2.4,0,4.8,0,7.2,0
			c2.4-0.1,4.8-0.2,7.2-0.4c2.4-0.2,4.8-0.4,7.1-0.9c2.4-0.4,4.7-0.9,7-1.5c-2.3,0.7-4.6,1.2-7,1.6s-4.8,0.7-7.1,1
			c-2.4,0.2-4.8,0.4-7.2,0.4s-4.8,0.1-7.2,0c-4.8-0.1-9.6-0.4-14.4-0.9c-2.4-0.3-4.8-0.5-7.1-0.9
			C660.5,480.1,658.1,479.7,655.8,479.2z"/>
		<path class="st12" d="M702.4,285.2c0,0,7,15.7,5.9,24.1c0,0,5.1-7,11.6-6.3c0,0,4.3-13.9,1.8-23.4l-15,0.8L702.4,285.2z"/>
		<g class="st16">
			<path class="st17" d="M708.7,486.5c0.1,0.3,0.3,0.5,0.4,0.8l0.4,0.8l0.8,1.6l1.4,2.6l4,7c0.5,1.1,5.8,10.2,7,12.3
				c-1.6-1.9-3.4-3.7-4.6-5.7c-0.6-1-1.2-2.1-1.8-3.1s-1.1-2.1-1.7-3.1c-1.1-2.1-2.2-4.3-3.2-6.4c-0.5-1.1-1-2.2-1.4-3.3
				c-0.2-0.5-0.5-1.1-0.7-1.6C709.1,487.6,708.8,487.1,708.7,486.5z"/>
		</g>
		<path class="st3" d="M702.2,345c-1.2,0.9-2.4,1.8-3.6,2.8l-3.6,2.8l-3.3,2.6c-1.2-1.3-2.4-2.4-3.7-3.8c-1.3-1.3-2.7-2.6-4-3.9
			l-0.3-0.4l-0.3,0.4c-0.9,1.2-1.7,2.3-2.6,3.4c-0.8,1.1-1.6,2.1-2.4,3.1c-1.6-1.2-3.3-2.3-5-3.4l-2.7-1.8c-0.9-0.6-1.8-1.2-2.7-1.8
			c0.8,0.6,1.7,1.3,2.5,2l2.5,2c1.7,1.3,3.4,2.5,5.1,3.8l0.3,0.2l0.2-0.3c0.9-1.1,1.8-2.2,2.7-3.4c0.8-1,1.6-2,2.4-3
			c1.2,1.2,2.4,2.4,3.6,3.6c1.4,1.3,2.7,2.6,4,3.9l0.3,0.3l0.3-0.2l3.5-2.9l3.5-2.9c1.1-1,2.3-2,3.5-2.9c1.1-1,2.3-2,3.4-2.9
			C704.6,343.3,703.4,344.2,702.2,345z"/>
		<path class="st3" d="M683.5,345.6c-0.4,5.3-0.8,10.5-1.2,15.8s-0.7,10.5-0.9,15.8c-0.2,2.7-0.3,5.3-0.4,8l-0.2,3.9l-0.1,3.9
			c-0.2,5.3-0.3,10.5-0.4,15.8c-0.2,10.5-0.1,21.2,0.1,31.7c0.2,5.3,0.3,10.5,0.8,15.8l0.3,3.9c0,0.7,0.1,1.3,0.1,2l0.2,2
			c0.3,2.6,0.5,5.3,0.7,7.9c-0.6-5.3-1.3-10.5-1.7-15.8c-0.5-5.3-0.7-10.5-1-15.8c-0.1-2.7-0.2-5.3-0.3-8c0-1.3-0.4-3.9-0.4-3.9
			l0.4-3.9l-0.4-3.9l0.4-2v-2v-8c0,0,0.2-10.6,0.5-15.9l0.2-3.9l0.2-3.9c0.1-2.7,0.3-5.3,0.5-8c0.3-5.3,0.7-10.5,1.2-15.8l0.3-3.9
			l0.4-3.9C682.8,350.9,683.1,348.2,683.5,345.6z"/>
		<path class="st18" d="M688.9,381.6h18.6l-0.7,13.8c-0.1,2.7-1.6,5.1-3.8,6.6l-0.8,0.5c-3,2-7,1.8-9.9-0.4l0,0
			c-2.1-1.6-3.4-4-3.4-6.6L688.9,381.6L688.9,381.6z"/>
		<path class="st19" d="M736,733l-0.3,11l-13.8,9.7c0,0-6.5-8.6-6.4-9.7c0.1-1.2,0-20.3,0-20.3s15.7,5.8,16.4,5.8
			C732.6,729.6,736,733,736,733z"/>
		<polygon class="st19" points="668.7,744 668.7,730.3 652.7,726 649.2,727.6 648.5,744 653.6,758.3 		"/>
		<path class="st7" d="M691.4,534.7l20.2,200.1c7.9-0.4,16.1-0.9,24.5-1.9c0.9-38.4,3.6-153.1,3.2-199.2
			c-0.5-55.7-17.6-63.9-17.6-63.9l-29.1-7.4l-39.7,6.9C665.2,516.4,691.4,534.7,691.4,534.7z"/>
		<path class="st7" d="M645.7,732.5c6,0.7,14.3,1.5,24.1,2.1l21.1-231.4l2.2-36.8c0,0-32.5-15.3-43.2,2.9
			c-10.8,18.1-10.4,45.1-10.4,45.1S640.9,684.8,645.7,732.5z"/>
		<path class="st7" d="M668.7,744.2v15.1c0,1.3-1.1,2.2-2.3,2.2h-36.3c-2.6,0-3.6-3.3-1.4-4.7l19.9-12.6
			C648.5,744.2,657,749.8,668.7,744.2z"/>
		<path class="st7" d="M735.8,744.2v15.1c0,1.3-1.1,2.2-2.3,2.2h-36.3c-2.6,0-3.6-3.3-1.4-4.7l19.9-12.6
			C715.7,744.2,724.1,749.8,735.8,744.2z"/>
		<path class="st19" d="M635.9,393.9l-8.9,27.9c0,0-38.7-35.6-38.5-45.6l0.7-3c0.9-3.8,0-6.3-1.6-6.4h-0.3c0,0-2.6,5.4-4.7,9.8
			l-2.3-2.1l-11.8,14.4l13.5,6.3l0,0l0,0c0,0,41.3,64,50.7,59.8s23.6-39.4,23.6-39.4L635.9,393.9z"/>
		<path class="st20" d="M652.6,351.7c0,0-5.9,1.7-14.3,14.4c-8.5,12.7-16,47.9-16,47.9l27,18l17.6-42.4L652.6,351.7z"/>
		<path class="st20" d="M623.4,410.5l26.7,17.3c0.9,0.6,1.3,1.7,0.8,2.7l-3.8,8.3c-0.6,1.3-2.2,1.7-3.4,0.9l-27.1-17.5
			c-0.9-0.6-1.3-1.8-0.8-2.8l4.2-8.1C620.6,410.2,622.2,409.8,623.4,410.5z"/>
		<path class="st19" d="M783.9,415.3c0,0,12.8,17.8,11.4,21.6c-1.5,3.8-65.2,54.4-65.2,54.4s-1.7,13.6-9,17.2l-9.3-16.3l52.8-57.3
			l-4.1-5.7L783.9,415.3z"/>
		
			<linearGradient id="SVGID_1_" gradientUnits="userSpaceOnUse" x1="564.58" y1="324.04" x2="588.0062" y2="324.04" gradientTransform="matrix(1 0 0 -1 0 700.9902)">
			<stop  offset="0" style="stop-color:#BFD8F2"/>
			<stop  offset="0.5" style="stop-color:#B8D4F0"/>
			<stop  offset="1" style="stop-color:#5DACDF"/>
		</linearGradient>
		<polygon class="st21" points="579.3,362.3 573.3,362.3 564.6,362.3 569.7,391.7 573.3,391.7 579.3,391.7 583,391.7 588,362.3 		
			"/>
		<path class="st22" d="M589.1,365.1h-25.3c-0.5,0-0.9-0.4-0.9-0.9v-1.3c0-0.5,0.4-0.9,0.9-0.9h25.3c0.5,0,0.9,0.4,0.9,0.9v1.3
			C590.1,364.7,589.7,365.1,589.1,365.1z"/>
		<path class="st23" d="M568.8,370.2c-1,0-1.9,0.1-2.7,0.4l3,17.6c4.9-0.1,8.9-4.1,8.9-9C578,374.3,573.8,370.2,568.8,370.2z"/>
		<polygon class="st19" points="697.4,332 700.1,353.4 678.5,352.6 679.1,328.3 		"/>
		<path class="st22" d="M723.5,348.4c-5.4-3.1-11.4-5-17.6-6.1c-3.8,3.1-15.4,3-21.8,3.2c-9.6,0.3-10.8,0.8-14.6-0.8
			c-8.7,3.2-23.9,8.7-24.1,13.8c-4.3,112,4.6,110.9,4.6,110.9c12,5.2,63.1,2.3,71.3,0c8.1-2.3,14.3-56.1,14.3-56.1l24.7,22.8
			c8.6-7.9,25.6-18.5,25.6-18.5S749,363,723.5,348.4z"/>
		<path class="st24" d="M751.3,426.9l25.9-19.7c1.2-0.9,3-0.7,3.9,0.5l6,8c0.9,1.2,0.7,2.9-0.5,3.8l-25.5,18.9
			c-1.1,0.8-2.8,0.7-3.8-0.4l-6.5-7.1C749.8,429.6,750,427.8,751.3,426.9z"/>
		<path class="st25" d="M678.8,339.4l0.3-11.3l18.6,5.8l0.5,4.2C694.1,339.8,686.2,341.6,678.8,339.4z"/>
		<polygon class="st26" points="661.6,292.1 662.1,306.8 664.7,308 666.9,289.7 		"/>
		<path class="st27" d="M666.4,304.9c1.1,3.2-0.3,6.5-2.9,7.3c-2.7,0.8-5.7-1.2-6.7-4.4c-1.1-3.2,0.3-6.5,2.9-7.3
			C662.4,299.6,665.4,301.5,666.4,304.9z"/>
		<path class="st19" d="M665.9,323.3c-0.7-1.4-1.3-2.9-1.7-4.5c-1.2-4.1-1.6-8.5-1.7-12.2c0-0.8-0.1-1.6-0.2-2.4
			c-0.3-3.2,0-6.6,1-10.1c3.4-11.1,14.1-18.8,25.9-18.8c16,0.1,28.1,13.3,26.8,28.3c1.8-0.8,3.7-0.8,5.3,0c3.1,1.6,3.9,6,1.8,9.7
			c-2.1,3.8-6.3,5.4-9.4,3.8c-0.4-0.2-0.8-0.5-1.1-0.8c-2.4,12.7-14,21.8-26.9,20.6c-6.3-0.6-11.9-3.6-15.8-7.9
			c-0.3-0.3-0.5-0.5-0.8-0.9C667.7,326.7,666.7,325,665.9,323.3z"/>
		<path class="st14" d="M691.7,304c-0.1,1.3,0.8,2.3,2.1,2.5c1.3,0.1,2.4-0.8,2.6-2.1c0.1-1.3-0.8-2.3-2.1-2.5
			C693,301.9,691.9,302.8,691.7,304z"/>
		<path class="st14" d="M671.5,303.5c-0.1,1.3,0.8,2.3,2.1,2.5c1.3,0.1,2.4-0.8,2.6-2.1c0.1-1.3-0.8-2.3-2.1-2.5
			C672.8,301.3,671.6,302.3,671.5,303.5z"/>
		<path class="st26" d="M689.4,299.3c1.2-0.4,2.3-0.6,3.5-0.8c1.1-0.2,2.2-0.2,3.3,0c1.1,0.2,2.1,0.4,3.1,0.9l0.4,0.2
			c0.1,0,0.3,0.1,0.4,0.2l0.8,0.4c0.5,0.3,1,0.6,1.6,0.9c-0.3-0.5-0.6-1.1-1-1.5s-0.8-0.9-1.4-1.3c-1-0.8-2.3-1.3-3.6-1.4
			c-1.3-0.1-2.7,0-3.8,0.4C691.3,297.7,690.2,298.3,689.4,299.3z"/>
		<path class="st26" d="M679.9,298.9c-0.7-1-1.8-1.8-2.9-2.3c-1.2-0.5-2.5-0.8-3.8-0.7s-2.6,0.4-3.7,1.2c-0.6,0.3-1,0.8-1.5,1.2
			c-0.4,0.4-0.8,0.9-1.2,1.4c0.6-0.2,1.1-0.5,1.6-0.8l0.8-0.4c0.1,0,0.3-0.1,0.4-0.2l0.4-0.1c1.1-0.4,2.2-0.5,3.2-0.6
			c1.1,0,2.2,0,3.3,0.3C677.6,298.1,678.7,298.4,679.9,298.9z"/>
		<path class="st26" d="M660.6,274.4c0,0-8.1-0.5,1.1-6.3c9.2-5.8,32.6-11.3,46.3-2.3c0,0,3.5-5.7,7.6-3.8s-3.3,5.3-3.3,5.3
			s5.4,0.4,6.8,3.1c1,2.1-2.3,1.8-4.1,1.5c3,0.8,12.3,7.6,4,29.9c-2-0.7-16.6-16.5-16.6-16.5s-24.1,11-20.3,3.8
			c0,0-28.4,10.5-22.9-3.1C659.1,285.8,648.2,285.5,660.6,274.4z"/>
		<path class="st26" d="M720.1,302c6.2-2.6,1-8.3,1-8.3c7.3-5.3,3.2-11.8,0.8-12.3c4.6-9-3.6-14-6.9-12c3.8-7.5-5-10.1-7.4-6.6
			c-4.1-8.4-11.4-5.2-12.7-2.1c-3.2-6-11-3.7-11.4,0.2c-3.7-5.4-11.5-1.6-11.2,2.5c-5.1-3.9-14.6,0-8.5,4.8c6.2,4.7,37.8,13,37.8,13
			s-0.4,10.1,2.9,12.6c3.3,2.6,4.2,1.8,4.2,1.8c-3.9,8.1-2.8,10.2-0.9,11C714,301,720.1,302,720.1,302z"/>
		<path class="st3" d="M675.3,321.2c0.8,2.9,4.2,4.9,8.3,4.8s7.5-2.2,8.1-5.1L675.3,321.2z"/>
		<path class="st20" d="M708.8,369.1c1.1,1.9,2.1,3.8,3.2,5.6l3.2,5.6c1.1,1.9,2.2,3.8,3.3,5.6c1.1,1.9,2.2,3.8,3.3,5.5
			s2.2,3.8,3.3,5.5c0.5,0.9,1.1,1.9,1.7,2.8l1.7,2.8l1.7,2.8c0.3,0.4,0.6,0.9,0.9,1.3l0.9,1.3l0.9,1.3l0.5,0.7l0.5,0.7
			c0.6,0.9,1.2,1.8,1.9,2.7c-2.7-3.3-5.3-6.9-7.7-10.5s-4.7-7.2-6.9-11s-4.3-7.5-6.3-11.3C712.5,376.9,710.6,373,708.8,369.1z"/>
		<path class="st28" d="M726.4,512.5c-2.7,1-5.4,2.1-8.1,3.2c-2.7,1.2-5.3,2.4-7.9,3.7c-2.6,1.3-5.2,2.6-7.8,3.9s-5.1,2.7-7.6,4.1
			l-0.2-0.4c1.9-0.4,3.8-0.7,5.7-0.9s3.8-0.3,5.8-0.3c1.9,0,3.9,0.1,5.8,0.4l1.4,0.2l1.4,0.3l0.7,0.1l0.7,0.2l1.4,0.4l-1.4-0.3
			l-0.7-0.1l-0.7-0.1l-1.4-0.2l-1.4-0.1c-0.5,0-1-0.1-1.4-0.1c-0.5,0-1-0.1-1.4-0.1h-1.4c-0.5,0-1,0-1.4,0c-1.9,0-3.8,0.2-5.7,0.4
			c-1.9,0.2-3.8,0.5-5.7,0.9l-1.7,0.4l1.5-0.9c2.5-1.4,5.1-2.9,7.6-4.1c2.6-1.3,5.2-2.6,7.8-3.8c2.6-1.3,5.3-2.4,8-3.5
			c1.4-0.5,2.7-1.1,4.1-1.6C723.7,513.3,725,513,726.4,512.5z"/>
		<path class="st26" d="M702.4,285.2c0,0,7,15.7,5.9,24.1c0,0,5.1-7,11.6-6.3c0,0,4.3-13.9,1.8-23.4l-15,0.8L702.4,285.2z"/>
		<path class="st19" d="M569.4,389.7h-0.2c-1.5,0.1-2.8-0.9-3-2.3l-2.8-16.2c-0.2-0.8,0.2-1.6,0.8-2.1c2.1-1.5,6.5-4.4,7.4-3.9
			c1.2,0.7-5.2,5.9-4.8,6.3c0.5,0.4,7.8-2.1,7.9-1.2c0.2,0.8-6.7,4.1-6.6,4.6c0.1,0.4,7-0.7,7.4,0.1c0.3,0.7-6.6,2.9-6.6,3.2
			L569.4,389.7z"/>
		<path class="st19" d="M587.8,366.8c0,0-6.4-1.1-6.8,0c-0.4,1.1,5.2,0.4,6.2,3.5C588.3,373.3,587.8,366.8,587.8,366.8z"/>
		<path class="st19" d="M567.2,378.2c0,0,7,0.6,7.4,1.6c0.5,1-6.9,1.1-6.9,1.1L567.2,378.2z"/>
		<path class="st29" d="M708.7,486.5c0.1,0.3,0.3,0.5,0.4,0.8l0.4,0.8l0.8,1.6l1.4,2.6l4,7c0.5,1.1,5.8,10.2,7,12.3
			c-1.6-1.9-3.4-3.7-4.6-5.7c-0.6-1-1.2-2.1-1.8-3.1s-1.1-2.1-1.7-3.1c-1.1-2.1-2.2-4.3-3.2-6.4c-0.5-1.1-1-2.2-1.4-3.3
			c-0.2-0.5-0.5-1.1-0.7-1.6C709.1,487.6,708.8,487.1,708.7,486.5z"/>
		<polygon class="st20" points="668,345.2 678.8,340.8 683.7,345.2 698.2,339.1 705.9,342.4 691.8,353.2 683.8,346.1 678.5,352.6 		
			"/>
		<path class="st20" d="M702.2,345c-1.2,0.9-2.4,1.8-3.6,2.8l-3.6,2.8l-3.3,2.6c-1.2-1.3-2.4-2.4-3.7-3.8c-1.3-1.3-2.7-2.6-4-3.9
			l-0.3-0.4l-0.3,0.4c-0.9,1.2-1.7,2.3-2.6,3.4c-0.8,1.1-1.6,2.1-2.4,3.1c-1.6-1.2-3.3-2.3-5-3.4l-2.7-1.8c-0.9-0.6-1.8-1.2-2.7-1.8
			c0.8,0.6,1.7,1.3,2.5,2l2.5,2c1.7,1.3,3.4,2.5,5.1,3.8l0.3,0.2l0.2-0.3c0.9-1.1,1.8-2.2,2.7-3.4c0.8-1,1.6-2,2.4-3
			c1.2,1.2,2.4,2.4,3.6,3.6c1.4,1.3,2.7,2.6,4,3.9l0.3,0.3l0.3-0.2l3.5-2.9l3.5-2.9c1.1-1,2.3-2,3.5-2.9c1.1-1,2.3-2,3.4-2.9
			C704.6,343.3,703.4,344.2,702.2,345z"/>
		<path class="st20" d="M683.5,345.6c-0.4,5.3-0.8,10.5-1.2,15.8s-0.7,10.5-0.9,15.8c-0.2,2.7-0.3,5.3-0.4,8l-0.2,3.9l-0.1,3.9
			c-0.2,5.3-0.3,10.5-0.4,15.8c-0.2,10.5-0.1,21.2,0.1,31.7c0.2,5.3,0.3,10.5,0.8,15.8l0.3,3.9c0,0.7,0.1,1.3,0.1,2l0.2,2
			c0.3,2.6,0.5,5.3,0.7,7.9c-0.6-5.3-1.3-10.5-1.7-15.8c-0.5-5.3-0.7-10.5-1-15.8c-0.1-2.7-0.2-5.3-0.3-8c0-1.3-0.4-3.9-0.4-3.9
			l0.4-3.9l-0.4-3.9l0.4-2v-2v-8c0,0,0.2-10.6,0.5-15.9l0.2-3.9l0.2-3.9c0.1-2.7,0.3-5.3,0.5-8c0.3-5.3,0.7-10.5,1.2-15.8l0.3-3.9
			l0.4-3.9C682.8,350.9,683.1,348.2,683.5,345.6z"/>
		<path class="st20" d="M688.9,381.6h18.6l-0.7,13.8c-0.1,2.7-1.6,5.1-3.8,6.6l-0.8,0.5c-3,2-7,1.8-9.9-0.4l0,0
			c-2.1-1.6-3.4-4-3.4-6.6L688.9,381.6L688.9,381.6z"/>
	</g>
</g>
</svg>
