<?xml version="1.0" encoding="utf-8"?>
<!-- Generator: Adobe Illustrator 24.0.2, SVG Export Plug-In . SVG Version: 6.00 Build 0)  -->
<svg version="1.1" xmlns="http://www.w3.org/2000/svg" xmlns:xlink="http://www.w3.org/1999/xlink" x="0px" y="0px"
	 viewBox="0 0 3600 2000" style="enable-background:new 0 0 3600 2000;" xml:space="preserve">
<style type="text/css">
	.st0{fill:#FFFFFF;}
	.st1{opacity:0.68;fill:#9DEEFF;}
	.st2{fill:#C2E6F9;}
	.st3{fill:none;}
	.st4{font-family:'MyriadPro-Regular';}
	.st5{font-size:38px;}
	.st6{opacity:0.65;fill:#62BDF3;}
	.st7{fill:#62BDF3;}
	.st8{opacity:0.3;fill:#62BDF3;}
	.st9{fill:#7772D6;}
	.st10{fill:#CBE3F0;}
	.st11{fill:#E1F9FF;}
	.st12{fill:#9ED16F;}
	.st13{fill:#3797DB;}
	.st14{fill:url(#SVGID_1_);}
	.st15{fill:#FFC0BB;}
	.st16{fill:#282828;}
	.st17{opacity:0.6;fill:#FC8D84;}
	.st18{fill:#F46C0F;}
	.st19{fill:#F99893;}
	.st20{fill:#333333;}
	.st21{opacity:0.5;fill:#DAEEF7;}
	.st22{opacity:0.5;}
	.st23{fill:#DAEEF7;}
	.st24{fill:#06BFAD;}
	.st25{fill:#EFAC7F;}
	.st26{fill:#45258F;}
	.st27{fill:url(#SVGID_2_);}
	.st28{opacity:0.3;fill:#DAEEF7;}
	.st29{fill:#62BDF3;stroke:#3797DB;stroke-width:2;stroke-miterlimit:10;}
	.st30{opacity:0.6;fill:#D19369;}
	.st31{fill:#5E2E0D;}
	.st32{fill:#D19369;}
	.st33{opacity:0.5;fill:#2D185D;}
	.st34{fill:#2D185D;}
	.st35{fill:#96A65F;}
	.st36{opacity:0.3;fill:#D19369;}
	.st37{fill:url(#SVGID_3_);}
</style>
<g id="Слой_2">
	<rect class="st0" width="3600" height="2000"/>
	<path class="st1" d="M0,962c40,76,211,148,363,83c236.6-101.2,424.5-389.7,782-366c512,34,444.3,553.9,678,724
		c294,214,401,400,415,597c-267,0-2238,0-2238,0V962z"/>
	<path class="st2" d="M2873,2000c11-243,481-525,727-536c0,128,0,536,0,536H2873z"/>
	<rect x="1785.3" y="1430.3" class="st3" width="169.6" height="56.5"/>
	<text transform="matrix(1 0 0 1 1785.3379 1457.2529)" class="st3 st4 st5">v</text>
</g>
<g id="Layer_1">
	<g>
		<path class="st6" d="M2214.7,1748.2H511.4c-2.2,0-4.1-1.8-4.1-4.1v-1.4c0-2.2,1.8-4.1,4.1-4.1h1703.3c2.2,0,4.1,1.8,4.1,4.1v1.4
			C2218.7,1746.4,2216.9,1748.2,2214.7,1748.2z"/>
		<g>
			<path class="st7" d="M1376.5,892L1376.5,892c0-12.1,9.2-22.1,21.2-23.7V825c0-14.5,12-26.2,26.9-26.2h187.1
				c14.8,0,26.9,11.7,26.9,26.2v43.4c11.5,2,20.3,11.8,20.3,23.6l0,0c0,11.8-8.8,21.6-20.3,23.6v159.8c11.5,2,20.3,11.8,20.3,23.6
				l0,0c0,11.8-8.8,21.6-20.3,23.6v16.3c0,14.5-12,26.2-26.9,26.2H1567c-5.7,0-10.4,4.5-10.4,10.1v10.8h-76.1v-10.8
				c0-5.6-4.7-10.1-10.4-10.1h-45.6c-14.8,0-26.9-11.7-26.9-26.2v-16.2c-12-1.6-21.2-11.6-21.2-23.7l0,0c0-12.1,9.2-22.1,21.2-23.7
				V915.8C1385.7,914.2,1376.5,904.2,1376.5,892z"/>
			<g>
				<polygon class="st7" points="1638.5,915.8 1474.5,917.7 1638.5,919.6 				"/>
			</g>
			<g>
				<polygon class="st7" points="1397.7,864.5 1561.7,866.4 1397.7,868.3 				"/>
			</g>
			<g>
				<polygon class="st7" points="1638.5,1122.3 1474.5,1124.2 1638.5,1126.1 				"/>
			</g>
			<g>
				<polygon class="st7" points="1397.7,1070.9 1561.7,1072.8 1397.7,1074.7 				"/>
			</g>
			<path class="st8" d="M1376.3,892L1376.3,892c0-12.1,9.3-22.1,21.4-23.7v-30.5c0-21.5,17.9-39,40-39h29.1
				c13.1,110.3,48.4,277.1,143.2,365.1c-3.1,0.7-6.3,1.1-9.7,1.1H1567c-5.7,0-10.4,4.5-10.4,10.1v10.8h-76.1v-10.8
				c0-5.6-4.7-10.1-10.4-10.1h-32.5c-22.1,0-40-17.5-40-39v-3.4c-12.1-1.6-21.4-11.6-21.4-23.7l0,0c0-12.1,9.3-22.1,21.4-23.7V915.8
				C1385.6,914.2,1376.3,904.2,1376.3,892z"/>
			<path class="st7" d="M1397.7,988.4c0,3.9,53.9,7.1,120.4,7.1s120.4-3.2,120.4-7.1c0-3.9-53.9-7.1-120.4-7.1
				S1397.7,984.5,1397.7,988.4z"/>
			<path class="st8" d="M1397.7,1075.3v-86.8c0.4,3.9,54.2,7.1,120.4,7.1c66.5,0,120.4-3.2,120.4-7.1v87c11.5,2,20.3,11.8,20.3,23.6
				c0,11.8-8.8,21.6-20.3,23.6v16.3c0,14.5-12,26.2-26.8,26.2H1567c-5.7,0-10.4,4.5-10.4,10.1v10.8h-76.1v-10.8
				c0-5.6-4.7-10.1-10.4-10.1h-45.6c-14.8,0-26.8-11.7-26.8-26.2v-16.2c-12-1.6-21.2-11.6-21.2-23.7
				C1376.5,1086.9,1385.7,1076.9,1397.7,1075.3z"/>
			<path class="st9" d="M1469.4,1228.8h96.3c8.4,0,15.2-6.8,15.2-15.2v-19c0-8.4-6.8-15.2-15.2-15.2h-96.3
				c-8.4,0-15.2,6.8-15.2,15.2v19C1454.2,1222,1461,1228.8,1469.4,1228.8z"/>
			<path class="st10" d="M1413,1734.9h210.2c17.1,0,30.9-13.8,30.9-30.9v-469c0-17.1-13.8-30.9-30.9-30.9H1413
				c-17.1,0-30.9,13.8-30.9,30.9v469C1382.1,1721,1395.9,1734.9,1413,1734.9z"/>
			<path class="st9" d="M1435.7,1440.9h163.8v-140.3c0-17.1-13.8-30.9-30.9-30.9h-102c-17.1,0-30.9,13.8-30.9,30.9V1440.9z"/>
			<path class="st11" d="M1449.3,1440.9h136.5v-138.3c0-11.4-9.2-20.6-20.6-20.6h-95.3c-11.4,0-20.6,9.2-20.6,20.6V1440.9z"/>
			<path class="st9" d="M1419.6,1452.3h193c1.9,0,3.5-1.5,3.5-3.5v-4.5c0-1.9-1.5-3.5-3.5-3.5h-193c-1.9,0-3.5,1.5-3.5,3.5v4.5
				C1416.2,1450.8,1417.7,1452.3,1419.6,1452.3z"/>
			<g>
				<path class="st9" d="M1395.7,1692.6v-446.4c0-17,14.1-30.8,31.6-30.8h181.6c17.4,0,31.6,13.8,31.6,30.8v446.4
					c0,17-14.1,30.8-31.6,30.8h-181.6C1409.8,1723.5,1395.7,1709.7,1395.7,1692.6z M1397.7,1246.2v446.6c0,15.9,13.2,28.8,29.5,28.8
					H1609c16.3,0,29.5-12.9,29.5-28.8v-446.6c0-15.9-13.2-28.8-29.5-28.8h-181.9C1410.9,1217.4,1397.7,1230.3,1397.7,1246.2z"/>
			</g>
			<g>
				<path class="st9" d="M1601.5,1515.8v105.9c0,18.9-7,34.2-15.7,34.2h-135.4c-8.7,0-15.7-15.3-15.7-34.2v-105.9
					c0-18.9,7-34.2,15.7-34.2h135.4C1594.4,1481.6,1601.5,1496.9,1601.5,1515.8z M1598.5,1621.4v-105.2c0-15.6-5.8-28.2-12.9-28.2
					h-135.1c-7.1,0-12.9,12.6-12.9,28.2v105.2c0,15.6,5.8,28.2,12.9,28.2h135.1C1592.8,1649.5,1598.5,1636.9,1598.5,1621.4z"/>
			</g>
			<g>
				<g>
					<path class="st0" d="M1547.2,1357.2h1.6l-3.2-28c-0.2-1.8,1.2-3.4,3.1-3.4h2.6h6.1h2.6c1.8,0,3.3,1.6,3.1,3.4l-3.2,28h1.1
						c1.3,0,2.3,1,2.3,2.3v7.9c0,1.2-1,2.3-2.3,2.3h-13.9c-1.3,0-2.3-1-2.3-2.3v-7.9C1544.9,1358.2,1545.9,1357.2,1547.2,1357.2z"/>
					<path class="st12" d="M1544.4,1365.8h19.6c0.8,0,1.4-0.6,1.4-1.4v-1.9c0-0.8-0.6-1.4-1.4-1.4h-19.6c-0.8,0-1.4,0.6-1.4,1.4v1.9
						C1543,1365.2,1543.6,1365.8,1544.4,1365.8z"/>
				</g>
				<path class="st0" d="M1474.1,1357.2h1.4l-3.2-28c-0.2-1.8,1.3-3.4,3.1-3.4h2.6h6.1h2.6c1.9,0,3.3,1.6,3.1,3.4l-3.2,28h1.3
					c1.3,0,2.3,1,2.3,2.3v7.9c0,1.2-1,2.3-2.3,2.3h-13.9c-1.3,0-2.3-1-2.3-2.3v-7.8C1471.8,1358.2,1472.8,1357.2,1474.1,1357.2z"/>
				<path class="st13" d="M1471.2,1365.8h19.6c0.8,0,1.4-0.6,1.4-1.4v-1.9c0-0.8-0.6-1.4-1.4-1.4h-19.6c-0.8,0-1.4,0.6-1.4,1.4v1.9
					C1469.8,1365.2,1470.5,1365.8,1471.2,1365.8z"/>
			</g>
			<g>
				<linearGradient id="SVGID_1_" gradientUnits="userSpaceOnUse" x1="1458.2875" y1="1413.3475" x2="1503.8617" y2="1413.3475">
					<stop  offset="0" style="stop-color:#BFD8F2"/>
					<stop  offset="0.5" style="stop-color:#B8D4F0"/>
					<stop  offset="1" style="stop-color:#5DACDF"/>
				</linearGradient>
				<polygon class="st14" points="1475.2,1384.8 1486.9,1384.8 1503.9,1384.8 1494,1441.9 1486.9,1441.9 1475.2,1441.9 
					1468.1,1441.9 1458.3,1384.8 				"/>
				<path class="st7" d="M1457,1389.6h49c1,0,1.8-0.8,1.8-1.8v-2c0-1-0.8-1.8-1.8-1.8h-49c-1,0-1.8,0.8-1.8,1.8v2
					C1455.2,1388.7,1456,1389.6,1457,1389.6z"/>
			</g>
		</g>
		<g>
			<path class="st15" d="M2210.6,1669.2l-0.8,26.1l-32.6,23c0,0-15.4-20.2-15.1-23c0.3-2.8,0-47.9,0-47.9s37.3,13.8,38.8,13.8
				S2210.6,1669.2,2210.6,1669.2z"/>
			<polygon class="st15" points="2051,1695.3 2051,1663 2013.2,1652.8 2004.8,1656.4 2003.3,1695.3 2015.2,1729.1 			"/>
			<path class="st16" d="M2104.8,1200l47.8,473.6c18.8-0.8,38.2-2.2,58-4.4c2.2-90.8,8.6-362.3,7.6-471.3
				c-1.2-131.8-41.7-151.1-41.7-151.1l-69-17.6l-94.1,16.3C2042.7,1156.7,2104.8,1200,2104.8,1200z"/>
			<path class="st16" d="M1996.5,1668.1c14.2,1.6,33.8,3.5,57.2,4.8l50.1-547.4l5.3-87.1c0,0-77-36.1-102.4,6.8
				c-25.5,42.9-24.7,106.8-24.7,106.8S1985.2,1555.2,1996.5,1668.1z"/>
			<path class="st16" d="M2051,1695.7v35.7c0,3-2.5,5.3-5.5,5.3h-85.9c-6.2,0-8.6-7.9-3.3-11.2l47.1-29.9
				C2003.3,1695.7,2023.4,1709.1,2051,1695.7z"/>
			<path class="st16" d="M2210,1695.7v35.7c0,3-2.5,5.3-5.5,5.3h-85.9c-6.2,0-8.6-7.9-3.3-11.2l47.1-29.9
				C2162.3,1695.7,2182.3,1709.1,2210,1695.7z"/>
			<path class="st15" d="M1973.3,867l-21,66c0,0-91.7-84.2-91.3-107.9l1.6-7.2c2.1-9-0.1-14.9-3.7-15.2l-0.7,0.1
				c0,0-6.1,12.8-11.1,23.2l-5.5-4.9l-27.9,34.1l31.9,15.1l0,0l0,0c0,0,97.9,151.3,120.1,141.3c22.2-10,56-93.2,56-93.2L1973.3,867z
				"/>
			<path class="st15" d="M2323.9,917.5c0,0,30.4,42.1,27,51.2c-3.5,9-154.5,128.7-154.5,128.7s-4,32.2-21.4,40.6l-22-38.4l125-135.4
				l-9.8-13.5L2323.9,917.5z"/>
			<polygon class="st15" points="2119.1,720.5 2125.5,770.9 2074.2,769.2 2075.7,711.5 			"/>
			<path class="st17" d="M2075,738.1l0.7-26.6l44.1,13.8l1.2,10C2111.2,738.8,2092.6,743.1,2075,738.1z"/>
			<polygon class="st18" points="2034.3,625.9 2035.5,660.9 2041.6,663.7 2046.8,620.3 			"/>
			<path class="st19" d="M2045.7,656.1c2.5,7.7-0.6,15.5-6.9,17.4c-6.3,2-13.4-2.7-15.9-10.3c-2.5-7.7,0.6-15.5,6.9-17.4
				C2036.1,643.8,2043.2,648.4,2045.7,656.1z"/>
			<path class="st15" d="M2044.3,699.7c-1.6-3.3-3-6.9-4-10.5c-2.9-9.8-3.9-20.1-4-29c0-1.9-0.2-3.8-0.4-5.7
				c-0.7-7.7-0.1-15.7,2.4-23.9c8.1-26.2,33.3-44.4,61.3-44.3c37.8,0.2,66.5,31.4,63.6,67.1c4.2-1.9,8.7-2,12.5,0
				c7.3,3.9,9.2,14.2,4.2,23.1c-5,8.9-14.9,12.9-22.2,9.1c-1-0.5-1.9-1.2-2.7-2c-5.7,30.1-33.1,51.6-63.7,48.8
				c-15-1.4-28.1-8.4-37.5-18.7c-0.6-0.6-1.3-1.3-2-2.1C2048.8,707.9,2046.3,703.9,2044.3,699.7z"/>
			<path class="st20" d="M2105.6,654.4c-0.3,3,2,5.6,5,5.9c3.1,0.3,5.8-1.9,6.1-4.9c0.3-3-2-5.6-5-5.9
				C2108.7,649.2,2105.9,651.4,2105.6,654.4z"/>
			<path class="st20" d="M2057.7,653c-0.3,3,2,5.6,5,5.9c3.1,0.3,5.8-1.9,6.1-4.9c0.3-3-2-5.6-5-5.9
				C2060.7,647.8,2058,650,2057.7,653z"/>
			<path class="st18" d="M2100,643c2.8-0.8,5.5-1.5,8.2-1.8c2.7-0.4,5.3-0.4,7.8,0c2.5,0.4,5,1,7.4,2.2l0.9,0.4
				c0.3,0.1,0.6,0.3,0.9,0.5l1.8,1c1.2,0.7,2.4,1.5,3.7,2.1c-0.7-1.3-1.5-2.5-2.4-3.6c-1-1-2-2.2-3.3-3c-2.4-1.9-5.4-3-8.5-3.4
				c-3.1-0.4-6.3-0.1-9.1,0.9C2104.6,639.3,2101.9,640.8,2100,643z"/>
			<path class="st18" d="M2077.5,642.1c-1.7-2.4-4.2-4.2-6.9-5.4c-2.8-1.2-5.9-1.9-9-1.7c-3.1,0.2-6.2,1-8.8,2.7
				c-1.4,0.7-2.4,1.8-3.6,2.7c-1,1-1.9,2.2-2.8,3.4c1.4-0.5,2.6-1.3,3.9-1.8l1.9-0.8c0.3-0.1,0.6-0.3,0.9-0.4l1-0.3
				c2.5-1,5.1-1.3,7.6-1.5c2.6-0.1,5.2,0.1,7.8,0.7C2072.2,640.1,2074.8,641,2077.5,642.1z"/>
			<path class="st18" d="M2031.9,584.1c0,0-19.1-1.3,2.6-15c21.7-13.7,77.3-26.6,109.8-5.4c0,0,8.4-13.5,18-9.1
				c9.6,4.4-7.9,12.5-7.9,12.5s12.7,0.9,16,7.3c2.4,4.8-5.4,4.2-9.6,3.5c7.1,1.9,29.2,17.9,9.5,70.9c-4.8-1.6-39.4-39.2-39.4-39.2
				s-57.1,25.9-48.2,8.9c0,0-67.2,25-54.2-7.5C2028.4,611.1,2002.4,610.3,2031.9,584.1z"/>
			<path class="st0" d="M2146,808.1c2.5,4.4,5,8.9,7.6,13.4l7.6,13.3c2.6,4.4,5.1,8.9,7.7,13.3c2.6,4.4,5.2,8.8,7.8,13.2
				c2.6,4.4,5.2,8.8,7.9,13.1c1.3,2.2,2.6,4.4,4,6.5l4.1,6.5l4.1,6.5c0.7,1.1,1.4,2.2,2.1,3.2l2.1,3.2l2.1,3.2l1.1,1.6l1.1,1.6
				c1.5,2.1,2.9,4.2,4.4,6.3c-6.5-7.9-12.6-16.2-18.3-24.7c-5.7-8.5-11.2-17.2-16.4-26c-5.2-8.8-10.2-17.7-15-26.8
				C2154.9,826.5,2150.3,817.4,2146,808.1z"/>
			<path class="st21" d="M2187.8,1147.5c-6.5,2.4-12.8,5-19.1,7.7c-6.3,2.8-12.5,5.7-18.7,8.6c-6.2,3-12.3,6.1-18.4,9.3
				c-6.1,3.2-12.1,6.4-18.1,9.8l-0.5-1.1c4.5-1,9-1.6,13.6-2.1c4.6-0.5,9.1-0.6,13.7-0.7c4.6,0,9.2,0.2,13.7,0.8l3.4,0.4l3.4,0.6
				l1.7,0.3l1.7,0.4l3.3,0.8l-3.4-0.7l-1.7-0.3l-1.7-0.2l-3.4-0.5l-3.4-0.3c-1.1-0.1-2.3-0.2-3.4-0.2c-1.1,0-2.3-0.2-3.4-0.2
				l-3.4-0.1c-1.1,0-2.3,0-3.4,0c-4.5,0.1-9.1,0.4-13.6,0.9c-4.5,0.5-9,1.2-13.4,2.2l-4.1,0.9l3.6-2.1c6-3.4,12-6.7,18.1-9.8
				c6.1-3.1,12.3-6.2,18.5-9.1c6.2-2.9,12.5-5.7,18.9-8.3c3.2-1.3,6.4-2.5,9.6-3.7C2181.3,1149.6,2184.5,1148.6,2187.8,1147.5z"/>
			<path class="st21" d="M2006.6,1144.9c3.3,1.1,6.6,2.1,9.8,3.3c3.2,1.2,6.4,2.4,9.6,3.7c6.4,2.6,12.7,5.4,18.9,8.3
				c6.2,2.9,12.4,6,18.5,9.1c6.1,3.1,12.1,6.4,18.1,9.8l3.6,2.1l-4.1-0.9c-4.4-1-8.9-1.7-13.4-2.2c-4.5-0.5-9-0.8-13.6-0.9
				c-1.1,0-2.3-0.1-3.4,0l-3.4,0.1c-1.1,0-2.3,0.1-3.4,0.2c-1.1,0.1-2.3,0.1-3.4,0.2l-3.4,0.3l-3.4,0.5l-1.7,0.2l-1.7,0.3l-3.4,0.7
				l3.3-0.8l1.7-0.4l1.7-0.3l3.4-0.6l3.4-0.4c4.5-0.6,9.1-0.8,13.7-0.8c4.6,0,9.2,0.2,13.7,0.7c4.6,0.5,9.1,1.1,13.6,2.1l-0.5,1.1
				c-6-3.4-12-6.6-18.1-9.8c-6.1-3.2-12.2-6.3-18.4-9.3c-6.2-3-12.4-5.9-18.7-8.7C2019.5,1149.9,2013.1,1147.3,2006.6,1144.9z"/>
			<path class="st21" d="M2020.4,1068.7c5.6,1,11.2,1.8,16.9,2.5c5.6,0.7,11.3,1.4,17,1.9c11.3,1.1,22.7,1.8,34.1,2.1
				c5.7,0.1,11.4,0.1,17.1,0c5.7-0.2,11.4-0.5,17-0.9c5.7-0.5,11.3-1.1,16.9-2.1c5.6-0.9,11.2-2.1,16.7-3.5
				c-5.5,1.6-11,2.8-16.6,3.8c-5.6,1-11.3,1.7-16.9,2.3c-5.7,0.5-11.4,0.8-17.1,1c-5.7,0.2-11.4,0.2-17.1,0.1
				c-11.4-0.3-22.8-1-34.1-2.2c-5.7-0.6-11.3-1.3-16.9-2.1C2031.6,1070.8,2026,1069.8,2020.4,1068.7z"/>
			<path class="st18" d="M2130.8,609.7c0,0,16.6,37.1,13.9,57.1c0,0,12.1-16.5,27.4-14.7c0,0,10.3-32.9,4.3-55.3l-35.6,2
				L2130.8,609.7z"/>
			<g class="st22">
				<path class="st23" d="M2145.8,1085.9c0.2,0.7,0.6,1.3,0.9,1.9l1,1.9l2,3.8l3.3,6.2l9.5,16.5c1.3,2.5,13.7,24.2,16.7,29.1
					c-3.7-4.4-8.1-8.7-11-13.6c-1.5-2.4-2.9-4.9-4.3-7.3c-1.4-2.5-2.7-5-4.1-7.5c-2.6-5-5.2-10.1-7.5-15.2c-1.2-2.6-2.3-5.2-3.4-7.8
					c-0.5-1.3-1.1-2.6-1.6-3.9C2146.7,1088.6,2146.1,1087.3,2145.8,1085.9z"/>
			</g>
			<path class="st0" d="M2130.5,751.3c-2.9,2.2-5.7,4.3-8.6,6.5l-8.5,6.6l-7.8,6.1c-2.9-2.9-5.8-5.8-8.8-8.8
				c-3.1-3.1-6.3-6.2-9.4-9.3l-0.8-0.8l-0.7,0.9c-2.1,2.7-4.1,5.4-6.2,8.1c-1.9,2.5-3.8,5-5.7,7.5c-3.9-2.7-7.9-5.4-11.9-8.1
				l-6.3-4.2c-2.1-1.4-4.2-2.8-6.3-4.2c2,1.5,4,3.1,6,4.6l6,4.6c4,3,8.1,6,12.2,9l0.6,0.5l0.5-0.6c2.1-2.6,4.2-5.3,6.4-8
				c1.9-2.4,3.7-4.7,5.6-7.1c2.9,2.8,5.7,5.7,8.6,8.5c3.2,3.1,6.3,6.2,9.5,9.3l0.6,0.6l0.7-0.5l8.3-6.8l8.3-6.9
				c2.7-2.3,5.5-4.6,8.2-6.9c2.7-2.3,5.4-4.6,8.1-7C2136.2,747,2133.3,749.2,2130.5,751.3z"/>
			<path class="st0" d="M2086,752.6c-1,12.5-2,25-2.8,37.5c-0.9,12.5-1.6,25-2.2,37.5c-0.4,6.3-0.6,12.5-0.9,18.8l-0.4,9.4l-0.3,9.4
				c-0.5,12.5-0.7,25-1,37.5c-0.5,25-0.3,50.1,0.2,75.1c0.5,12.5,0.8,25,1.8,37.5l0.6,9.4c0.1,1.6,0.2,3.1,0.3,4.7l0.4,4.7
				c0.6,6.2,1.1,12.5,1.7,18.7c-1.5-12.4-3.1-24.9-4-37.4c-1.1-12.5-1.6-25-2.3-37.5c-0.2-6.3-0.4-12.5-0.6-18.8
				c-0.1-3.1-1-9.4-1-9.4l1-9.4l-1-9.4l1-4.7v-4.7v-18.8c0,0,0.5-25.1,1.1-37.6l0.4-9.4l0.5-9.4c0.3-6.3,0.6-12.5,1.1-18.8
				c0.8-12.5,1.7-25,2.8-37.5l0.8-9.4l0.9-9.4C2084.5,765,2085.2,758.8,2086,752.6z"/>
			<path class="st24" d="M2098.8,837.8h44l-1.6,32.5c-0.3,6.3-3.7,12.1-9.1,15.6l-1.9,1.2c-7.2,4.6-16.6,4.3-23.4-0.8l0,0
				c-5-3.7-8-9.5-8-15.7V837.8z"/>
			<path class="st25" d="M2210.6,1669.2l-0.8,26.1l-32.6,23c0,0-15.4-20.2-15.1-23c0.3-2.8,0-47.9,0-47.9s37.3,13.8,38.8,13.8
				S2210.6,1669.2,2210.6,1669.2z"/>
			<polygon class="st25" points="2051,1695.3 2051,1663 2013.2,1652.8 2004.8,1656.4 2003.3,1695.3 2015.2,1729.1 			"/>
			<path class="st26" d="M2104.8,1200l47.8,473.6c18.8-0.8,38.2-2.2,58-4.4c2.2-90.8,8.6-362.3,7.6-471.3
				c-1.2-131.8-41.7-151.1-41.7-151.1l-69-17.6l-94.1,16.3C2042.7,1156.7,2104.8,1200,2104.8,1200z"/>
			<path class="st26" d="M1996.5,1668.1c14.2,1.6,33.8,3.5,57.2,4.8l50.1-547.4l5.3-87.1c0,0-77-36.1-102.4,6.8
				c-25.5,42.9-24.7,106.8-24.7,106.8S1985.2,1555.2,1996.5,1668.1z"/>
			<path class="st26" d="M2051,1695.7v35.7c0,3-2.5,5.3-5.5,5.3h-85.9c-6.2,0-8.6-7.9-3.3-11.2l47.1-29.9
				C2003.3,1695.7,2023.4,1709.1,2051,1695.7z"/>
			<path class="st26" d="M2210,1695.7v35.7c0,3-2.5,5.3-5.5,5.3h-85.9c-6.2,0-8.6-7.9-3.3-11.2l47.1-29.9
				C2162.3,1695.7,2182.3,1709.1,2210,1695.7z"/>
			<path class="st25" d="M1973.3,867l-21,66c0,0-91.7-84.2-91.3-107.9l1.6-7.2c2.1-9-0.1-14.9-3.7-15.2l-0.7,0.1
				c0,0-6.1,12.8-11.1,23.2l-5.5-4.9l-27.9,34.1l31.9,15.1l0,0l0,0c0,0,97.9,151.3,120.1,141.3c22.2-10,56-93.2,56-93.2L1973.3,867z
				"/>
			<path class="st13" d="M2012.9,767.1c0,0-13.9,4-33.9,34.1c-20.1,30.1-37.9,113.3-37.9,113.3l64,42.4l41.7-100.5L2012.9,767.1z"/>
			<path class="st13" d="M1943.7,906.3l63.3,41c2.2,1.4,3,4.1,1.9,6.3l-9.1,19.7c-1.4,3-5.3,4-8.1,2.2l-64.1-41.4
				c-2.2-1.5-3-4.2-1.8-6.6l10-19.3C1937.1,905.5,1940.9,904.6,1943.7,906.3z"/>
			<path class="st25" d="M2323.9,917.5c0,0,30.4,42.1,27,51.2c-3.5,9-154.5,128.7-154.5,128.7s-4,32.2-21.4,40.6l-22-38.4l125-135.4
				l-9.8-13.5L2323.9,917.5z"/>
			<linearGradient id="SVGID_2_" gradientUnits="userSpaceOnUse" x1="1804.4204" y1="826.8936" x2="1859.8698" y2="826.8936">
				<stop  offset="0" style="stop-color:#BFD8F2"/>
				<stop  offset="0.5" style="stop-color:#B8D4F0"/>
				<stop  offset="1" style="stop-color:#5DACDF"/>
			</linearGradient>
			<polygon class="st27" points="1839.3,792.2 1825,792.2 1804.4,792.2 1816.4,861.6 1825,861.6 1839.3,861.6 1847.9,861.6 
				1859.9,792.2 			"/>
			<path class="st7" d="M1862.5,798.8h-59.9c-1.2,0-2.2-1-2.2-2.2v-3.2c0-1.2,1-2.2,2.2-2.2h59.9c1.2,0,2.2,1,2.2,2.2v3.2
				C1864.8,797.8,1863.8,798.8,1862.5,798.8z"/>
			<path class="st28" d="M1814.3,810.8c-2.3,0-4.5,0.3-6.5,1l7.2,41.6c11.7-0.3,21.2-9.7,21.2-21.3
				C1836.1,820.4,1826.3,810.8,1814.3,810.8z"/>
			<polygon class="st25" points="2119.1,720.5 2125.5,770.9 2074.2,769.2 2075.7,711.5 			"/>
			<path class="st7" d="M2180.9,759.2c-12.7-7.3-27-11.9-41.8-14.3c-9,7.4-36.6,7.1-51.6,7.6c-22.8,0.7-25.7,1.9-34.6-2
				c-20.6,7.6-56.6,20.4-57,32.7c-10.2,265.1,10.8,262.6,10.8,262.6c28.5,12.3,149.6,5.5,168.9,0c19.3-5.5,33.9-132.7,33.9-132.7
				l58.6,54c20.3-18.8,60.5-44,60.5-44S2241.2,793.9,2180.9,759.2z"/>
			<path class="st29" d="M2246.7,944.9l61.4-46.5c2.9-2.2,7.1-1.6,9.3,1.2l14.3,18.8c2.1,2.8,1.6,6.7-1.3,8.8L2270,972
				c-2.7,2-6.6,1.7-8.9-0.9l-15.3-17C2243.3,951.3,2243.7,947.1,2246.7,944.9z"/>
			<path class="st30" d="M2075,738.1l0.7-26.6l44.1,13.8l1.2,10C2111.2,738.8,2092.6,743.1,2075,738.1z"/>
			<polygon class="st31" points="2034.3,625.9 2035.5,660.9 2041.6,663.7 2046.8,620.3 			"/>
			<path class="st32" d="M2045.7,656.1c2.5,7.7-0.6,15.5-6.9,17.4c-6.3,2-13.4-2.7-15.9-10.3c-2.5-7.7,0.6-15.5,6.9-17.4
				C2036.1,643.8,2043.2,648.4,2045.7,656.1z"/>
			<path class="st25" d="M2044.3,699.7c-1.6-3.3-3-6.9-4-10.5c-2.9-9.8-3.9-20.1-4-29c0-1.9-0.2-3.8-0.4-5.7
				c-0.7-7.7-0.1-15.7,2.4-23.9c8.1-26.2,33.3-44.4,61.3-44.3c37.8,0.2,66.5,31.4,63.6,67.1c4.2-1.9,8.7-2,12.5,0
				c7.3,3.9,9.2,14.2,4.2,23.1c-5,8.9-14.9,12.9-22.2,9.1c-1-0.5-1.9-1.2-2.7-2c-5.7,30.1-33.1,51.6-63.7,48.8
				c-15-1.4-28.1-8.4-37.5-18.7c-0.6-0.6-1.3-1.3-2-2.1C2048.8,707.9,2046.3,703.9,2044.3,699.7z"/>
			<path class="st20" d="M2105.6,654.4c-0.3,3,2,5.6,5,5.9c3.1,0.3,5.8-1.9,6.1-4.9c0.3-3-2-5.6-5-5.9
				C2108.7,649.2,2105.9,651.4,2105.6,654.4z"/>
			<path class="st20" d="M2057.7,653c-0.3,3,2,5.6,5,5.9c3.1,0.3,5.8-1.9,6.1-4.9c0.3-3-2-5.6-5-5.9
				C2060.7,647.8,2058,650,2057.7,653z"/>
			<path class="st31" d="M2100,643c2.8-0.8,5.5-1.5,8.2-1.8c2.7-0.4,5.3-0.4,7.8,0c2.5,0.4,5,1,7.4,2.2l0.9,0.4
				c0.3,0.1,0.6,0.3,0.9,0.5l1.8,1c1.2,0.7,2.4,1.5,3.7,2.1c-0.7-1.3-1.5-2.5-2.4-3.6c-1-1-2-2.2-3.3-3c-2.4-1.9-5.4-3-8.5-3.4
				c-3.1-0.4-6.3-0.1-9.1,0.9C2104.6,639.3,2101.9,640.8,2100,643z"/>
			<path class="st31" d="M2077.5,642.1c-1.7-2.4-4.2-4.2-6.9-5.4c-2.8-1.2-5.9-1.9-9-1.7c-3.1,0.2-6.2,1-8.8,2.7
				c-1.4,0.7-2.4,1.8-3.6,2.7c-1,1-1.9,2.2-2.8,3.4c1.4-0.5,2.6-1.3,3.9-1.8l1.9-0.8c0.3-0.1,0.6-0.3,0.9-0.4l1-0.3
				c2.5-1,5.1-1.3,7.6-1.5c2.6-0.1,5.2,0.1,7.8,0.7C2072.2,640.1,2074.8,641,2077.5,642.1z"/>
			<path class="st31" d="M2031.9,584.1c0,0-19.1-1.3,2.6-15c21.7-13.7,77.3-26.6,109.8-5.4c0,0,8.4-13.5,18-9.1
				c9.6,4.4-7.9,12.5-7.9,12.5s12.7,0.9,16,7.3c2.4,4.8-5.4,4.2-9.6,3.5c7.1,1.9,29.2,17.9,9.5,70.9c-4.8-1.6-39.4-39.2-39.4-39.2
				s-57.1,25.9-48.2,8.9c0,0-67.2,25-54.2-7.5C2028.4,611.1,2002.4,610.3,2031.9,584.1z"/>
			<path class="st31" d="M2172.8,649.5c14.8-6.2,2.4-19.6,2.4-19.6c17.3-12.5,7.6-28,2-29.1c10.8-21.4-8.6-33.1-16.4-28.3
				c9.1-17.7-11.8-23.8-17.5-15.6c-9.7-19.9-27-12.2-30.1-4.8c-7.5-14.2-26.1-8.6-27,0.5c-8.7-12.9-27.3-3.7-26.5,6
				c-12-9.4-34.7,0.1-20.1,11.4c14.7,11.2,89.5,30.9,89.5,30.9s-1,23.8,6.8,29.9c7.8,6.1,10,4.3,10,4.3c-9.3,19.2-6.7,24.1-2.2,25.9
				C2158.4,647.1,2172.8,649.5,2172.8,649.5z"/>
			<path class="st0" d="M2066.7,694.8c1.9,6.7,10,11.6,19.7,11.5c9.7-0.1,17.7-5.3,19.3-12L2066.7,694.8z"/>
			<path class="st13" d="M2146,808.1c2.5,4.4,5,8.9,7.6,13.4l7.6,13.3c2.6,4.4,5.1,8.9,7.7,13.3c2.6,4.4,5.2,8.8,7.8,13.2
				c2.6,4.4,5.2,8.8,7.9,13.1c1.3,2.2,2.6,4.4,4,6.5l4.1,6.5l4.1,6.5c0.7,1.1,1.4,2.2,2.1,3.2l2.1,3.2l2.1,3.2l1.1,1.6l1.1,1.6
				c1.5,2.1,2.9,4.2,4.4,6.3c-6.5-7.9-12.6-16.2-18.3-24.7c-5.7-8.5-11.2-17.2-16.4-26c-5.2-8.8-10.2-17.7-15-26.8
				C2154.9,826.5,2150.3,817.4,2146,808.1z"/>
			<path class="st33" d="M2187.8,1147.5c-6.5,2.4-12.8,5-19.1,7.7c-6.3,2.8-12.5,5.7-18.7,8.6c-6.2,3-12.3,6.1-18.4,9.3
				c-6.1,3.2-12.1,6.4-18.1,9.8l-0.5-1.1c4.5-1,9-1.6,13.6-2.1c4.6-0.5,9.1-0.6,13.7-0.7c4.6,0,9.2,0.2,13.7,0.8l3.4,0.4l3.4,0.6
				l1.7,0.3l1.7,0.4l3.3,0.8l-3.4-0.7l-1.7-0.3l-1.7-0.2l-3.4-0.5l-3.4-0.3c-1.1-0.1-2.3-0.2-3.4-0.2c-1.1,0-2.3-0.2-3.4-0.2
				l-3.4-0.1c-1.1,0-2.3,0-3.4,0c-4.5,0.1-9.1,0.4-13.6,0.9c-4.5,0.5-9,1.2-13.4,2.2l-4.1,0.9l3.6-2.1c6-3.4,12-6.7,18.1-9.8
				c6.1-3.1,12.3-6.2,18.5-9.1c6.2-2.9,12.5-5.7,18.9-8.3c3.2-1.3,6.4-2.5,9.6-3.7C2181.3,1149.6,2184.5,1148.6,2187.8,1147.5z"/>
			<path class="st31" d="M2130.8,609.7c0,0,16.6,37.1,13.9,57.1c0,0,12.1-16.5,27.4-14.7c0,0,10.3-32.9,4.3-55.3l-35.6,2
				L2130.8,609.7z"/>
			<path class="st25" d="M1815.8,857l-0.5,0c-3.5,0.2-6.6-2.2-7.2-5.6l-6.6-38.3c-0.4-1.9,0.4-3.8,2-4.9c4.9-3.5,15.3-10.4,17.5-9.3
				c2.9,1.6-12.4,13.9-11.3,14.7c1.2,0.8,18.4-4.9,18.8-2.8c0.4,1.9-15.9,9.8-15.7,11c0.2,1.1,16.5-1.6,17.5,0.3
				c0.8,1.7-15.6,7-15.7,7.7L1815.8,857z"/>
			<path class="st25" d="M1859.5,802.8c0,0-15.2-2.5-16.2,0c-1,2.5,12.3,1.1,14.8,8.3C1860.5,818.2,1859.5,802.8,1859.5,802.8z"/>
			<path class="st25" d="M1810.7,829.8c0,0,16.5,1.5,17.6,3.9c1.1,2.4-16.4,2.6-16.4,2.6L1810.7,829.8z"/>
			<path class="st34" d="M2145.8,1085.9c0.2,0.7,0.6,1.3,0.9,1.9l1,1.9l2,3.8l3.3,6.2l9.5,16.5c1.3,2.5,13.7,24.2,16.7,29.1
				c-3.7-4.4-8.1-8.7-11-13.6c-1.5-2.4-2.9-4.9-4.3-7.3c-1.4-2.5-2.7-5-4.1-7.5c-2.6-5-5.2-10.1-7.5-15.2c-1.2-2.6-2.3-5.2-3.4-7.8
				c-0.5-1.3-1.1-2.6-1.6-3.9C2146.7,1088.6,2146.1,1087.3,2145.8,1085.9z"/>
			<polygon class="st13" points="2049.5,751.7 2074.9,741.2 2086.7,751.7 2121,737.2 2139.1,744.9 2105.7,770.5 2086.8,753.8 
				2074.2,769.2 			"/>
			<path class="st13" d="M2130.5,751.3c-2.9,2.2-5.7,4.3-8.6,6.5l-8.5,6.6l-7.8,6.1c-2.9-2.9-5.8-5.8-8.8-8.8
				c-3.1-3.1-6.3-6.2-9.4-9.3l-0.8-0.8l-0.7,0.9c-2.1,2.7-4.1,5.4-6.2,8.1c-1.9,2.5-3.8,5-5.7,7.5c-3.9-2.7-7.9-5.4-11.9-8.1
				l-6.3-4.2c-2.1-1.4-4.2-2.8-6.3-4.2c2,1.5,4,3.1,6,4.6l6,4.6c4,3,8.1,6,12.2,9l0.6,0.5l0.5-0.6c2.1-2.6,4.2-5.3,6.4-8
				c1.9-2.4,3.7-4.7,5.6-7.1c2.9,2.8,5.7,5.7,8.6,8.5c3.2,3.1,6.3,6.2,9.5,9.3l0.6,0.6l0.7-0.5l8.3-6.8l8.3-6.9
				c2.7-2.3,5.5-4.6,8.2-6.9c2.7-2.3,5.4-4.6,8.1-7C2136.2,747,2133.3,749.2,2130.5,751.3z"/>
			<path class="st13" d="M2086,752.6c-1,12.5-2,25-2.8,37.5c-0.9,12.5-1.6,25-2.2,37.5c-0.4,6.3-0.6,12.5-0.9,18.8l-0.4,9.4
				l-0.3,9.4c-0.5,12.5-0.7,25-1,37.5c-0.5,25-0.3,50.1,0.2,75.1c0.5,12.5,0.8,25,1.8,37.5l0.6,9.4c0.1,1.6,0.2,3.1,0.3,4.7l0.4,4.7
				c0.6,6.2,1.1,12.5,1.7,18.7c-1.5-12.4-3.1-24.9-4-37.4c-1.1-12.5-1.6-25-2.3-37.5c-0.2-6.3-0.4-12.5-0.6-18.8
				c-0.1-3.1-1-9.4-1-9.4l1-9.4l-1-9.4l1-4.7v-4.7v-18.8c0,0,0.5-25.1,1.1-37.6l0.4-9.4l0.5-9.4c0.3-6.3,0.6-12.5,1.1-18.8
				c0.8-12.5,1.7-25,2.8-37.5l0.8-9.4l0.9-9.4C2084.5,765,2085.2,758.8,2086,752.6z"/>
			<path class="st13" d="M2098.8,837.8h44l-1.6,32.5c-0.3,6.3-3.7,12.1-9.1,15.6l-1.9,1.2c-7.2,4.6-16.6,4.3-23.4-0.8l0,0
				c-5-3.7-8-9.5-8-15.7V837.8z"/>
		</g>
		<path class="st32" d="M789.9,646.2c1.8,2.8,3.3,5.8,4.7,8.8c1.4,3,2.6,6.1,3.6,9.3c0.4,1.6,0.8,3.3,1,5c0,0.4,0,0.9,0,1.4
			c0,0.2-0.1,0.5-0.1,0.7c-0.1,0.3-0.2,0.5-0.4,0.8c-0.1,0.1-0.2,0.3-0.3,0.4l-0.3,0.2c-0.2,0.1-0.3,0.3-0.5,0.4
			c-0.4,0.2-0.7,0.5-1.1,0.7c-1.5,0.9-3.1,1.5-4.7,2.1c-1.6,0.5-3.3,1-4.9,1.3c3.1-1.4,6.1-2.8,8.8-4.7c0.3-0.2,0.6-0.5,0.9-0.7
			l0.4-0.4l0.2-0.2c0,0,0-0.1,0.1-0.1c0.2-0.3,0.2-1.2,0.1-1.9c-0.2-1.5-0.5-3.1-1-4.6c-0.9-3.1-2-6.2-3.1-9.3
			C792,652.5,790.9,649.4,789.9,646.2z"/>
		<g>
			<path class="st31" d="M797.1,635.6c55.4,40.9,19.3,124.6,56.8,156.6c-60.3,36.8-164.2,7.5-215.3,8.8
				c-16.3-75.5,20.1-144.2,56.7-165.4C758,629.8,797.1,635.6,797.1,635.6z"/>
			<path class="st28" d="M980.2,893.2c2.1,0,4.2,0.3,6.1,0.9l-6.7,38.6c-10.9-0.3-19.7-9-19.7-19.8
				C959.9,902.1,969,893.2,980.2,893.2z"/>
			<path class="st15" d="M983.5,916c0,0-15.3,1.4-16.3,3.6c-1,2.2,15.2,2.4,15.2,2.4L983.5,916z"/>
			<path class="st25" d="M890.5,1720.4l-51.1-30.7l-31.2,26.7l13.3,9.2l46.3,6.3c0,0,18.1-2.3,18.9-2.8
				C887.5,1728.6,890.5,1720.4,890.5,1720.4z"/>
			<path class="st26" d="M889.9,1719.7l11.2,7c5.2,3.2,2.9,11-3.2,11.1l-84.8,0.5c-3,0-5.4-2.3-5.4-5.2l-0.1-17.3
				C864.2,1732.9,883.6,1727.4,889.9,1719.7z"/>
			<path class="st31" d="M675.9,713c0,0-14.1-56.3,19.5-77.4c33.5-21.1,69.1-18.8,93.3-6.1c24.2,12.6,38.7,56.7,27.8,81.9
				l-80.3-24.1L675.9,713z"/>
			<path class="st25" d="M930.1,929.5c4.8-7.1,7.6-13.2,7.6-17.3l-1.6-6.8c-2-8.5,0-14.1,3.5-14.4l0.7,0.1c0,0,5.8,12.1,10.5,22
				l5.2-4.6l26.4,32.3l-30.1,14.3L930.1,929.5z"/>
			<polygon class="st25" points="808.2,1716.4 797.6,1657.9 841.8,1653.3 844.5,1656.3 851.9,1696.9 831,1717.4 			"/>
			<path class="st25" d="M579.4,1718.8l-19.9-55.3l-41.5,1.5l4.4,15.4l31.9,33.4c0,0,15.5,9.3,16.4,9.4
				C571.7,1723.3,579.4,1718.8,579.4,1718.8z"/>
			<path class="st26" d="M579.4,1718.8l4.2,12.3c2,5.7-4.9,10.3-9.6,6.6l-66.1-51.8c-2.3-1.8-2.7-5.2-0.8-7.4l11.1-13.5
				C550.8,1713.2,569.5,1721,579.4,1718.8z"/>
			<polygon class="st25" points="518,1665.1 547.7,1613.2 584.9,1636.8 585.1,1640.8 564.6,1676.8 535.1,1679.9 			"/>
			<path class="st25" d="M736.1,1120.4l13.5,242.3c0,0,35.5,257.3,57.5,347.2l44.8-13.6l-28.4-625.3h-83.9L736.1,1120.4z"/>
			<path class="st25" d="M826.7,1140.9l-3.2-69.3l-67-1.7l-1.5,6.6l-76.6-9.2c0,0-62.9,79.1-48,205.1
				c14.9,126,11.6,171.2,11.6,171.2s-75,86.3-115,205.9c0,0,18.3,15.1,42.3,19.2c0,0,145.6-196.8,154.7-217.8
				c5.4-12.6,23.6-142.9,37.2-245.8C761.1,1205.1,820.8,1162.5,826.7,1140.9z"/>
			<path class="st12" d="M762.3,814.4c0,0,48.3,3,67.5,27.8C854,873.3,869,976.7,869,976.7l62.6-51.2l27,27.9
				c0,0-80.7,109.6-95.1,101.4c-14.5-8.2-55.4-42.4-55.4-42.4s-16.8-98.5-16.8-101.6C791.3,907.7,762.3,814.4,762.3,814.4z"/>
			<path class="st26" d="M826.5,1064.1c8.3,44.5,22.7,301.4,19.1,356.3c-84.8,20.5-209.1,2-209.1,2c-24.7-212.6-24.7-224.5-2-285.2
				c22.7-60.7,40-82,40-82C771.1,1047.4,826.5,1064.1,826.5,1064.1z"/>
			<path class="st12" d="M838.2,916.1c-4.1-37.2-23.2-71.1-52.6-94.5c-3.6-2.8-7.8-4.9-12.3-5.9c-12.2-2.8-28.1-3.4-35.9-3.5h-25.6
				c0,0-41.1,2.2-59.4,7.8c-18.3,5.6-125.7,79.4-142.6,112.5C494,963.7,631.4,1063,631.4,1063c3.3-0.1,25.7-33.7,23.3-35.9
				c-2.4-2.1-85.2-76.2-79.4-82.1c17.7-17.9,63.4-34.9,63.4-34.9s10.3,139.3,36.6,163.8c0,0,103.7,6.9,142.3,2.5
				c7-0.8,12.6-6,13.7-12.8C835.4,1038.8,844.5,973.3,838.2,916.1z"/>
			<path class="st25" d="M805,840.3c-5.7-6.7-12.1-12.9-19.1-18.5c-3.7-3-8-5.1-12.6-6.2c-12.2-2.8-28.1-3.4-35.9-3.5h-25.6
				c0,0-7,0.4-16.5,1.2C716,828.8,754.7,849.6,805,840.3z"/>
			<path class="st25" d="M720.5,818l53.9,1.1c-1.1-11.7-2-27.1,0-32.7c3.4-9.4-56.7-10.8-56.7-10.8S720.9,799.7,720.5,818z"/>
			<path class="st32" d="M717.7,775.6c0,0,1.3,9.8,2.1,21.6c10.9,8.6,25.1,13,39.8,11.2c4.8-0.6,9.4-1.9,13.7-3.7
				c-0.3-7.7-0.2-14.8,1-18.3C777.7,777,717.7,775.6,717.7,775.6z"/>
			<path class="st25" d="M805.3,765.2c1.8-3.3,3.3-6.8,4.5-10.4c3.3-9.7,4.8-20,5.4-29c0.1-1.9,0.4-3.8,0.6-5.7
				c1.1-7.7,0.8-15.8-1.3-24c-6.9-26.6-31.3-46-59.4-47.1c-37.8-1.5-68,28.6-66.8,64.6c-4.1-2-8.6-2.4-12.5-0.5
				c-7.5,3.6-9.8,13.9-5.3,23c4.6,9.1,14.3,13.6,21.8,10.1c1-0.5,2-1.1,2.8-1.9c4.3,30.5,30.8,53.2,61.6,51.7
				c15.1-0.7,28.5-7.2,38.4-17.1c0.7-0.6,1.4-1.3,2.1-2.1C800.5,773.2,803.1,769.3,805.3,765.2z"/>
			<path class="st20" d="M747.7,722.2c0.2,3.2-2.4,6-5.7,6.2c-3.3,0.2-6.1-2.3-6.3-5.6c-0.2-3.2,2.4-6,5.7-6.2
				C744.7,716.4,747.6,718.9,747.7,722.2z"/>
			<path class="st20" d="M797.1,722.2c0.2,3.2-2.4,6-5.7,6.2c-3.3,0.2-6.1-2.3-6.3-5.6c-0.2-3.2,2.4-6,5.7-6.2
				C794.1,716.4,797,718.9,797.1,722.2z"/>
			<g>
				<path class="st31" d="M752.8,712.4c-2.7-1.4-5.6-2.5-8.5-3.2c-2.9-0.7-5.9-0.9-8.8-0.7c-1.5,0.1-2.9,0.4-4.3,0.8
					c-0.7,0.2-1.4,0.4-2.1,0.7c-0.3,0.1-0.7,0.3-1,0.4c-0.3,0.1-0.7,0.3-1,0.4c-2.7,1.3-5.2,2.9-7.7,4.7c1.8-2.4,4.2-4.5,6.9-6.2
					c1.4-0.8,2.8-1.5,4.3-2c1.5-0.5,3.1-0.8,4.7-1c3.2-0.3,6.5,0.1,9.5,1.2c1.5,0.5,2.9,1.2,4.3,2
					C750.4,710.4,751.7,711.3,752.8,712.4z"/>
			</g>
			<g>
				<path class="st31" d="M777,712.4c1.1-1.1,2.4-2,3.7-2.8c1.4-0.8,2.8-1.5,4.3-2c3-1.1,6.2-1.5,9.5-1.2c1.6,0.1,3.2,0.5,4.7,1
					c1.5,0.5,3,1.2,4.3,2c2.7,1.6,5.1,3.7,6.9,6.2c-2.5-1.8-5-3.5-7.7-4.7c-0.3-0.2-0.7-0.3-1-0.4c-0.3-0.1-0.7-0.3-1-0.4
					c-0.7-0.2-1.4-0.5-2.1-0.7c-1.4-0.4-2.8-0.7-4.3-0.8c-2.9-0.3-5.9,0-8.8,0.7C782.6,709.9,779.8,711,777,712.4z"/>
			</g>
			<path class="st35" d="M639.5,909.7c1.5-1.5,2.8-3.1,4.1-4.8c1.3-1.7,2.4-3.5,3.5-5.3c1.1-1.8,2-3.7,2.8-5.7c0.9-1.9,1.5-4,2.2-6
				c-0.3,2.1-0.7,4.2-1.4,6.3c-0.3,1-0.7,2-1.1,3.1c-0.4,1-0.9,2-1.4,3c-1,1.9-2.1,3.8-3.4,5.6c-1,1.4-2.1,2.8-3.3,4.1
				c1.1,0.2,2.3,0.4,3.4,0.4c1.6,0.1,3.2,0,4.7-0.2c0.8-0.1,1.6-0.3,2.4-0.4c0.8-0.2,1.5-0.4,2.3-0.7c1.5-0.5,2.9-1.3,4.4-2
				c-1.3,1-2.6,2-4.1,2.6c-1.5,0.7-3.1,1.2-4.7,1.6c-1.6,0.3-3.3,0.5-5,0.5c-1.7,0-3.3-0.2-5-0.6l-1.2-0.3L639.5,909.7z"/>
			<path class="st31" d="M688.4,713.6c0,0,43.6-17.2,66.8-43.3c0,0-0.5,14.3-5.4,19.3c1.5,1,31.7-10.7,38.6-33.2
				c7-22.5-34.3-13.8-34.3-13.8s-23.4-3.8-24.5-3.3c-1,0.5-17.8,10.3-18.5,11.1c-0.8,0.8-22.7,31.2-22.7,31.2l-5.6,11.3l-1.3,15.6
				L688.4,713.6z"/>
			<path class="st36" d="M753.9,756.3c0,0,7.1-2.5,13.7,1.8c0,0,7.2-4.4,12.8-0.2c0,0-2.6,10.4-14.4,9.7
				C754.2,766.9,753.9,756.3,753.9,756.3z"/>
			<path class="st32" d="M747.7,752.6c1.3,1.1,2.7,2,4.2,2.9c1.4,0.9,2.9,1.7,4.5,2.3c3.1,1.3,6.3,2.3,9.7,2.5
				c3.3,0.3,6.7-0.1,9.9-1.1c3.2-1,6.2-2.6,9.1-4.4c-1.3,1.1-2.6,2.2-4.1,3.1c-1.5,0.9-3,1.6-4.7,2.3c-1.6,0.6-3.3,1-5.1,1.3
				c-1.7,0.2-3.5,0.3-5.3,0.1c-3.5-0.3-6.9-1.3-10-2.9C752.9,757.1,750.1,755.1,747.7,752.6z"/>
			<path class="st32" d="M770,719.4c1.7,2.7,3.1,5.5,4.4,8.3c1.3,2.9,2.5,5.8,3.4,8.8c0.4,1.5,0.8,3.1,0.9,4.8c0,0.4,0,0.9,0,1.3
				c0,0.2-0.1,0.5-0.1,0.7c-0.1,0.3-0.2,0.5-0.4,0.8c-0.1,0.1-0.2,0.3-0.3,0.4l-0.3,0.2c-0.2,0.1-0.3,0.3-0.5,0.4
				c-0.4,0.2-0.7,0.5-1.1,0.7c-1.4,0.9-2.9,1.5-4.5,2c-1.5,0.5-3.1,0.9-4.7,1.2c2.9-1.3,5.8-2.7,8.3-4.4c0.3-0.2,0.6-0.5,0.9-0.7
				l0.4-0.4l0.2-0.2c0,0,0-0.1,0.1-0.1c0.2-0.3,0.2-1.1,0.1-1.8c-0.1-1.4-0.5-2.9-0.9-4.4c-0.8-2.9-1.9-5.9-2.9-8.8
				C772,725.4,770.9,722.4,770,719.4z"/>
			<linearGradient id="SVGID_3_" gradientUnits="userSpaceOnUse" x1="938.1258" y1="908.7023" x2="989.0169" y2="908.7023">
				<stop  offset="0" style="stop-color:#BFD8F2"/>
				<stop  offset="0.5" style="stop-color:#B8D4F0"/>
				<stop  offset="1" style="stop-color:#5DACDF"/>
			</linearGradient>
			<polygon class="st37" points="957,876.8 970.1,876.8 989,876.8 978,940.6 970.1,940.6 957,940.6 949.1,940.6 938.1,876.8 			"/>
			<path class="st25" d="M939.6,890.9c0,0,14.1-2.4,15.1,0c1,2.4-11.4,1.1-13.7,7.7C938.6,905.2,939.6,890.9,939.6,890.9z"/>
			<path class="st28" d="M979.3,899.9c1.9,0,3.7,0.3,5.4,0.8l-5.9,34.1c-9.6-0.3-17.4-8-17.4-17.4
				C961.4,907.7,969.5,899.9,979.3,899.9z"/>
			<path class="st25" d="M978.7,941.2l0.5,0c3.2,0.2,6.1-2,6.7-5.2l6.2-35.6c0.3-1.7-0.4-3.5-1.8-4.5c-4.6-3.2-14.2-9.7-16.3-8.6
				c-2.7,1.5,11.6,12.9,10.5,13.6c-1.1,0.7-17.1-4.6-17.5-2.6c-0.4,1.8,14.7,9.2,14.6,10.2c-0.2,1.1-15.4-1.5-16.2,0.3
				c-0.8,1.6,14.5,6.5,14.6,7.2L978.7,941.2z"/>
			<path class="st13" d="M935.6,882.5h55.3c1.2,0,2.1-0.9,2.1-2.1V878c0-1.2-0.9-2.1-2.1-2.1h-55.3c-1.2,0-2.1,0.9-2.1,2.1v2.5
				C933.5,881.6,934.4,882.5,935.6,882.5z"/>
			<path class="st25" d="M680.7,1045.6c-1.2,0.3-1.5,1.7-0.6,2.5c6.9,6.1,28.6,25.4,27.4,27.4c-1.4,2.5-21.2-14.3-23.5-13
				c-2.3,1.3,17.4,17.2,15.5,19.6c-1.9,2.4-19.4-12.7-20.6-11.9c-1.2,0.7,14,16.9,13.7,19c-0.3,2.1-18.6-13.3-20.3-12.8
				c-1.7,0.5,7.4,15.2,6.2,16.1c-1.2,0.9-1.8,1.7-32-25.7l-11.4-11.3l-4.2-14.1l14.3-10.9c0,0,52.7,5.4,53.7,7.3
				C699.7,1039.6,698.6,1041,680.7,1045.6z"/>
			<path class="st12" d="M632.1,1007c12.2,11.3,21.7,19.8,22.5,20.5c2.4,2.1-20,35.8-23.3,35.9c0,0-11.9-8.6-28.3-21.6L632.1,1007z"
				/>
		</g>
	</g>
</g>
</svg>
