<?xml version="1.0" encoding="utf-8"?>
<!-- Generator: Adobe Illustrator 24.0.2, SVG Export Plug-In . SVG Version: 6.00 Build 0)  -->
<svg version="1.1" id="bf2b12fd-98ef-4df9-abe4-52340225686d"
	 xmlns="http://www.w3.org/2000/svg" xmlns:xlink="http://www.w3.org/1999/xlink" x="0px" y="0px" viewBox="0 0 720 630.2"
	 style="enable-background:new 0 0 720 630.2;" xml:space="preserve">
<style type="text/css">
	.st0{fill:#9ED16F;}
	.st1{fill:#ADBCFF;}
	.st2{fill:#ADBCFF;stroke:#000000;stroke-width:3.2233;stroke-linecap:round;stroke-linejoin:round;stroke-miterlimit:10;}
	.st3{fill:#FDFDFD;}
	.st4{fill:#9ED16F;stroke:#000000;stroke-width:4;stroke-linecap:round;stroke-linejoin:round;stroke-miterlimit:10;}
	.st5{fill:none;stroke:#000000;stroke-width:4;stroke-linecap:round;stroke-linejoin:round;stroke-miterlimit:10;}
	.st6{fill:#FFFFFF;}
	.st7{fill:#FFFFFF;stroke:#000000;stroke-width:4;stroke-linecap:round;stroke-linejoin:round;stroke-miterlimit:10;}
	.st8{fill:#1A1A1A;}
	.st9{fill:#FDFDFD;stroke:#000000;stroke-width:4;stroke-linejoin:round;stroke-miterlimit:10;}
	.st10{fill:none;stroke:#000000;stroke-width:5;stroke-linecap:round;stroke-linejoin:round;stroke-miterlimit:10;}
	.st11{fill:none;stroke:#1A1A1A;stroke-width:4.0049;stroke-linecap:round;stroke-linejoin:round;stroke-miterlimit:10;}
	.st12{fill:#B0FFC3;}
	.st13{fill:#FDFDFD;stroke:#000000;stroke-width:4.0049;stroke-linejoin:round;stroke-miterlimit:10;}
	.st14{fill:none;stroke:#000000;stroke-width:4.0049;stroke-linecap:round;stroke-linejoin:round;stroke-miterlimit:10;}
	.st15{fill:#FFFFFF;stroke:#1A1A1A;stroke-width:4.0049;stroke-linecap:round;stroke-linejoin:round;stroke-miterlimit:10;}
	.st16{fill:#395FFE;stroke:#000000;stroke-width:4.0049;stroke-linecap:round;stroke-linejoin:round;stroke-miterlimit:10;}
	.st17{fill:#FFFFFF;stroke:#000000;stroke-width:4.0049;stroke-miterlimit:10;}
</style>
<title>discount</title>
<g id="Layer_8">
	<g>
		<g>
			<path class="st0" d="M581.2,482.3c0,0-34,6.5-46.4-29.2l-47.7,79.3C487.2,532.5,557.7,547.6,581.2,482.3z"/>
		</g>
		<g>
			<path d="M504.6,536.8c-10.4,0-17.5-1.5-18-1.6l-3.7-0.8l52.5-87.4l1.8,5.2c11.5,33.1,42.2,27.7,43.5,27.5l4.5-0.8l-1.6,4.6
				c-12.6,34.9-38.4,47.1-57.8,51.3C518.1,536.3,510.8,536.8,504.6,536.8z M491.5,530.4c6.2,0.8,19.2,1.8,33.5-1.2
				c24.9-5.3,42.4-20,52.2-43.6c-9.5,0.4-31.7-1.6-42.8-26.5L491.5,530.4z"/>
		</g>
	</g>
</g>
<g id="Layer_2">
	<g>
		<g>
			<path class="st1" d="M370.8,321c0,0-2.4-52-5.8-70.5c-3.4-18.5-25.8-94.3,89.6-97.4c13.2,1.4,45.5,6.5,52.9,46.9
				s3.4,67.6,1.3,85.2c-2.1,17.6-7.4,86.7,5.6,95.2C527.4,388.9,370.8,321,370.8,321z"/>
		</g>
		<g>
			<path d="M515.1,383.9c-1.5,0-3.8-0.8-7.3-2.2c-3.8-1.4-9.4-3.6-16.6-6.6c-12-4.9-28.7-11.9-49.6-20.8
				c-35.6-15.1-71.5-30.7-71.8-30.9l-1.5-0.7l-0.1-1.8c0-0.5-2.4-52-5.8-70.1c-0.2-1-0.4-2.1-0.7-3.4c-2.8-13.7-8.8-42.3,8-65.3
				c14.6-20.1,43.1-30.8,84.8-31.9h0.2l0.2,0c31.3,3.4,49.8,19.9,55.2,49.1c7.1,38.8,3.8,65.7,1.7,83.5l-0.3,2.7
				c-3.4,28.1-5.6,85.9,4.3,92.5c2.5,1.6,2.1,3.4,1.7,4.3C517,383.4,516.3,383.9,515.1,383.9z M373.3,319
				c46.6,20.2,113.1,48.7,134.9,57c-9.7-23.3-2-90.4-1.9-91.2l0.3-2.7c2.1-17.4,5.3-43.8-1.6-81.7c-4.9-26.9-21.5-41.5-50.5-44.6
				c-39.9,1.1-67.1,11.1-80.7,29.8c-15.3,21-9.7,47.8-7,60.7c0.3,1.3,0.5,2.5,0.7,3.6C370.6,266.7,372.8,309.6,373.3,319z"/>
		</g>
	</g>
</g>
<g id="Layer_14">
	<path class="st2" d="M441.2,169.1c0,0-2.5,13.2,1.6,21.8"/>
</g>
<g id="Layer_5">
	<g>
		<g>
			<path class="st3" d="M398.2,288.4c-3.2,8-10.3,27.6-10.3,27.6l61.7,41.8l6.1-36.9l-28.1-0.9l10.1-27.8L398.2,288.4z"/>
		</g>
		<g>
			<path d="M449.6,360.5c-0.5,0-1-0.1-1.4-0.4l-61.7-41.8c-1-0.7-1.5-2.1-1-3.4c0.1-0.2,7.2-19.7,10.4-27.6c0.4-1.1,1.5-1.8,2.6-1.7
				l39.4,3.7c0.8,0.1,1.5,0.6,2,1.3s0.5,1.6,0.2,2.5l-8.7,24.2l24.4,0.7c0.7,0,1.5,0.4,1.9,1c0.5,0.6,0.7,1.4,0.5,2.2l-6.1,36.9
				c-0.2,0.9-0.7,1.7-1.5,2C450.3,360.4,449.9,360.5,449.6,360.5z M391.1,314.8l56.6,38.3l4.9-29.7l-25.1-0.8
				c-0.8,0-1.6-0.5-2.1-1.2c-0.5-0.7-0.6-1.7-0.3-2.5l8.8-24.4l-34.1-3.2C397.2,298.1,392.8,310,391.1,314.8z"/>
		</g>
	</g>
</g>
<g id="Layer_9">
	<path class="st4" d="M440.1,320.3c0,0,17.5,8.4,2.7,38.4c-14.8,29.9,46,134.9,46,134.9l30.9-106.8
		C519.7,386.8,493.2,314.6,440.1,320.3z"/>
</g>
<g id="Layer_11">
	<path class="st5" d="M461.3,362.9c0,0,45,13.3,32.6,72.8"/>
</g>
<g id="Layer_7">
	<g>
		<g>
			<path class="st6" d="M565.1,319.3c-14.8,2.1-23.9,7.2-34.6,27.8c-10.7,20.6-39.7,90-39.7,90l39.7,41.6l48.4-115
				c0,0-9.7-32.5-38.6-9.7c0,0,19.2-17.3,26.2-19.1S583.3,316.8,565.1,319.3z"/>
		</g>
		<g>
			<path d="M530.5,481.5c-0.7,0-1.3-0.3-1.8-0.8L489,439c-0.8-0.8-1-2-0.6-3.1c1.2-2.8,29.1-69.8,39.8-90.2
				c11.4-21.8,21.6-27.1,36.5-29.2c10.4-1.4,12.7,3,13.2,5.8c1,6-5.4,13.8-10.9,15.2c-2.1,0.5-5.6,2.8-9.5,5.6
				c2.7-0.2,5.2,0.2,7.7,1c11.6,4,15.9,18.1,16.1,18.7c0.2,0.7,0.2,1.4-0.1,2l-48.4,115c-0.3,0.8-1,1.4-1.9,1.6
				C530.8,481.4,530.6,481.5,530.5,481.5z M493.9,436.4l35.7,37.5l46.4-110.4c-1.1-2.9-4.9-11.6-12.4-14.2
				c-6.1-2.1-13.5,0.2-21.9,6.8c-1.1,0.9-2.7,0.7-3.5-0.5c-0.9-1.2-0.7-2.9,0.4-3.8c2-1.8,19.8-17.8,27.3-19.7
				c3.4-0.9,7.4-6.4,7-8.8c-0.2-1.1-2.6-2-7.4-1.3l0,0c-13.8,1.9-22.2,6.4-32.7,26.4C523.1,366.8,498.5,425.5,493.9,436.4z
				 M565.1,319.3L565.1,319.3L565.1,319.3z"/>
		</g>
	</g>
</g>
<g id="Layer_13">
	<path class="st7" d="M547.6,365.7c0,0,4.4-9,16.7-7.4"/>
	<path class="st7" d="M550.5,376.4c0,0,8-9.3,15.9-4.5"/>
</g>
<g id="Layer_10">
	<g>
		<path class="st8" d="M590.1,314.4l-56.5,96c-3.1,5.3-0.4,12.5,5.1,13.4l54.4,9.4c3,0.5,6-1.1,7.7-4l54.9-99.4
			c3-5.5,0-12.6-5.6-13.3l-52.8-6C594.4,310.2,591.7,311.7,590.1,314.4z"/>
	</g>
</g>
<g id="Layer_6">
	<path class="st4" d="M530.5,478.7c0,0-19.9,40.9-29.2,49.3c-4.7,4.3-6.1,5.6-6.3,5.8c0.2-0.1,0.7-0.6,0.7-0.6l2.5,8.4H361.7V331.3
		c0,1.3,1.1-1.1,3.6-4.4c5.2-7.2,16.6-19,35.8-10.9c28.3,11.9,50.5,41.2,71.4,90.3c8.8,20.6,12.9,30.5,14.7,35
		c0.3,0.8,0.5,1.4,0.7,1.9l5-10.2C492.9,432.8,531.2,435.7,530.5,478.7z"/>
	<path class="st5" d="M410,433.5c0,0,43.6,111.8,86,98.2"/>
</g>
<g id="Layer_15">
	<path class="st6" d="M482.9,442.6c-29.9-88.9-86.2-132.5-116.2-112.9c5.2-7,16.4-18.5,35.4-10.6c28,11.6,49.9,40.1,70.5,87.9
		c8.7,20.1,11,31.3,12.8,35.7H482.9z"/>
</g>
<g id="Layer_3">
	<path class="st9" d="M438.1,178.7c7.7-2.3,3,80.7,30,85.8c16.1,2.6,18,10.5,17.2,14.2c-0.8,3.7-6.6,15.6-23.5,8
		c-5.1,0-14.1,17.6-35.2,17.6c-21.2,0-47.4-10.2-45.5-50.9C382.9,212.8,402.2,189.2,438.1,178.7z"/>
</g>
<g id="Layer_4">
	<path class="st5" d="M402.2,213.3c0,0,29.1,16.5-4,44.5"/>
	<path class="st7" d="M394.2,267.1c0,0-0.5,14.4,13.8,8.7"/>
	<path class="st10" d="M431.3,230.1c0,0,12.2-0.9,18.3,7.7"/>
	<ellipse transform="matrix(0.3623 -0.9321 0.9321 0.3623 41.6328 567.7409)" cx="435.7" cy="253.4" rx="7.4" ry="4.5"/>
	<ellipse transform="matrix(0.3623 -0.9321 0.9321 0.3623 36.5543 521.2485)" cx="399.2" cy="233.9" rx="7.4" ry="4.5"/>
</g>
<g id="Layer_12">
	<path class="st7" d="M651.9,338.7c-7.7-2.2-31.5-8.3-34.4-1c-3.6,8.7,19.7,14.5,19.7,14.5s-25.1-5.1-28.5-0.7
		c-3.8,4.9-1.3,9.2-1.3,9.2l21.9,5.7c0,0-19.6-0.5-23.8,3c-1.3,1.1-3.3,5.1,1,7.3c4.2,2.1,12.5,2.7,12.5,2.7l5.8,1.1l3.5,0.7"/>
	<path class="st7" d="M581.2,482.3c52-95.2,73.5-138.8,73.5-138.8"/>
</g>
<g id="Layer_30">
	<path class="st11" d="M76,349.9c0,0,78.3,137.7,85.4,145.8c7.1,8.1,18.9,23.8,38.9,22.5"/>
</g>
<g id="Layer_20">
	<g>
		<g>
			<path class="st12" d="M373.2,335.1c0,0-11.8-39.5-47.4-40.9s-77,8.3-77,8.3s-51.5,16.3-53.5,48.9c-2,32.6,6.4,131,6.4,131
				l-6.7,59.4h164.5L373.2,335.1z"/>
		</g>
		<g>
			<path d="M361.8,544.6H192l7-62.2c-0.6-7-8.3-99.3-6.4-131.2c0.9-14.3,10.8-27.7,28.8-38.9c13.2-8.2,26-12.3,26.5-12.5l0.2,0
				c0.4-0.1,42.1-9.8,77.7-8.4c37,1.5,49.7,42.4,49.8,42.8l0.2,0.5L361.8,544.6z M197.8,539H357l13.6-203.6
				c-1.5-4.6-13.2-37.2-44.9-38.5c-34.1-1.4-74.1,7.7-76.3,8.2c-2.3,0.8-49.7,16.7-51.6,46.4c-2,32,6.3,129.6,6.4,130.6l0,0.3
				L197.8,539z"/>
		</g>
	</g>
</g>
<g id="Layer_24">
	<path class="st13" d="M269.3,268.2l12.1,30.5c0,0-14.7,8.5-12.1,23.1s19.7,6.8,19.7,6.8l48.5-31.3l-16.6-45.7L269.3,268.2z"/>
</g>
<g id="Layer_25">
	<g>
		<path class="st1" d="M342.6,301.2c0,0-10.1-5.8-13.6-6c-7.9-0.4-41.1,20-44.9,39.9C280.2,355,342.6,301.2,342.6,301.2z"/>
	</g>
</g>
<g id="Layer_23">
	<path class="st14" d="M246.7,414.6c0,0,24-49.5,28.7-63.2c4.7-13.6,22.1-50.1,61-56.8"/>
	<path class="st14" d="M307.9,456c0,0,19.4-32.1,25.8-57.9"/>
</g>
<g id="Layer_21">
	<path class="st13" d="M150.8,306.2c-3,1.6,1.3,13,7.1,14.8c5.7,1.8,15.5,10.1,15.5,11.2c0,1.1-19.8-1.8-19.2,6.2
		c0.7,8,16.1,70.2,16.1,70.2s34,85.1,40.4,91.9c6.4,6.9,32,53.2,77-11.6c18.8-29.7,20.2-32.9,20.2-32.9s-44.7-2.5-61.2-41.4
		l-8.1,13.6c0,0-37.3-85.1-40.7-90.5C194.6,332.2,174,293.5,150.8,306.2z"/>
</g>
<g id="Layer_26">
	<path class="st14" d="M158.6,359.6c0,0,11.2,0.7,15.2,6.3"/>
	<path class="st14" d="M156.2,345.6c0,0,19.4-2.8,25,5.8"/>
</g>
<g id="Layer_22">
	<g>
		<path class="st8" d="M72.5,291.7c0,0-10.3,4.3-6.8,14.1c3.4,9.7,46.3,93.6,46.3,93.6s5.3,10.4,16.5,10c11.2-0.3,49.7,1.7,49.7,1.7
			s7.1-6,4.3-13c-2.8-7-45.4-94.5-45.4-94.5s-5-9.2-13.1-9.6C116,293.7,72.5,291.7,72.5,291.7z"/>
	</g>
</g>
<g id="Layer_28">
	<path class="st15" d="M77.3,341.5c0,0,34.2-5.1,39.3,10c0.7,3.2,1.8,7.9-21,8.2c0,0,21.8,0,26,4c4.2,4,2.3,11.1-1,11.5
		c-3.2,0.3-19.1,2.1-19.1,2.1s18.8-0.3,20.6,3.8c1.8,4.2-9.7,7-12,7.7s-3.1,1.4-3.1,1.4"/>
</g>
<g id="Layer_16">
	<path class="st16" d="M231.5,249c0,0-25.9-31.5-24.2-53.6c1.7-22.1,10.8-36.2,31.6-50.3c20.9-14.1,47.4-34.4,49.4-34.4
		s7.4,4,5.4,19.5c0,0,15.8-14.8,16.5-4.7s-2,15.2,2.4,24.3c4.4,9.1,14.5,36.9,14.8,45.3s-69,58.3-69,58.3L231.5,249z"/>
</g>
<g id="Layer_29">
	<path class="st13" d="M319.4,199.8c0,0,3-9.6,10.9-9.4c7.9,0.2,9.6,17.3,7.1,22.3c-2.5,5-6.6,10.4-12.5,11.7"/>
	<path class="st17" d="M227.4,243.5c0,0-3.8,10,0,15.5c3.8,5.5,14.9,10.4,26.1,2.9l-9.7-19.4L227.4,243.5"/>
</g>
<g id="Layer_17">
	<path class="st13" d="M231.9,212.8c-2.7-11-7.4-21.7,2-24.3c9.4-2.5,53.5,2.1,63.2-32.2c0,0,28.3,24.3,28.6,86.5
		c0.3,62.3-60.5,31.9-64.9,27.1C256.4,265.3,235.5,227.2,231.9,212.8z"/>
	<ellipse cx="268.9" cy="217.3" rx="4.4" ry="7.5"/>
	<ellipse cx="303.2" cy="207.4" rx="4.4" ry="7.5"/>
</g>
<g id="Layer_19">
	<path class="st14" d="M245.3,218.9c0,0-1.7-26.4,27.6-19.5"/>
	<path class="st14" d="M306.6,185.6c0,0-28.6,5.4-19.2,33.3c9.7,11.6,15.8,10.1,15.5,15.2s-4,8.3-4,8.3"/>
	<path class="st14" d="M272.9,251.5c0,0,8.4,15.6,20.5,1.8"/>
	<path d="M80.7,260.7c1.7,0,3.4-0.5,4.8-1.4c3,1.8,6.7,1.8,9.6,0c1.5,0.9,3.1,1.4,4.8,1.4c1.4,0,2.5-1.2,2.5-2.7
		c0-1.5-1.1-2.7-2.5-2.7c-1.2,0-2.3-0.5-3.1-1.3c-1-0.9-2.4-0.9-3.4,0c-1.8,1.7-4.5,1.7-6.3,0c-1-0.9-2.4-0.9-3.4,0
		c-0.9,0.8-2,1.3-3.1,1.3c-2.6,0-4.7-2.3-4.7-5.1c0-1.5-1.1-2.7-2.5-2.7c-1.4,0-2.5,1.2-2.5,2.7C70.9,256,75.3,260.7,80.7,260.7
		L80.7,260.7z"/>
	<path d="M154.1,198.2c1.4,0,2.5-1.2,2.5-2.7c0-4.2,3.2-7.6,7.1-7.6c3.9,0,7.1,3.4,7.1,7.6c0,1.5,1.1,2.7,2.5,2.7
		c1.4,0,2.5-1.2,2.5-2.7c0-7.2-5.5-13.1-12.2-13.1c-6.7,0-12.2,5.9-12.2,13.1C151.5,197,152.7,198.2,154.1,198.2L154.1,198.2z"/>
	<path d="M168.7,253.3c0,3.6-5,3.6-5,0S168.7,249.7,168.7,253.3"/>
	<path d="M352.1,106.2c0,3.6-5,3.6-5,0C347,102.6,352.1,102.6,352.1,106.2"/>
	<path d="M558.7,168c0,3.6-5,3.6-5,0S558.7,164.4,558.7,168"/>
	<path d="M111.2,258c0,3.6-5,3.6-5,0C106.2,254.4,111.2,254.4,111.2,258"/>
	<path d="M590.3,270.9c0,3.6-5,3.6-5,0C585.3,267.3,590.3,267.3,590.3,270.9"/>
	<path d="M605.4,230.3c0,3.6-5,3.6-5,0S605.4,226.7,605.4,230.3"/>
	<path d="M139.7,220.9c0,3.6-5,3.6-5,0C134.7,217.3,139.7,217.3,139.7,220.9"/>
	<path d="M551,270.9c0.6-1.5,2.3-2.2,3.8-1.5c1.1,0.5,1.7,1.1,1.8,4c0.1,2.2,2.5,3.4,4.1,2c1.2-1.1,2.1-1.5,2.7-1.5
		c0.3,0,0.7,0.1,1.2,0.3c1.4,0.7,2.1,2.5,1.4,4.1c-1.4,3.4-5.7,4.3-11.7,6.5c-0.4-1-0.8-2-1.2-2.9C551,276.6,549.9,273.6,551,270.9
		L551,270.9z M550.5,289c0.5,1.4,1.9,2.1,3.2,1.6c7-2.9,14.1-3.6,16.9-10.2c1.8-4.3,0-9.3-4-11.2c-1.9-0.9-3.8-1.1-5.8-0.3
		c-0.6-1.8-1.8-3.4-4-4.4c-4-1.9-8.7,0-10.4,4.2c-2.1,5.1-0.1,10,2.1,15.2C549.2,285.5,549.9,287.2,550.5,289L550.5,289z"/>
	<path d="M136.6,251.7c-0.5-0.3-0.8-0.9-0.5-1.5c0.2-0.5,0.3-0.7,1.7-0.7c2.1-0.1,3.2-2.7,1.9-4.4c-0.9-1.2-0.8-1.4-0.6-1.9
		c0.2-0.6,0.9-0.8,1.4-0.6c1.6,0.8,2.2,3.4,3.3,7.1C140.5,251.2,138.3,252.5,136.6,251.7L136.6,251.7z M142.5,237.7
		c-3.1-1.5-6.7,0-8.1,3.3c-0.6,1.5-0.7,2.8-0.4,4c-1,0.6-1.9,1.5-2.5,3c-1.4,3.3,0,7.2,3.1,8.7c4.4,2.2,8.5-1,13.3-2.9
		c1.3-0.5,2-2.1,1.5-3.5C148.9,249.1,147,239.8,142.5,237.7L142.5,237.7z"/>
	<path d="M562.4,191.8l-2.6-2.8l2.6-2.8c1-1.1,1-2.8,0-3.8c-1-1.1-2.6-1.1-3.6,0l-4.4,4.7c-1,1.1-1,2.8,0,3.8l2.6,2.8l-2.6,2.8
		c-1,1.1-1,2.8,0,3.8l4.4,4.7c1,1.1,2.6,1.1,3.6,0c1-1.1,1-2.8,0-3.8l-2.6-2.8l2.6-2.8C563.4,194.6,563.4,192.9,562.4,191.8z"/>
	<path d="M346.6,122.4l3.8,0.8l-1.7,1.8c-1.4,1.5-0.7,4,1.2,4.5c7.1,1.9,6.8,1.9,7.3,1.9c1.1,0,2.2-0.8,2.4-2
		c0.3-1.5-0.5-2.9-1.8-3.3l-2.4-0.6l1.9-2c1.4-1.5,0.7-4.1-1.3-4.6l-8.4-1.8c-1.4-0.3-2.7,0.7-3,2.1
		C344.3,120.6,345.2,122.1,346.6,122.4L346.6,122.4z"/>
	<path d="M364.7,95.4c1.4,0,2.5,1.2,2.5,2.7c0,1.5-1.1,2.7-2.5,2.7s-2.5-1.2-2.5-2.7C362.2,96.6,363.3,95.4,364.7,95.4z
		 M364.7,106.2c4.2,0,7.6-3.6,7.6-8.1c0-4.5-3.4-8.1-7.6-8.1s-7.6,3.6-7.6,8.1C357.1,102.6,360.5,106.2,364.7,106.2z"/>
	<path d="M597.9,257.4c-2.8,0-5-2.4-5-5.4c0-3,2.3-5.4,5-5.4c2.8,0,5,2.4,5,5.4C602.9,254.9,600.6,257.4,597.9,257.4z M597.9,241.2
		c-5.6,0-10.1,4.8-10.1,10.8c0,6,4.5,10.8,10.1,10.8s10.1-4.8,10.1-10.8C607.9,246,603.4,241.2,597.9,241.2z"/>
</g>
</svg>
